<svg xmlns="http://www.w3.org/2000/svg" xmlns:xlink="http://www.w3.org/1999/xlink" width="20" height="22" viewBox="0 0 20 22">
    <defs>
        <path id="a" d="M.03.369H19.7V22H.03z"/>
    </defs>
    <g fill="none" fill-rule="evenodd">
        <mask id="b" fill="#fff">
            <use xlink:href="#a"/>
        </mask>
        <path fill="#101010" fill-opacity=".786" d="M19.582 8.418a.384.384 0 0 0-.567 0L8.1 19.854a4.152 4.152 0 0 1-6.051 0 4.56 4.56 0 0 1-1.248-3.17 4.56 4.56 0 0 1 1.248-3.17L12.965 2.078c1.158-1.213 2.979-1.14 4.233.174 1.251 1.314 1.323 3.219.165 4.432L7.105 17.429c-.572.6-1.506.6-2.08 0a1.596 1.596 0 0 1 0-2.18l6.947-7.28a.434.434 0 0 0 0-.593.389.389 0 0 0-.566 0l-6.947 7.279a2.466 2.466 0 0 0 0 3.366 2.203 2.203 0 0 0 3.213 0L17.927 7.276c1.483-1.553 1.411-3.967-.163-5.619C16.188.008 13.88-.067 12.4 1.483L1.482 12.923C.525 13.923 0 15.26 0 16.684c0 1.427.525 2.762 1.482 3.763A4.922 4.922 0 0 0 5.075 22c1.36 0 2.635-.55 3.59-1.553L19.582 9.01a.431.431 0 0 0 0-.592z" mask="url(#b)"/>
    </g>
</svg>
