<svg xmlns="http://www.w3.org/2000/svg" width="44" height="44" viewBox="0 0 44 44">
    <path fill="#2496FF" fill-rule="evenodd" d="M34.129 44c-2.471 0-11.397-.852-22.34-11.792C.852 21.268 0 12.345 0 9.868 0 5.809 5.23.018 6.565 0h2.969c.403 0 .767.242.922.614l4.384 10.337c.177.423.041.914-.325 1.189-4.128 3.105-5.493 4.055-5.517 5.619 0 3.365 13.871 17.24 17.213 17.24 1.587-.017 2.637-1.368 5.742-5.501a1.008 1.008 0 0 1 1.19-.326l10.244 4.37a1 1 0 0 1 .613.922v2.974C43.984 38.773 38.191 44 34.129 44"/>
</svg>
