<?xml version="1.0" encoding="UTF-8" standalone="no"?>
<svg width="18px" height="19px" viewBox="0 0 18 19" version="1.1" xmlns="http://www.w3.org/2000/svg" xmlns:xlink="http://www.w3.org/1999/xlink">
    <!-- Generator: Sketch 42 (36781) - http://www.bohemiancoding.com/sketch -->
    <title>slack - FontAwesome</title>
    <desc>Created with Sketch.</desc>
    <defs></defs>
    <g id="Symbols" stroke="none" stroke-width="1" fill="none" fill-rule="evenodd">
        <g id="av-channel" transform="translate(-9.000000, -8.000000)" fill="#9F9F9F">
            <path d="M25.4314904,17.1084971 C26.3185096,17.1084971 27,17.7575355 27,18.6445548 C27,19.3368625 26.6430288,19.8236413 25.9939904,20.0508048 L24.1334135,20.6890259 L24.7391827,22.4955163 C24.7932692,22.6577759 24.8149038,22.8308528 24.8149038,23.0039298 C24.8149038,23.8584971 24.1225962,24.5724394 23.2680288,24.5724394 C22.5865385,24.5724394 21.9807692,24.1505644 21.7644231,23.5015259 L21.1694712,21.7166701 L17.8161058,22.8633048 L18.4110577,24.6373432 C18.4651442,24.7996028 18.4975962,24.9726798 18.4975962,25.1457567 C18.4975962,25.9895067 17.8052885,26.7142663 16.9399038,26.7142663 C16.2584135,26.7142663 15.6634615,26.2923913 15.4471154,25.6433528 L14.8521635,23.8801317 L13.1971154,24.453449 C13.0240385,24.5075355 12.8401442,24.5508048 12.65625,24.5508048 C11.7800481,24.5508048 11.1201923,23.9017663 11.1201923,23.0255644 C11.1201923,22.3548913 11.5528846,21.7491221 12.1911058,21.5327759 L13.8786058,20.9594586 L12.7427885,17.5736413 L11.0552885,18.1577759 C10.8822115,18.2118625 10.7091346,18.2443144 10.5360577,18.2443144 C9.67067308,18.2443144 9,17.5844586 9,16.719074 C9,16.0484009 9.43269231,15.4426317 10.0709135,15.2262855 L11.7692308,14.6529682 L11.1959135,12.9330163 C11.1418269,12.7707567 11.109375,12.5976798 11.109375,12.4246028 C11.109375,11.5700355 11.8016827,10.8560932 12.6670673,10.8560932 C13.3485577,10.8560932 13.9435096,11.2779682 14.1598558,11.9270067 L14.7439904,13.6577759 L18.0973558,12.5219586 L17.5132212,10.7911894 C17.4591346,10.6289298 17.4266827,10.4558528 17.4266827,10.2827759 C17.4266827,9.42820861 18.1298077,8.7142663 18.984375,8.7142663 C19.6658654,8.7142663 20.2716346,9.14695861 20.4879808,9.78517976 L21.0612981,11.5267663 L22.8137019,10.9318144 C22.9651442,10.8885451 23.1165865,10.8669105 23.2788462,10.8669105 C24.1225962,10.8669105 24.8473558,11.4943144 24.8473558,12.359699 C24.8473558,13.0303721 24.328125,13.5928721 23.7223558,13.7984009 L22.0240385,14.3825355 L23.1598558,17.8008048 L24.9338942,17.1950355 C25.0961538,17.140949 25.2692308,17.1084971 25.4314904,17.1084971 Z M16.8425481,19.9426317 L20.1959135,18.8068144 L19.0600962,15.3993625 L15.7067308,16.5568144 L16.8425481,19.9426317 Z" id="slack---FontAwesome"></path>
        </g>
    </g>
</svg>