<svg xmlns="http://www.w3.org/2000/svg" viewBox="0 0 508 508"><circle cx="254" cy="254" r="254" fill="#84dbff"/><path d="M441.2 190.8c0 3.2-.8 6-2.8 8.8-8.8-4.8-19.2-7.2-30-7.2-11.2 0-21.6 2-30 7.2-1.6-2.8-2.8-5.6-2.8-8.8 0-12 14.8-22 32.8-22s32.8 10 32.8 22z" fill="#f1543f"/><path d="M464.8 254.4c0 12.4-2 25.2-5.2 37.6H357.2l-2.4-10.4c9.6-17.2 20-45.6 14.8-76 10-9.2 23.6-13.2 38.4-13.2 31.6 0 56.8 17.2 56.8 62z" fill="#ff7058"/><path d="M444.8 328s2.8 16-15.6 32.4l-57.6-28c.4-4.4 1.6-8.4 3.2-12 8.8 16 20.8 26.8 34 26.8s25.2-11.2 34-26.8c.8 2.4 1.6 4.8 2 7.6z" fill="#f9b54c"/><path d="M485.6 358.4c-8.8 20-20.4 38.4-34 55.2l-3.2-10.4c2-6 9.6-39.6 4.8-60.8l32.4 16z" fill="#4cdbc4"/><path d="M448.4 403.2l-12.8-40-6.4-3.2c18.4-16.4 15.6-32.4 15.6-32.4 18 14 6 67.6 3.6 75.6zM372 328c-.4 1.2-.4 2.8-.8 4.4l-2.4-1.2c.8-1.2 2-2.4 3.2-3.2z" fill="#fff"/><path d="M462.8 296.8c-3.6 7.2-9.6 10.4-13.6 8-9.2 23.6-24 42-41.2 42s-32-18.4-41.2-42c-4 2.4-10-1.2-13.6-8-1.6-3.2-2.4-6.4-2.8-9.2 2-2.8 4-6.4 6-10.4.8 0 1.6 0 2.8.4l.4.4c0-.4-1.6-15.2 37.6-31.2 14-5.6 22.8-12 28-18 2 8.8 6.8 21.2 19.6 26 0 0 12 2.8 10.8 22.8 2-.8 4-.8 5.6.4 5.2 3.2 5.6 11.6 1.6 18.8z" fill="#ffd05b"/><path d="M342.8 395.2c-.8 5.6-2 11.6-2.8 18l-14-42.4c6.8 5.6 13.2 13.2 16.8 24.4z" fill="#e6e9ee"/><path d="M338.8 304s4.8 26.4-33.6 49.2L261.6 332c-11.6-15.2-9.2-28-9.2-28h-.4c0-.4 0-.8.4-1.6 12 14.8 26.8 24.4 43.2 24.4s31.2-9.6 43.2-24.4c0 .8.4 1.2 0 1.6z" fill="#f9b54c"/><path d="M451.6 413.6c-24 29.6-54.4 53.6-89.2 70l-22.8-70.4c1.2-6 2-12 2.8-18 .4.8 12.8-45.6 6-73.6l86.4 41.6 16.8 50.4z" fill="#2b3b4e"/><path d="M342.8 395.2c-3.6-11.2-10-19.2-16.8-24.4l-2.8-8.8-17.6-8.4c38.4-22.8 33.6-49.2 33.6-49.2 23.6 17.6 4 92 3.6 90.8zM261.6 332l-19.2-9.2c1.6-8 4.8-14.8 10-18.8 0 0-2.4 12.8 9.2 28z" fill="#fff"/><path d="M350.8 269.2c-5.6 17.6-8 27.2-8 28.4-12.8 17.2-29.2 29.2-46.8 29.2-16.8 0-32.4-10.4-44.8-26 0 0 .4 0 .4.4-12-14.8-14.8-35.6-14.4-53.6 4.4-10.4 7.6-22.8 9.6-36 16 12 52.8 12.8 52.8 12.8-18.8-3.2-21.6-18-21.6-18 3.2 9.2 44.8 14.8 44.8 14.8 42.4 6 28 48 28 48z" fill="#ffd05b"/><path d="M251.2 301.2s-14-11.2-25.6-30.8c3.6-6 7.6-14 11.2-22.8-.4 18 2.4 38.8 14.4 53.6zm91.6-3.2s2-10 8-28.4c0 0 14.4-42-28.8-48.4 0 0-41.6-5.6-44.8-14.8 0 0 3.2 15.2 21.6 18 0 0-36.8-.8-52.8-12.8 2.4-20 .8-42-9.6-64 8.4-4.4 19.2-6 34-2 0 0 58.4-23.2 88.4 29.6 32 56.4-8 117.6-16 122.8z" fill="#2b3b4e"/><path d="M334.4 239.2h-77.6a11.61 11.61 0 0 0-11.6 11.6v9.6a11.61 11.61 0 0 0 11.6 11.6h22.4c2.8 0 5.6-1.2 7.6-2.8.8-.4 1.2-.8 1.6-1.6 1.6-3.6 4.4-5.6 7.2-5.6s5.6 2 7.2 5.6c.4.8.8 1.2 1.6 1.6 2 2 4.8 2.8 7.6 2.8h22.4a11.61 11.61 0 0 0 11.6-11.6v-9.6a11.61 11.61 0 0 0-11.6-11.6zm-77.6 27.2c-3.2 0-6-2.8-6-6v-9.6c0-3.2 2.8-6 6-6h22.8c3.2 0 6 2.8 6 6v9.6c0 .8 0 1.6-.4 2.4-.4.4-.4.8-.8 1.2-1.2 1.6-2.8 2.4-4.8 2.4h-22.8zm38.8-10.4c-1.6 0-3.2.4-4.8 1.2v-6.8c0-2.4-.8-4.4-1.6-6h13.2c-1.2 1.6-1.6 4-1.6 6v6.8c-2-.8-3.6-1.2-5.2-1.2zm44.8 4.4c0 3.2-2.8 6-6 6H312c-2 0-3.6-.8-4.8-2.4-.4-.4-.4-.8-.8-1.2-.4-.8-.4-1.6-.4-2.4v-9.6c0-3.2 2.8-6 6-6h22.4c3.2 0 6 2.8 6 6v9.6z" fill="#324a5e"/><path d="M77.6 436.4c.4.8 1.2 1.2 1.6 1.6-.4-.4-1.2-.8-1.6-1.6zm82.4-80.8c-.4 0-.8.4-1.2.4s-.8-.4-1.2-.4h2.4zm54 44c-4.4 29.2-11.6 63.2-23.6 100.4-26-6.8-50.8-17.6-72.8-31.6-6.8-24.8-11.2-48-14-68.8 12.8-40 55.2-43.6 55.2-43.6s42.8 3.6 55.2 43.6z" fill="#e6e9ee"/><path d="M209.6 292s6.4 36-50.8 64h-.4c-57.2-28-50.8-64-50.8-64h-.4c0-.4.4-1.2.4-1.6 14 17.2 31.6 28.4 50.8 28.4s36.4-11.2 50.8-28.4c.4.8.8 1.2.4 1.6.4.4.4 0 0 0z" fill="#f9b54c"/><path d="M159.2 356s-.4 0 0 0h-.4.4zm20 5.6l-6.8 19.6h-26.8l-6.8-19.6c11.2-4.8 20-5.6 20-5.6s9.2.8 20.4 5.6z" fill="#54c0eb"/><path d="M189.2 499.6l-16.8-118.4h-26.8L132 476.8c17.6 9.6 36.8 17.6 57.2 22.8z" fill="#84dbff"/><path d="M117.6 468.4c-44-28-78.8-69.2-98.8-118l77.6-37.2c-8 33.6 6.8 88 7.2 86.8 2.8 20.4 7.6 43.2 14 68.4z" fill="#324a5e"/><path d="M209.6 292s6.4 36-50.8 64c0 0 42.8 3.2 55.2 43.6.8 1.2 24-86-4.4-107.6zM108 292c-28 21.2-4.8 108.8-4.4 107.2 12.8-40 55.2-43.6 55.2-43.6C101.6 328.4 108 292 108 292z" fill="#fff"/><path d="M223.6 251.2c-7.2 22-9.6 33.6-9.6 33.6-14.8 20.4-34 34-55.2 34-20 0-38-12.4-52.8-30.8l.4.4c-31.2-38.4-9.6-109.2-9.6-109.2 15.6 17.6 66 18.8 66 18.8-22-3.6-25.6-21.2-25.6-21.2 3.6 10.8 52.4 17.2 52.4 17.2 50.8 8 34 57.2 34 57.2z" fill="#ffd05b"/><path d="M129.6 105.6s68.8-27.6 103.6 34.8c37.6 66.4-9.6 138.8-19.2 144.4 0 0 2.4-11.6 9.6-33.6 0 0 16.8-49.2-33.6-56.8 0 0-49.2-6.4-52.4-17.2 0 0 3.6 17.6 25.6 21.2 0 0-50.4-1.2-66-18.8 0 0-21.6 70.8 10 109.2 0 0-54-43.2-47.6-110-.4 0-3.2-91.6 70-73.2zm232.8 378C329.6 499.2 292.8 508 254 508c-22 0-43.2-2.8-63.2-8 12-37.2 19.2-71.2 23.6-100.4.8 0 14.8-53.6 7.2-86.8L323.2 362l39.2 121.6z" fill="#324a5e"/></svg>