<svg xmlns="http://www.w3.org/2000/svg" xmlns:xlink="http://www.w3.org/1999/xlink" width="100" height="100" viewBox="0 0 100 100">
    <defs>
        <path id="a" d="M.025 0h15.728v19.975H.025z"/>
    </defs>
    <g fill="none" fill-rule="evenodd">
        <path fill="#EAECEF" d="M0 0h102v100H0z"/>
        <g transform="translate(40 42)">
            <mask id="b" fill="#fff">
                <use xlink:href="#a"/>
            </mask>
            <path fill="#87888A" d="M14.112 4V0H0v18.333h.984V1h10.175z" mask="url(#b)"/>
            <path fill="#87888A" d="M10.966 1.667H1.641V20h14.112V6.528l-4.787-4.861zm-6.372 4h3.283A.33.33 0 0 1 8.205 6a.33.33 0 0 1-.328.334H4.594a.33.33 0 0 1-.328-.334.33.33 0 0 1 .328-.331zM12.8 17H4.594a.332.332 0 0 1-.328-.333c0-.184.148-.334.328-.334H12.8c.18 0 .328.15.328.334A.332.332 0 0 1 12.8 17zm0-2.668H4.594a.33.33 0 0 1-.328-.331.33.33 0 0 1 .328-.334H12.8a.33.33 0 0 1 .328.334.33.33 0 0 1-.328.332zm0-2.665H4.594a.332.332 0 0 1-.328-.334c0-.184.148-.334.328-.334H12.8c.18 0 .328.15.328.334a.331.331 0 0 1-.328.334zM12.8 9H4.594a.332.332 0 0 1-.328-.334c0-.184.148-.334.328-.334H12.8c.18 0 .328.15.328.334a.332.332 0 0 1-.328.334zm-2.297-2V2.333L15.098 7h-4.595z" mask="url(#b)"/>
        </g>
    </g>
</svg>
