<?xml version="1.0" encoding="UTF-8"?>
<svg width="16px" height="16px" viewBox="0 0 16 16" version="1.1" xmlns="http://www.w3.org/2000/svg" xmlns:xlink="http://www.w3.org/1999/xlink">
    <!-- Generator: Sketch 49 (51002) - http://www.bohemiancoding.com/sketch -->
    <title>Group 4@2x</title>
    <desc>Created with Sketch.</desc>
    <defs>
        <path d="M0.378,0.244 L0.378,0.55 C0.378,2.773 2.251,4.583 4.553,4.583 C6.856,4.583 8.729,2.773 8.729,0.55 L8.729,0.244 L0.378,0.244 Z" id="path-1"></path>
        <path d="M0.402,0.936 C0.402,1.304 0.711,1.603 1.093,1.603 C1.473,1.603 1.783,1.304 1.783,0.936 C1.783,0.568 1.473,0.269 1.093,0.269 C0.711,0.269 0.402,0.568 0.402,0.936 Z" id="path-3"></path>
        <path d="M0.378,0.936 C0.378,1.304 0.687,1.603 1.069,1.603 C1.45,1.603 1.759,1.304 1.759,0.936 C1.759,0.568 1.45,0.269 1.069,0.269 C0.687,0.269 0.378,0.568 0.378,0.936 Z" id="path-5"></path>
    </defs>
    <g id="Page-1" stroke="none" stroke-width="1" fill="none" fill-rule="evenodd">
        <g id="Emoticon-Copy" transform="translate(-12.000000, -7.000000)">
            <g id="Group-4" transform="translate(12.000000, 7.000000)">
                <g id="Page-1">
                    <g id="Group-3" transform="translate(3.000000, 9.000000)">
                        <mask id="mask-2" fill="white">
                            <use xlink:href="#path-1"></use>
                        </mask>
                        <g id="Clip-2"></g>
                        <polygon id="Fill-1" fill="#515151" mask="url(#mask-2)" points="-4.622 9.583 13.729 9.583 13.729 -4.756 -4.622 -4.756"></polygon>
                    </g>
                    <g id="Group-6" transform="translate(4.000000, 6.000000)">
                        <mask id="mask-4" fill="white">
                            <use xlink:href="#path-3"></use>
                        </mask>
                        <g id="Clip-5"></g>
                        <polygon id="Fill-4" fill="#515151" mask="url(#mask-4)" points="-4.598 6.603 6.783 6.603 6.783 -4.731 -4.598 -4.731"></polygon>
                    </g>
                    <g id="Group-9" transform="translate(9.000000, 6.000000)">
                        <mask id="mask-6" fill="white">
                            <use xlink:href="#path-5"></use>
                        </mask>
                        <g id="Clip-8"></g>
                        <polygon id="Fill-7" fill="#515151" mask="url(#mask-6)" points="-4.622 6.603 6.759 6.603 6.759 -4.731 -4.622 -4.731"></polygon>
                    </g>
                    <g id="Group-14" transform="translate(0.000000, 2.000000)" fill="#515151">
                        <path d="M13.317,4.6849 C13.588,5.3809 13.743,6.1349 13.743,6.9259 C13.743,10.3389 10.967,13.1159 7.553,13.1159 C4.14,13.1159 1.363,10.3389 1.363,6.9259 C1.363,3.5129 4.14,0.7359 7.553,0.7359 C8.023,0.7359 8.478,0.7929 8.917,0.8929 C8.946,0.8549 9.089,0.3419 8.951,0.3229 C8.495,0.2579 8.033,0.1759 7.553,0.1759 C3.831,0.1759 0.803,3.2039 0.803,6.9259 C0.803,10.6479 3.831,13.6759 7.553,13.6759 C11.275,13.6759 14.303,10.6479 14.303,6.9259 C14.303,5.9619 14.099,5.0449 13.733,4.2149 C13.664,4.0599 13.431,4.5179 13.317,4.6849" id="Fill-10"></path>
                    </g>
                    <path d="M11.7258,6.1503 L11.7258,4.2173 L9.7108,4.2173 C9.4808,4.2173 9.1608,3.9783 9.1608,3.5893 C9.1608,3.4143 9.2268,3.2513 9.3478,3.1303 C9.4528,3.0253 9.5998,2.9593 9.7118,2.9613 L11.7248,2.9613 L11.7248,1.0283 C11.7248,0.8033 11.9698,0.4893 12.3688,0.4893 C12.7668,0.4893 13.0118,0.8033 13.0118,1.0283 L13.0118,2.9613 L15.0258,2.9613 C15.2558,2.9613 15.5768,3.2003 15.5768,3.5893 C15.5768,3.9783 15.2558,4.2173 15.0268,4.2173 L13.0118,4.2173 L13.0118,6.1503 C13.0118,6.3753 12.7668,6.6893 12.3688,6.6893 C11.9708,6.6893 11.7258,6.3753 11.7258,6.1503 Z" id="Fill-12" fill="#515151"></path>
                </g>
            </g>
        </g>
    </g>
</svg>