<svg xmlns="http://www.w3.org/2000/svg" width="206" height="178" viewBox="0 0 206 178">
    <g fill="none" fill-rule="evenodd" transform="translate(0 -12)">
        <path fill="#757376" fill-rule="nonzero" d="M59.903 160.376h84.326v25.084c0 2.05-1.679 3.712-3.75 3.712H63.653c-2.07 0-3.75-1.662-3.75-3.712v-25.084z"/>
        <ellipse cx="102.534" cy="174.775" fill="#FFF" fill-rule="nonzero" rx="7.964" ry="7.896"/>
        <path fill="#757376" fill-rule="nonzero" d="M63.652 56.343h76.828c2.07 0 3.749 1.661 3.749 3.711v4.648H59.903v-4.649c0-2.05 1.678-3.711 3.749-3.711z"/>
        <path fill="#DEE4FE" fill-rule="nonzero" d="M59.695 64.531h84.326v95.675H59.695z"/>
        <g fill-rule="nonzero" transform="rotate(47 85.446 197.35)">
            <rect width="61.664" height="61.669" x="11.524" y="12.085" fill="#F8F9FF" rx="7.281" transform="rotate(-30 42.355 42.92)"/>
            <path fill="#6CC64D" stroke="#FFF" stroke-linecap="round" stroke-linejoin="round" stroke-width=".948" d="M42.675 51.58c-1.206-2.083-1.913-3.888-2.12-5.417-.209-1.526.014-3.278.668-5.252.654-1.974.987-3.467 1-4.475a5.294 5.294 0 0 0-.705-2.765c-1.455-2.516-3.343-3.103-5.663-1.765-1.102.635-1.788 1.482-2.06 2.54-.27 1.061-.076 2.194.582 3.402l-6.474 3.733c-1.614-2.86-1.98-5.615-1.102-8.267.879-2.65 2.882-4.875 6.007-6.677 3.156-1.82 6.044-2.469 8.668-1.946 2.623.521 4.74 2.174 6.348 4.956a9.07 9.07 0 0 1 1.223 4.073c.085 1.45-.185 3.267-.807 5.453l-.815 2.76c-.502 1.74-.415 3.385.265 4.938l.7 1.416-5.717 3.293h.002zm3.312 7.229c-.576-.999-.712-2.016-.41-3.054.303-1.038.983-1.86 2.041-2.47 1.056-.61 2.109-.786 3.162-.529 1.05.257 1.865.883 2.441 1.882.567.981.705 1.983.414 3.006-.293 1.021-.983 1.846-2.07 2.473-1.086.626-2.144.811-3.176.553-1.034-.259-1.833-.88-2.4-1.861h-.002z"/>
        </g>
        <path fill="#F1F3F7" fill-rule="nonzero" d="M91.005 94.947V87.89c0-5.904 4.81-10.742 10.78-10.742s10.78 4.794 10.78 10.742v7.057h4.456V87.89c0-8.345-6.816-15.18-15.236-15.18-8.375 0-15.235 6.79-15.235 15.18v7.057h4.455z"/>
        <path fill="#FBC503" fill-rule="nonzero" d="M82.541 94.415h38.489v31.604H82.541z"/>
        <path fill="#393D47" fill-rule="nonzero" d="M105.037 112.57c0-1.776-1.47-3.241-3.252-3.241-1.782 0-3.252 1.465-3.252 3.24 0 1.42.891 2.575 2.139 3.063v4.527a1.1 1.1 0 0 0 1.113 1.11 1.1 1.1 0 0 0 1.114-1.11v-4.572a3.222 3.222 0 0 0 2.138-3.018z"/>
        <path fill="#FC1F35" fill-rule="nonzero" d="M127.934 178.954c-9.988-5.4-2.765-12.117 0-7.594 2.764-4.523 9.988 2.193 0 7.594z"/>
        <rect width="66.446" height="13.174" x="70.076" y="138.084" fill="#FFF" fill-rule="nonzero" stroke="#D2D2D2" stroke-width=".878" rx="1.957"/>
        <path fill="#C8C6C6" d="M76.712 145.117l.015 1.461h-.859l.014-1.461-1.273.738-.444-.78 1.288-.724-1.288-.695.444-.809 1.273.752-.014-1.461h.859l-.015 1.461 1.274-.738.43.795-1.289.695 1.288.723-.429.795-1.274-.752zm4.98 0l.015 1.461h-.859l.015-1.461-1.274.738-.444-.78 1.288-.724-1.288-.695.444-.809 1.274.752-.015-1.461h.86l-.015 1.461 1.273-.738.43.795-1.288.695 1.288.723-.43.795-1.273-.752zm4.981 0l.014 1.461h-.858l.014-1.461-1.274.738-.443-.78 1.288-.724-1.288-.695.443-.809 1.274.752-.014-1.461h.858l-.014 1.461 1.274-.738.43.795-1.289.695 1.288.723-.43.795-1.273-.752zm4.98 0l.015 1.461h-.859l.014-1.461-1.273.738-.444-.78 1.288-.724-1.288-.695.444-.809 1.273.752-.014-1.461h.859l-.015 1.461 1.274-.738.43.795-1.288.695 1.288.723-.43.795-1.274-.752zm4.98 0l.015 1.461h-.859l.015-1.461-1.274.738-.444-.78 1.288-.724-1.288-.695.444-.809 1.274.752-.015-1.461h.86l-.015 1.461 1.274-.738.429.795-1.288.695 1.288.723-.43.795-1.273-.752zm4.981 0l.015 1.461h-.86l.015-1.461-1.274.738-.443-.78 1.288-.724-1.288-.695.443-.809 1.274.752-.014-1.461h.859l-.015 1.461 1.274-.738.43.795-1.289.695 1.288.723-.43.795-1.273-.752z"/>
        <ellipse cx="123.606" cy="16.438" fill="#FD7C2C" fill-rule="nonzero" rx="4.217" ry="4.18"/>
        <ellipse cx="26.641" cy="130.188" fill="#FDBC70" fill-rule="nonzero" rx="4.217" ry="4.18"/>
        <ellipse cx="185.174" cy="140.001" fill="#6CC64D" fill-rule="nonzero" rx="6.09" ry="6.038"/>
        <path fill="#9CD0FF" fill-rule="nonzero" d="M26.012 39.4c14.364 0 26.01 11.308 26.01 25.254 0 4.36-1.136 8.461-3.14 12.04l2.326 12.426-12.703-2.313a26.49 26.49 0 0 1-12.493 3.102C11.646 89.909 0 78.602 0 64.655c0-13.947 11.645-25.254 26.012-25.254"/>
        <path fill="#FFF" fill-rule="nonzero" d="M20.842 64.57a4.15 4.15 0 0 0 4.146 4.094 4.15 4.15 0 0 0 4.146-4.095 4.15 4.15 0 0 0-4.146-4.094 4.15 4.15 0 0 0-4.146 4.094m-12.063 0a4.15 4.15 0 0 0 4.146 4.155 4.15 4.15 0 0 0 4.147-4.155 4.15 4.15 0 0 0-4.147-4.154 4.15 4.15 0 0 0-4.146 4.154m24.88 0a4.15 4.15 0 0 0 4.147 4.155 4.15 4.15 0 0 0 4.146-4.155 4.15 4.15 0 0 0-4.146-4.154 4.15 4.15 0 0 0-4.147 4.154"/>
        <rect width="31.857" height="31.582" x="28.017" y="146.7" fill="#2296FF" fill-rule="nonzero" rx="3.735" transform="rotate(-30 43.945 162.491)"/>
        <path fill="#FFF" fill-rule="nonzero" d="M41.042 157.671c-2.425 1.457-3.2 4.638-1.726 7.09a5.158 5.158 0 0 0 2.588 2.176c.215.083.433.156.663.233.717.241 1.446.486 1.96.98.118.114.279.37.397.572l.204.34c.187.31.587.412.895.228l2.915-1.752a.653.653 0 0 0 .219-.898l-.207-.343c-.158-.26-.26-.459-.292-.574-.192-.683-.057-1.53.064-2.285.04-.25.073-.456.097-.653a5.158 5.158 0 0 0-.707-3.31c-1.473-2.451-4.645-3.26-7.07-1.804zm6.483 4.943c-.02.173-.052.366-.084.571.126-.959.155-1.149.084-.571zM49.044 167.698l-2.915 1.751a.653.653 0 0 0-.219.898c.187.31.587.413.895.228l2.915-1.752a.653.653 0 0 0 .219-.897.653.653 0 0 0-.895-.228zM49.088 169.42l-1.457.875a.653.653 0 0 0-.219.898c.187.31.588.413.895.228l1.458-.876a.653.653 0 0 0 .218-.897.653.653 0 0 0-.895-.228zM51.057 156.95l-1.92 1.154a.653.653 0 0 0-.22.897c.188.31.588.413.896.228l1.92-1.154a.653.653 0 0 0 .219-.897.653.653 0 0 0-.895-.229zM38.508 165.235a.653.653 0 0 0-.895-.228l-1.921 1.154a.653.653 0 0 0-.219.897c.187.311.588.413.895.229l1.921-1.155a.653.653 0 0 0 .219-.897zM40.54 156.856a.653.653 0 0 0 .219-.897l-1.167-1.943a.653.653 0 0 0-.895-.228.653.653 0 0 0-.219.897l1.167 1.943c.187.31.588.413.895.228zM50.424 163.162a.645.645 0 0 0-.788.473.662.662 0 0 0 .478.796l2.184.557a.644.644 0 0 0 .787-.473.662.662 0 0 0-.478-.796l-2.183-.557zM37 161.074a.644.644 0 0 0 .788-.473.662.662 0 0 0-.478-.796l-2.183-.557a.644.644 0 0 0-.787.473.662.662 0 0 0 .478.796l2.183.557zM41.488 168.516l-.533 2.19a.662.662 0 0 0 .478.796.644.644 0 0 0 .788-.474l.533-2.19a.662.662 0 0 0-.479-.795.645.645 0 0 0-.787.473zM45.642 156.121a.644.644 0 0 0 .295-.401l.533-2.19a.662.662 0 0 0-.478-.795.644.644 0 0 0-.788.473l-.533 2.189a.662.662 0 0 0 .479.796c.174.044.35.014.492-.072z"/>
    </g>
</svg>
