<?xml version="1.0" encoding="UTF-8"?>
<svg width="151px" height="50px" viewBox="0 0 151 50" version="1.1" xmlns="http://www.w3.org/2000/svg" xmlns:xlink="http://www.w3.org/1999/xlink">
    <!-- Generator: Sketch 63.1 (92452) - https://sketch.com -->
    <title>Fugu-Full-Logo</title>
    <desc>Created with Sketch.</desc>
    <defs>
        <linearGradient x1="50.6187647%" y1="9.99657437%" x2="49.3757837%" y2="90.4164961%" id="linearGradient-1">
            <stop stop-color="#16449B" offset="6%"></stop>
            <stop stop-color="#3DBC79" offset="64%"></stop>
            <stop stop-color="#A5D15D" offset="100%"></stop>
        </linearGradient>
        <linearGradient x1="0.0638469923%" y1="64.4122984%" x2="478.357041%" y2="64.4122984%" id="linearGradient-2">
            <stop stop-color="#16449B" offset="6%"></stop>
            <stop stop-color="#3DBC79" offset="64%"></stop>
            <stop stop-color="#A5D15D" offset="100%"></stop>
        </linearGradient>
        <linearGradient x1="-104.046626%" y1="54.6575768%" x2="339.883426%" y2="54.6575768%" id="linearGradient-3">
            <stop stop-color="#16449B" offset="6%"></stop>
            <stop stop-color="#3DBC79" offset="64%"></stop>
            <stop stop-color="#A5D15D" offset="100%"></stop>
        </linearGradient>
        <linearGradient x1="-218.522899%" y1="42.3145994%" x2="220.367208%" y2="42.3145994%" id="linearGradient-4">
            <stop stop-color="#16449B" offset="6%"></stop>
            <stop stop-color="#3DBC79" offset="64%"></stop>
            <stop stop-color="#A5D15D" offset="100%"></stop>
        </linearGradient>
        <linearGradient x1="-343.722824%" y1="54.6577182%" x2="99.7679578%" y2="54.6577182%" id="linearGradient-5">
            <stop stop-color="#16449B" offset="6%"></stop>
            <stop stop-color="#3DBC79" offset="64%"></stop>
            <stop stop-color="#A5D15D" offset="100%"></stop>
        </linearGradient>
    </defs>
    <g id="Fugu-Full-Logo" stroke="none" stroke-width="1" fill="none" fill-rule="evenodd">
        <g id="FuguFull" transform="translate(4.000000, 1.000000)" fill-rule="nonzero">
            <path d="M45.076141,38.9042513 C48.7699481,34.8167628 50.824107,29.5091161 50.8444014,23.9999092 C50.8416295,11.0331039 39.4603335,0.5 25.4208148,0.5 C11.381296,0.5 0,11.0331039 0,23.9999092 C0,36.9667145 11.3840678,47.4999099 25.4208148,47.4999099 L25.4208148,47.4999099 C29.8679341,47.511412 34.2486455,46.4209958 38.1714142,44.3260279 C39.174831,45.1797637 43.7151531,48.719441 48.2305285,47.0646349 C46.0799935,44.9080203 44.9352632,41.9466091 45.076141,38.9042513 L45.076141,38.9042513 Z M13.0471895,24.9977822 C9.09727555,24.9977822 5.8985382,21.9043759 5.8985382,18.0847398 C5.8985382,14.2651037 9.09727555,11.1744693 13.0471895,11.1744693 C16.9971035,11.1744693 20.1986127,14.2678756 20.1986127,18.0875117 C20.1986127,21.9071478 16.9971035,24.9977822 13.0471895,24.9977822 Z" id="Shape" fill="url(#linearGradient-1)"></path>
            <path d="M81.0431538,14.5095436 C81.2245737,14.8129472 81.363311,15.1399077 81.4554494,15.4811957 C81.5771026,15.8929577 81.6381431,16.3202413 81.6366762,16.7495957 C81.6366762,17.6057001 81.4554494,18.2184537 81.0930494,18.5878566 C80.6998003,18.9623223 80.1700202,19.1588536 79.6276929,19.1314566 L72.7079538,19.1314566 L72.7079538,22.8421175 L79.9244407,22.8421175 C80.1230153,23.1346985 80.272892,23.4575099 80.3682494,23.7980131 C80.4904641,24.2042582 80.5515332,24.6264313 80.5494494,25.0506566 C80.5494494,25.8857522 80.3682494,26.4845001 80.0058494,26.8469001 C79.6126003,27.2213658 79.0828202,27.4178971 78.5404929,27.3905001 L72.776232,27.3905001 L72.776232,34.3417522 C72.4016245,34.4307908 72.0218672,34.4965686 71.6391364,34.5387088 C71.1305414,34.6042873 70.6183063,34.6376177 70.1055016,34.6385001 C69.6581309,34.6431191 69.2113635,34.6044227 68.7714494,34.5229522 C68.4211863,34.4586478 68.0894201,34.3178713 67.7997973,34.1106566 C67.5268437,33.8985288 67.3207927,33.6122456 67.2063016,33.2860653 C67.0602879,32.8398016 66.9936271,32.371398 67.0093451,31.9021175 L67.0093451,17.5715609 C66.9417856,16.740118 67.2429974,15.9209883 67.8331068,15.3313846 C68.4232163,14.7417809 69.2426038,14.4412713 70.0739886,14.5095436 L81.0431538,14.5095436 Z" id="Path" fill="url(#linearGradient-2)"></path>
            <path d="M83.4171364,18.6929001 C83.7579073,18.6032218 84.1045157,18.53741 84.4544407,18.4959436 C84.9398752,18.4276535 85.4295863,18.394304 85.9197973,18.3961522 C86.3595529,18.3910032 86.7989141,18.4243947 87.2328407,18.4959436 C87.5834057,18.5482418 87.916477,18.6832707 88.2044929,18.8898566 C88.4757509,19.0995396 88.6860829,19.3778669 88.8137451,19.6960653 C88.9700898,20.1237631 89.042318,20.5776419 89.0264581,21.0327436 L89.0264581,28.1231783 C89.0264581,29.0239262 89.2470494,29.6646914 89.6856059,30.0507262 C90.1241625,30.4367609 90.7623016,30.6258392 91.5973973,30.6258392 C92.0127601,30.6355206 92.4276285,30.5913857 92.8316581,30.4945349 C93.0860394,30.429888 93.3339357,30.3419815 93.5722146,30.2319262 L93.5722146,18.6929001 C93.9173916,18.6030714 94.2683767,18.5372617 94.6226494,18.4959436 C95.108066,18.4274818 95.5977895,18.3941314 96.0880059,18.3961522 C96.5233894,18.3915009 96.9583471,18.4248916 97.387919,18.4959436 C97.7393996,18.5478397 98.0734151,18.6828863 98.3621973,18.8898566 C98.6334552,19.0995396 98.8437873,19.3778669 98.9714494,19.6960653 C99.1277941,20.1237631 99.2000224,20.5776419 99.1841625,21.0327436 L99.1841625,31.0460131 C99.2291575,32.065612 98.6930872,33.0228077 97.8002146,33.5171609 C96.950348,34.0330084 96.0214573,34.4056293 95.0507016,34.6201175 C93.9104048,34.8814186 92.7435855,35.0092047 91.5737625,35.0009001 C90.4688159,35.009985 89.367301,34.8767087 88.2964059,34.6043609 C87.3623087,34.3725997 86.4832313,33.9584963 85.7097103,33.3858566 C84.9800573,32.8299642 84.4020686,32.0993503 84.0290146,31.2613522 C83.6097341,30.2650283 83.4082765,29.1905874 83.4381451,28.1100479 L83.4171364,18.6929001 Z" id="Path" fill="url(#linearGradient-3)"></path>
            <path d="M110.397554,17.9681001 C111.553139,17.9539725 112.704189,18.1151195 113.811467,18.4460479 C114.734063,18.7167337 115.607354,19.1334308 116.398162,19.6803088 C116.803441,19.9545877 117.155017,20.3008237 117.435467,20.7018566 C117.704424,21.1360346 117.836212,21.6412232 117.813623,22.1514566 L117.813623,33.6826044 C117.841076,34.7257573 117.615832,35.7600754 117.157102,36.6973522 C116.726591,37.5255884 116.11214,38.2442445 115.360858,38.7982218 C114.559583,39.3781537 113.65351,39.7973015 112.692754,40.0324827 C111.620483,40.3022348 110.518434,40.4354689 109.412771,40.429245 C107.413444,40.429245 105.843919,40.1594102 104.704197,39.620187 C103.564476,39.0809638 102.992864,38.2056015 102.989362,36.9941001 C102.979628,36.5302057 103.087115,36.071356 103.301867,35.6600479 C103.473798,35.3217453 103.715451,35.0237062 104.01091,34.7855609 C104.696931,35.1578532 105.420533,35.4562729 106.169554,35.6758044 C106.976206,35.9181722 107.814184,36.0402852 108.656458,36.0382044 C109.843449,36.0382044 110.787965,35.8403725 111.490006,35.4447088 C112.181467,35.0665847 112.591138,34.3220078 112.540441,33.5355436 L112.540441,33.0103262 C111.495167,33.4322977 110.374149,33.6343314 109.247328,33.6038218 C108.290094,33.6084735 107.338453,33.4577009 106.429536,33.157387 C105.557885,32.8724715 104.759221,32.4000856 104.089693,31.7734392 C103.38228,31.0934325 102.831976,30.2670806 102.477276,29.352187 C102.046116,28.2284762 101.839139,27.0312199 101.868023,25.8279783 C101.840574,24.6321825 102.058655,23.4434618 102.508789,22.3352827 C102.904715,21.3910593 103.514167,20.5514888 104.289276,19.8825175 C105.078889,19.215882 105.99941,18.7220745 106.991519,18.4329175 C108.09759,18.1102041 109.245458,17.953556 110.397554,17.9681001 Z M112.440649,22.7449522 C112.224959,22.6331908 111.997788,22.5451402 111.763119,22.4823436 C111.403422,22.3871826 111.032147,22.3429833 110.660162,22.3510392 C109.583467,22.3510392 108.776383,22.6530392 108.23891,23.2570392 C107.701438,23.8610392 107.432702,24.7232711 107.432702,25.8437349 C107.432702,27.1165117 107.701438,28.0338914 108.23891,28.595874 C108.775385,29.1543854 109.523747,29.4588846 110.297762,29.4335957 C111.199386,29.4335957 111.913681,29.2252595 112.440649,28.808587 L112.440649,22.7449522 Z" id="Shape" fill="url(#linearGradient-4)"></path>
            <path d="M121.266928,18.6929001 C121.612105,18.6030714 121.96309,18.5372617 122.317362,18.4959436 C122.802779,18.4274818 123.292503,18.3941314 123.782719,18.3961522 C124.218102,18.3915009 124.65306,18.4248916 125.082632,18.4959436 C125.434113,18.5478397 125.768128,18.6828863 126.05691,18.8898566 C126.328168,19.0995396 126.5385,19.3778669 126.666162,19.6960653 C126.822507,20.1237631 126.894735,20.5776419 126.878876,21.0327436 L126.878876,28.1231783 C126.878876,29.0239262 127.099467,29.6646914 127.538023,30.0507262 C127.97658,30.4367609 128.614719,30.6258392 129.449815,30.6258392 C129.865177,30.6355206 130.280046,30.5913857 130.684076,30.4945349 C130.938457,30.429888 131.186353,30.3419815 131.424632,30.2319262 L131.424632,18.6929001 C131.769809,18.6030714 132.120794,18.5372617 132.475067,18.4959436 C132.960483,18.4274818 133.450207,18.3941314 133.940423,18.3961522 C134.380188,18.3907319 134.819573,18.4241251 135.253467,18.4959436 C135.604275,18.5473509 135.937549,18.6824622 136.225119,18.8898566 C136.49787,19.0980586 136.708541,19.3768352 136.834371,19.6960653 C136.993045,20.1232098 137.066212,20.5773782 137.04971,21.0327436 L137.04971,31.0460131 C137.093459,32.0653157 136.557731,33.0219003 135.665762,33.5171609 C134.815896,34.0330084 133.887005,34.4056293 132.916249,34.6201175 C131.775953,34.8814186 130.609133,35.0092047 129.43931,35.0009001 C128.334364,35.009985 127.232849,34.8767087 126.161954,34.6043609 C125.227857,34.3725997 124.348779,33.9584963 123.575258,33.3858566 C122.845605,32.8299642 122.267616,32.0993503 121.894562,31.2613522 C121.474305,30.2652492 121.271947,29.1907838 121.301067,28.1100479 L121.266928,18.6929001 Z" id="Path" fill="url(#linearGradient-5)"></path>
        </g>
    </g>
</svg>