<?xml version="1.0" encoding="UTF-8"?>
<svg width="151px" height="50px" viewBox="0 0 151 50" version="1.1" xmlns="http://www.w3.org/2000/svg" xmlns:xlink="http://www.w3.org/1999/xlink">
    <!-- Generator: Sketch 63.1 (92452) - https://sketch.com -->
    <title>Fugu-Full-Logo</title>
    <desc>Created with Sketch.</desc>
    <defs>
        <linearGradient x1="0.135516974%" y1="64.4206423%" x2="478.08547%" y2="64.4206423%" id="linearGradient-1">
            <stop stop-color="#6FC37B" offset="0%"></stop>
            <stop stop-color="#6BC17D" offset="30%"></stop>
            <stop stop-color="#5FBB81" offset="59%"></stop>
            <stop stop-color="#4BB289" offset="88%"></stop>
            <stop stop-color="#41AD8D" offset="100%"></stop>
        </linearGradient>
        <linearGradient x1="-104.013556%" y1="54.6571199%" x2="339.846436%" y2="54.6571199%" id="linearGradient-2">
            <stop stop-color="#6FC37B" offset="0%"></stop>
            <stop stop-color="#6BC17D" offset="30%"></stop>
            <stop stop-color="#5FBB81" offset="59%"></stop>
            <stop stop-color="#4BB289" offset="88%"></stop>
            <stop stop-color="#41AD8D" offset="100%"></stop>
        </linearGradient>
        <linearGradient x1="-218.732801%" y1="42.3142332%" x2="220.446528%" y2="42.3142332%" id="linearGradient-3">
            <stop stop-color="#6FC37B" offset="0%"></stop>
            <stop stop-color="#6BC17D" offset="30%"></stop>
            <stop stop-color="#5FBB81" offset="59%"></stop>
            <stop stop-color="#4BB289" offset="88%"></stop>
            <stop stop-color="#41AD8D" offset="100%"></stop>
        </linearGradient>
        <linearGradient x1="-344.070089%" y1="54.6567557%" x2="99.9342449%" y2="54.6567557%" id="linearGradient-4">
            <stop stop-color="#6FC37B" offset="0%"></stop>
            <stop stop-color="#6BC17D" offset="30%"></stop>
            <stop stop-color="#5FBB81" offset="59%"></stop>
            <stop stop-color="#4BB289" offset="88%"></stop>
            <stop stop-color="#41AD8D" offset="100%"></stop>
        </linearGradient>
        <linearGradient x1="14.8469597%" y1="64.4841698%" x2="65.0010271%" y2="50.5743508%" id="linearGradient-5">
            <stop stop-color="#6FC37B" offset="0%"></stop>
            <stop stop-color="#6BC17D" offset="30%"></stop>
            <stop stop-color="#5FBB81" offset="59%"></stop>
            <stop stop-color="#4BB289" offset="88%"></stop>
            <stop stop-color="#41AD8D" offset="100%"></stop>
        </linearGradient>
    </defs>
    <g id="Fugu-Full-Logo" stroke="none" stroke-width="1" fill="none" fill-rule="evenodd">
        <g id="fugu_full_1" transform="translate(15.000000, 4.000000)" fill-rule="nonzero">
            <path d="M71.366901,9.42249746 C71.5270736,9.69036746 71.6495625,9.97903535 71.7309099,10.2803528 C71.8384774,10.6438552 71.8923724,11.0211205 71.8909182,11.4002018 C71.8909182,12.1560419 71.7309099,12.6970317 71.410953,13.0231713 C71.065074,13.3474265 70.6023292,13.5172948 70.1288071,13.4938325 L64.0078934,13.4938325 L64.0078934,16.7791865 L70.3792081,16.7791865 C70.5533641,17.0373213 70.6856075,17.3213706 70.7710393,17.6208122 C70.8789406,17.9794791 70.9328575,18.3522086 70.9310178,18.72675 C70.9310178,19.4640419 70.7710393,19.9926662 70.4510825,20.3126231 C70.1038894,20.6432326 69.6361555,20.8167468 69.1573439,20.7925584 L64.0565825,20.7925584 L64.0565825,26.9297018 C63.7266768,27.0085412 63.3921526,27.0666183 63.0549784,27.1035914 C62.6059413,27.1614157 62.1537023,27.1908422 61.7009581,27.1916954 C61.3059782,27.1958755 60.911525,27.1617102 60.5231459,27.0896802 C60.2137717,27.0333503 59.9207671,26.9090213 59.6652906,26.7256713 C59.4236297,26.5390387 59.2415536,26.2860657 59.1413033,25.9976536 C59.0123903,25.6036549 58.9535365,25.1901092 58.9674137,24.7757893 L58.9674137,12.125901 C58.9077666,11.391834 59.1737014,10.6686383 59.6946991,10.1480871 C60.2156967,9.62753586 60.9391202,9.36222105 61.6731358,9.42249746 L71.366901,9.42249746 Z" id="Path" fill="url(#linearGradient-1)"></path>
            <path d="M73.4605317,13.1159124 C73.7654335,13.036739 74.0752504,12.9778738 74.3879429,12.9397043 C74.8166847,12.8812088 75.2489698,12.8525447 75.6816815,12.8539188 C76.0659675,12.8502755 76.4498787,12.8789719 76.8293528,12.9397043 C77.1389926,12.9868287 77.4330126,13.1068207 77.6872081,13.289802 C77.9280151,13.4736201 78.1140135,13.7197473 78.2251066,14.0015901 C78.3651902,14.3779052 78.4297925,14.778124 78.4152259,15.1794023 L78.4152259,21.4394277 C78.4152259,22.2346827 78.6099822,22.8004036 78.9971764,23.1412272 C79.3843706,23.4820508 79.9477728,23.6489848 80.6850647,23.6489848 C81.0517816,23.6575323 81.4180619,23.6185663 81.7747728,23.5330584 C81.9993618,23.4759827 82.2182252,23.3983716 82.4285977,23.3012056 L82.4285977,13.1159124 C82.7334995,13.036739 83.0433164,12.9778738 83.3560089,12.9397043 C83.7847507,12.8812088 84.2170358,12.8525447 84.6497475,12.8539188 C85.0340335,12.8502755 85.4179447,12.8789719 85.7974188,12.9397043 C86.1070586,12.9868287 86.4010786,13.1068207 86.6552741,13.289802 C86.8960811,13.4736201 87.0820795,13.7197473 87.1931726,14.0015901 C87.3332562,14.3779052 87.3978585,14.778124 87.3832919,15.1794023 L87.3832919,24.0222678 C87.4219173,24.9221928 86.948932,25.7667453 86.1614277,26.2040025 C85.4110948,26.6594355 84.5909928,26.9884163 83.7339289,27.1777843 C82.7271801,27.4084826 81.697015,27.5213028 80.664198,27.5139708 C79.6886592,27.5219917 78.7161503,27.4043244 77.7706751,27.1638731 C76.9459764,26.959255 76.1698538,26.5936501 75.4869251,26.0880761 C74.8427268,25.5972881 74.3324303,24.9522414 74.0030673,24.2123871 C73.6320286,23.3329444 73.4533705,22.3843171 73.4790799,21.4301536 L73.4605317,13.1159124 Z" id="Path" fill="url(#linearGradient-2)"></path>
            <path d="M97.2834061,12.4759987 C98.3036419,12.4637044 99.3198573,12.6059745 100.297492,12.8979708 C101.112037,13.1369547 101.883051,13.5048496 102.581242,13.9876789 C102.939056,14.2298352 103.249457,14.5355211 103.497061,14.8895863 C103.734518,15.2729148 103.850872,15.7189372 103.830929,16.1694137 L103.830929,26.3500698 C103.855556,27.2713481 103.655838,28.1848023 103.248978,29.0117398 C102.870656,29.7434753 102.328781,30.3781751 101.665424,30.8665622 C100.958413,31.3798032 100.158363,31.7506928 99.3097995,31.9585888 C98.3630099,32.195967 97.3900306,32.312818 96.4139581,32.306368 C94.6487855,32.306368 93.2623058,32.0691053 92.254519,31.5945799 C91.2467322,31.1200546 90.7428388,30.3472119 90.7428388,29.276052 C90.7342448,28.8664875 90.8291428,28.4613768 91.0187437,28.0982398 C91.170539,27.7995581 91.3838906,27.5364245 91.6447462,27.3261701 C92.2482691,27.6589674 92.885616,27.9263422 93.5459391,28.1237437 C94.2581185,28.3377261 94.9979557,28.4455376 95.741585,28.4437005 C96.7864683,28.4437005 97.6203655,28.2690381 98.2432766,27.9197132 C98.853756,27.5858738 99.2154475,26.9284995 99.1706878,26.2341434 L99.1706878,25.7704378 C98.2478337,26.1429894 97.258105,26.3213616 96.2632538,26.2944251 C95.4187788,26.2975332 94.5793909,26.1636383 93.7777919,25.8979569 C93.0082253,25.6464097 92.3030985,25.2293482 91.7119835,24.6760926 C91.0916075,24.0745756 90.6097674,23.3450903 90.3,22.5384099 C89.9193365,21.5463045 89.7365997,20.4892672 89.7621015,19.4269454 C89.7378671,18.3711975 89.9304072,17.321696 90.3278223,16.3433033 C90.6773788,15.5096644 91.2154544,14.7684217 91.8997843,14.1777982 C92.596393,13.5897477 93.408239,13.1538149 94.283231,12.8979708 C95.2569898,12.6100475 96.2680049,12.4678491 97.2834061,12.4759987 L97.2834061,12.4759987 Z M99.0849023,16.693401 C98.8954961,16.594255 98.695646,16.5164923 98.4890406,16.4615482 C98.1714414,16.3776824 97.8436707,16.3386621 97.5152589,16.3456218 C96.5646624,16.3456218 95.8521015,16.6122525 95.3775761,17.145514 C94.9030508,17.6787754 94.6657881,18.4400254 94.6657881,19.429264 C94.6657881,20.5529772 94.9030508,21.3629162 95.3775761,21.8590812 C95.8512206,22.3521815 96.5119365,22.6210187 97.195302,22.5986916 C97.9897843,22.5986916 98.619651,22.4147551 99.0849023,22.046882 L99.0849023,16.693401 Z" id="Shape" fill="url(#linearGradient-3)"></path>
            <path d="M106.879793,13.1159124 C107.184695,13.036739 107.494512,12.9778738 107.807204,12.9397043 C108.235946,12.8812088 108.668231,12.8525447 109.100943,12.8539188 C109.485229,12.8502755 109.86914,12.8789719 110.248614,12.9397043 C110.558254,12.9868287 110.852274,13.1068207 111.10647,13.289802 C111.342162,13.4754348 111.523224,13.7213913 111.630457,14.0015901 C111.77054,14.3779052 111.835143,14.778124 111.820576,15.1794023 L111.820576,21.4394277 C111.820576,22.2346827 112.013014,22.8004036 112.402527,23.1412272 C112.792039,23.4820508 113.353123,23.6489848 114.088096,23.6489848 C114.455584,23.6576547 114.822646,23.6186884 115.180123,23.5330584 C115.404712,23.4759827 115.623575,23.3983716 115.833948,23.3012056 L115.833948,13.1159124 C116.138815,13.036585 116.448642,12.9777178 116.761359,12.9397043 C117.190886,12.8812867 117.623937,12.8526232 118.057416,12.8539188 C118.441699,12.850363 118.825603,12.8790588 119.205088,12.9397043 C119.514609,12.9872555 119.808533,13.1072081 120.062943,13.289802 C120.30375,13.4736201 120.489748,13.7197473 120.600841,14.0015901 C120.740925,14.3779052 120.805527,14.778124 120.790961,15.1794023 L120.790961,24.0222678 C120.829586,24.9221928 120.356601,25.7667453 119.569096,26.2040025 C118.818125,26.6598214 117.997196,26.9888198 117.139279,27.1777843 C116.133338,27.4086151 115.103925,27.5214382 114.071867,27.5139708 C113.092452,27.52299 112.115983,27.4053149 111.166751,27.1638731 C110.342053,26.959255 109.56593,26.5936501 108.883001,26.0880761 C108.238803,25.5972881 107.728506,24.9522414 107.399143,24.2123871 C107.028105,23.3329444 106.849447,22.3843171 106.875156,21.4301536 L106.879793,13.1159124 Z" id="Path" fill="url(#linearGradient-4)"></path>
            <path d="M40.0247475,34.0985901 C43.3050304,30.4703366 45.1290329,25.7579862 45.1463756,20.8667513 C45.1463756,9.34134898 35.0375939,-3.73034936e-15 22.5731878,-3.73034936e-15 C10.1087817,-3.73034936e-15 0,9.34366751 0,20.8667513 C0,32.389835 10.1064632,41.7335827 22.5731878,41.7335827 L22.5731878,41.7335827 C26.5227127,41.7437279 30.4132218,40.7750836 33.8968782,38.9141726 C34.7871929,39.6723312 38.82375,42.8162551 42.8278477,41.3463084 C40.9173043,39.4311336 39.900048,36.8009077 40.0247475,34.0985901 Z M11.5926396,21.7524289 C8.07775127,21.7524289 5.23755457,19.0119289 5.23755457,15.6152855 C5.23755457,12.2186421 8.07775127,9.47814213 11.5926396,9.47814213 C15.1075279,9.47814213 17.9338135,12.2232792 17.9338135,15.6152855 C17.9338135,19.0072919 15.0936168,21.7524289 11.5926396,21.7524289 Z" id="Shape" fill="url(#linearGradient-5)"></path>
        </g>
    </g>
</svg>