<svg xmlns="http://www.w3.org/2000/svg" xmlns:xlink="http://www.w3.org/1999/xlink" width="25" height="25" viewBox="0 0 15 15">
    <defs>
        <path id="a" d="M.002.008h3.322V7.01H.002z"/>
    </defs>
    <g fill="none" fill-rule="evenodd">
        <path fill="#5E7CB0" d="M14.869 6.099a7.508 7.508 0 0 1-.033 2.967 7.498 7.498 0 0 1-2.64 4.283h-.001l-2.14-.11-.303-1.89a4.47 4.47 0 0 0 1.923-2.283h-4.01V6.099h7.204"/>
        <g transform="translate(0 4.043)">
            <mask id="b" fill="#fff">
                <use xlink:href="#a"/>
            </mask>
            <path fill="#F0B529" d="M3.324 5.022L2.802 6.97l-1.908.04A7.467 7.467 0 0 1 0 3.457C0 2.213.302 1.041.839.007L2.538.32l.744 1.69a4.458 4.458 0 0 0 .042 3.013" mask="url(#b)"/>
        </g>
        <path fill="#2FA948" d="M12.195 13.348A7.468 7.468 0 0 1 7.5 15a7.499 7.499 0 0 1-6.606-3.946l2.43-1.99a4.46 4.46 0 0 0 6.428 2.284l2.443 2"/>
        <path fill="#DC4139" d="M12.287 1.727l-2.43 1.989A4.46 4.46 0 0 0 3.283 6.05l-2.443-2A7.499 7.499 0 0 1 7.5 0c1.82 0 3.488.648 4.787 1.727"/>
    </g>
</svg>
