<svg xmlns="http://www.w3.org/2000/svg" viewBox="0 0 512 512" width="20" height="20" fill="#fff"><path d="M113.47 309.408L95.648 375.94l-65.14 1.378C11.042 341.2 0 299.9 0 256c0-42.45 10.324-82.483 28.624-117.732h.014L86.63 148.9l25.404 57.644c-5.317 15.5-8.215 32.14-8.215 49.456.002 18.792 3.406 36.797 9.65 53.408zm394.057-101.232C510.467 223.662 512 239.655 512 256c0 18.328-1.927 36.206-5.598 53.45-12.462 58.683-45.025 109.925-90.134 146.187l-.014-.014-73.044-3.727-10.338-64.535c29.932-17.554 53.324-45.025 65.646-77.9h-136.9V208.176h245.9z"/><path d="M416.253 455.624l.014.014C372.396 490.9 316.666 512 256 512c-97.5 0-182.252-54.5-225.5-134.68l82.96-67.9C135.1 367.118 190.748 408.2 256 408.2c28.047 0 54.323-7.582 76.87-20.818l83.383 68.262zm3.15-396.688l-82.933 67.896c-23.335-14.586-50.92-23.012-80.47-23.012-66.73 0-123.43 42.957-143.965 102.724l-83.4-68.276C71.23 56.123 157.06 0 256 0c62.115 0 119.068 22.126 163.404 58.936z"/></svg>