<?xml version="1.0" encoding="iso-8859-1"?>
<!-- Generator: Adobe Illustrator 19.0.0, SVG Export Plug-In . SVG Version: 6.00 Build 0)  -->
<svg fill="#61788c" version="1.1" id="Capa_1" xmlns="http://www.w3.org/2000/svg" xmlns:xlink="http://www.w3.org/1999/xlink" x="0px" y="0px"
	 viewBox="0 0 512 512" style="enable-background:new 0 0 512 512;" xml:space="preserve">
<g>
	<g>
		<g>
			<path d="M277.333,245.333c35.307,0,63.787-28.693,63.787-64c0-35.307-28.48-64-63.787-64c-35.307,0-64,28.693-64,64
				C213.333,216.64,242.027,245.333,277.333,245.333z"/>
			<path d="M384,245.333c35.307,0,63.787-28.693,63.787-64c0-35.307-28.48-64-63.787-64c-6.827,0-13.333,1.067-19.52,3.093
				c12.053,17.28,19.307,38.293,19.307,60.907c0,22.613-7.253,43.627-19.307,60.907C370.667,244.267,377.173,245.333,384,245.333z"
				/>
			<path d="M277.333,288c-42.667,0-128,21.333-128,64v42.667h256V352C405.333,309.333,320,288,277.333,288z"/>
			<path d="M418.56,291.413C436.267,306.88,448,326.827,448,352v42.667h64V352C512,319.147,461.333,298.987,418.56,291.413z"/>
			<polygon points="170.667,224 106.667,224 106.667,160 64,160 64,224 0,224 0,266.667 64,266.667 64,330.667 106.667,330.667
				106.667,266.667 170.667,266.667 			"/>
		</g>
	</g>
</g>
<g>
</g>
<g>
</g>
<g>
</g>
<g>
</g>
<g>
</g>
<g>
</g>
<g>
</g>
<g>
</g>
<g>
</g>
<g>
</g>
<g>
</g>
<g>
</g>
<g>
</g>
<g>
</g>
<g>
</g>
</svg>
