<?xml version="1.0" encoding="iso-8859-1"?>
<!-- Generator: Adobe Illustrator 19.0.0, SVG Export Plug-In . SVG Version: 6.00 Build 0)  -->
<svg version="1.1" id="Capa_1" xmlns="http://www.w3.org/2000/svg" xmlns:xlink="http://www.w3.org/1999/xlink" x="0px" y="0px"
	 viewBox="0 0 512 512" style="enable-background:new 0 0 512 512;" xml:space="preserve">
			<path d="M230.011,281.504h-57.754c-4.142,0-7.5,3.358-7.5,7.5c0,4.142,3.358,7.5,7.5,7.5h57.754c4.142,0,7.5-3.358,7.5-7.5
				C237.511,284.862,234.153,281.504,230.011,281.504z"/>
			<path d="M144.342,368.867h-0.962c-4.142,0-7.5,3.358-7.5,7.5c0,4.142,3.358,7.5,7.5,7.5h0.962c4.142,0,7.5-3.358,7.5-7.5
				C151.842,372.225,148.484,368.867,144.342,368.867z"/>
			<path d="M230.011,339.746h-57.754c-4.142,0-7.5,3.358-7.5,7.5c0,4.142,3.358,7.5,7.5,7.5h57.754c4.142,0,7.5-3.358,7.5-7.5
				C237.511,343.104,234.153,339.746,230.011,339.746z"/>
			<path d="M269.476,339.746h-0.962c-4.142,0-7.5,3.358-7.5,7.5c0,4.142,3.358,7.5,7.5,7.5h0.962c4.142,0,7.5-3.358,7.5-7.5
				C276.976,343.104,273.618,339.746,269.476,339.746z"/>
			<path d="M172.257,325.625h51.979c4.142,0,7.5-3.358,7.5-7.5c0-4.142-3.358-7.5-7.5-7.5h-51.979c-4.142,0-7.5,3.358-7.5,7.5
				C164.757,322.267,168.115,325.625,172.257,325.625z"/>
			<path d="M437.831,384.01c-2.228-2.015-4.929-3.385-7.807-4.017V56.035c0-14.84-12-26.914-26.751-26.914h-23.102h-16.364h-61.016
				h-6.564V17.207C296.228,7.719,288.546,0,279.102,0h-59.679c-9.443,0-17.125,7.719-17.125,17.207v11.914h-6.564H131.83h-13.476
				H95.251C80.5,29.121,68.5,41.195,68.5,56.035v429.051c0,14.84,12,26.914,26.751,26.914H327.23c4.142,0,7.5-3.358,7.5-7.5
				c0-4.142-3.358-7.5-7.5-7.5H95.251c-6.48,0-11.751-5.345-11.751-11.914V56.035c0-6.569,5.271-11.914,11.751-11.914h6.133
				c-0.093,0.724-0.157,1.458-0.157,2.207v407.695c0,14.84,12,26.914,26.751,26.914h287.045v4.148
				c0,6.569-5.271,11.914-11.751,11.914h-47.166c-4.142,0-7.5,3.358-7.5,7.5c0,4.142,3.358,7.5,7.5,7.5h47.166
				c14.75,0,26.751-12.074,26.751-26.914v-7.711c8.043-4.646,13.476-13.37,13.476-23.351V396.8
				C443.5,391.93,441.434,387.269,437.831,384.01z M403.273,44.121c6.479,0,11.751,5.345,11.751,11.914v324.617l-17.727,1.788
				V46.328c0-0.749-0.064-1.483-0.157-2.207H403.273z M217.296,17.207L217.296,17.207c0.001-1.217,0.955-2.207,2.126-2.207h59.679
				c1.172,0,2.126,0.99,2.126,2.207v11.914h-63.931V17.207z M193.233,46.621c0-1.378,1.122-2.5,2.5-2.5h107.059
				c1.378,0,2.5,1.122,2.5,2.5v18.828c0,1.378-1.122,2.5-2.5,2.5H195.733c-1.378,0-2.5-1.122-2.5-2.5V46.621z M139.73,423.98v30.043
				c0,6.569-5.271,11.914-11.751,11.914c-6.479,0-11.751-5.345-11.751-11.914V46.328c0-1.217,0.954-2.207,2.125-2.207h13.476h46.604
				c-0.118,0.819-0.2,1.649-0.2,2.5v18.828c0,9.649,7.851,17.5,17.5,17.5h107.059c9.649,0,17.5-7.851,17.5-17.5V46.621
				c0-0.851-0.082-1.681-0.2-2.5h43.716h16.364c1.172,0,2.125,0.99,2.125,2.207v337.624l-227.151,22.907
				C146.357,407.745,139.73,415.105,139.73,423.98z M428.501,454.023c0,6.569-5.271,11.914-11.751,11.914H151.963
				c1.771-3.593,2.767-7.638,2.767-11.914V423.98c0-1.142,0.826-2.086,1.92-2.196l269.519-27.18
				c0.754-0.075,1.287,0.248,1.601,0.532c0.272,0.247,0.73,0.791,0.73,1.664V454.023z"/>
			<path d="M204.984,368.867h-32.727c-4.142,0-7.5,3.358-7.5,7.5c0,4.142,3.358,7.5,7.5,7.5h32.727c4.142,0,7.5-3.358,7.5-7.5
				C212.484,372.225,209.126,368.867,204.984,368.867z"/>
			<path d="M144.342,281.504h-0.962c-4.142,0-7.5,3.358-7.5,7.5c0,4.142,3.358,7.5,7.5,7.5h0.962c4.142,0,7.5-3.358,7.5-7.5
				C151.842,284.862,148.484,281.504,144.342,281.504z"/>
			<path d="M144.342,310.625h-0.962c-4.142,0-7.5,3.358-7.5,7.5c0,4.142,3.358,7.5,7.5,7.5h0.962c4.142,0,7.5-3.358,7.5-7.5
				C151.842,313.983,148.484,310.625,144.342,310.625z"/>
			<path d="M269.476,310.625h-0.962c-4.142,0-7.5,3.358-7.5,7.5c0,4.142,3.358,7.5,7.5,7.5h0.962c4.142,0,7.5-3.358,7.5-7.5
				C276.976,313.983,273.618,310.625,269.476,310.625z"/>
			<path d="M258.108,247.969c0.02,0,0.04-0.004,0.06-0.004c0.025,0,0.048,0.004,0.073,0.004h77.249c4.076,0,7.88-2.018,10.175-5.396
				c2.307-3.397,2.78-7.706,1.265-11.525l-11.771-29.675c-4.081-10.29-13.834-16.938-24.846-16.938h-44.72
				c-6.007,0-11.706,2.013-16.314,5.587c-4.571-3.55-10.263-5.587-16.346-5.587h-44.72c-11.012,0-20.765,6.649-24.846,16.938
				l-11.771,29.676c-1.514,3.819-1.041,8.127,1.267,11.524c2.295,3.379,6.099,5.396,10.174,5.396H258.108z M265.592,199.434h44.72v0
				c4.824,0,9.104,2.932,10.903,7.469l10.339,26.066h-61.439c-0.142-0.649-0.318-1.293-0.567-1.921l-11.446-28.858
				C260.182,200.439,262.809,199.434,265.592,199.434z M177.309,206.902c1.799-4.537,6.079-7.469,10.902-7.469h44.72
				c4.824,0,9.104,2.932,10.903,7.469l10.339,26.066H166.97L177.309,206.902z"/>
			<path d="M144.342,339.746h-0.962c-4.142,0-7.5,3.358-7.5,7.5c0,4.142,3.358,7.5,7.5,7.5h0.962c4.142,0,7.5-3.358,7.5-7.5
				C151.842,343.104,148.484,339.746,144.342,339.746z"/>
			<path d="M287.953,170.313c17.404,0,31.564-14.251,31.564-31.768c0-17.517-14.16-31.768-31.564-31.768
				c-17.405,0-31.564,14.251-31.564,31.768C256.389,156.062,270.548,170.313,287.953,170.313z M287.953,121.777
				c9.133,0,16.564,7.522,16.564,16.768c0,9.246-7.431,16.768-16.564,16.768c-9.134,0-16.564-7.522-16.564-16.768
				C271.389,129.299,278.819,121.777,287.953,121.777z"/>
			<path d="M210.572,170.313c17.404,0,31.564-14.251,31.564-31.768c0-17.517-14.16-31.768-31.564-31.768
				c-17.405,0-31.564,14.251-31.564,31.768C179.008,156.062,193.167,170.313,210.572,170.313z M210.572,121.777
				c9.133,0,16.564,7.522,16.564,16.768c0,9.246-7.431,16.768-16.564,16.768c-9.134,0-16.564-7.522-16.564-16.768
				C194.008,129.299,201.438,121.777,210.572,121.777z"/>
			<path d="M269.476,281.504h-0.962c-4.142,0-7.5,3.358-7.5,7.5c0,4.142,3.358,7.5,7.5,7.5h0.962c4.142,0,7.5-3.358,7.5-7.5
				C276.976,284.862,273.618,281.504,269.476,281.504z"/>
			<path d="M339.743,339.746H297.39c-4.142,0-7.5,3.358-7.5,7.5c0,4.142,3.358,7.5,7.5,7.5h42.353c4.142,0,7.5-3.358,7.5-7.5
				C347.243,343.104,343.885,339.746,339.743,339.746z"/>
			<path d="M289.891,289.004c0,4.142,3.358,7.5,7.5,7.5h57.754c4.142,0,7.5-3.358,7.5-7.5c0-4.142-3.358-7.5-7.5-7.5h-57.754
				C293.249,281.504,289.891,284.862,289.891,289.004z"/>
			<path d="M297.391,325.625h32.727c4.142,0,7.5-3.358,7.5-7.5c0-4.142-3.358-7.5-7.5-7.5h-32.727c-4.142,0-7.5,3.358-7.5,7.5
				C289.891,322.267,293.249,325.625,297.391,325.625z"/>
</svg>
