<?xml version="1.0"?>
<svg xmlns="http://www.w3.org/2000/svg" height="512px" viewBox="0 0 512 512" width="512px"><g><path d="m210.046875 145.066406c9.21875 15.105469 17.925781 29.371094 17.925781 43.386719v24.734375c0 18.460938 12.886719 33.9375 30.089844 37.847656.914062 10.089844 8.550781 17.964844 18.910156 17.964844 10.371094 0 19.777344-7.894531 20.886719-18 17.226563-3.972656 30.113281-19.410156 30.113281-37.8125v-24.734375c0-13.25 7.503906-25.835937 16.195313-40.410156 11.027343-18.484375 23.507812-39.410157 23.800781-67.246094 0-.15625.003906-.308594.003906-.464844v-.535156c0-.15625-.003906-.308594-.003906-.464844-.5-47.496093-36.585938-79.332031-90.117188-79.332031-24.78125 0-46.578124 6.769531-63.03125 19.578125-18.34375 14.28125-28.5625 35.460937-28.84375 59.726563-.003906.164062-.003906.328124-.003906.492187v.535156c0 .1875 0 .375.007813.5625.355469 25.3125 12.941406 45.941407 24.066406 64.171875zm77.925781 46.933594v20h-20v-20zm-10.121094-152c15.03125 0 49.941407 3.910156 50.117188 40.0625-.082031 17.191406-8.460938 31.242188-18.15625 47.496094-4.542969 7.621094-9.355469 15.695312-13.304688 24.441406h-37c-4.445312-9.949219-10.042968-19.132812-15.316406-27.769531-9.316406-15.269531-18.121094-29.695313-18.21875-44.1875.171875-29.519531 26.878906-40.042969 51.878906-40.042969zm146.121094 26c11.042969 0 19.996094 8.953125 19.996094 20s-8.953125 20-19.996094 20c-11.046875 0-20-8.953125-20-20s8.953125-20 20-20zm-34-46c0-11.046875 8.953125-20 20-20 11.042969 0 20 8.953125 20 20s-8.957031 20-20 20c-11.046875 0-20-8.953125-20-20zm-8 129c0-11.046875 8.953125-20 20-20 11.042969 0 20 8.953125 20 20s-8.957031 20-20 20c-11.046875 0-20-8.953125-20-20zm-272-64c0-11.046875 8.953125-20 20-20 11.042969 0 20 8.953125 20 20s-8.957031 20-20 20c-11.046875 0-20-8.953125-20-20zm14-65c0-11.046875 8.953125-20 20-20 11.042969 0 20 8.953125 20 20s-8.957031 20-20 20c-11.046875 0-20-8.953125-20-20zm27 109c11.042969 0 20 8.953125 20 20s-8.957031 20-20 20c-11.046875 0-20-8.953125-20-20s8.953125-20 20-20zm320.996094 263v-20.882812c0-25.429688-20.691406-46.117188-46.125-46.117188h-191.871094c-11.03125 0-20 8.972656-20 20 0 4.742188 1.664063 9.09375 4.429688 12.523438l4.058594 3.710937c.125.113281.230468.238281.351562.355469 3.191406 2.152344 7.03125 3.410156 11.160156 3.410156h100c11.042969 0 20 8.953125 20 20s-8.957031 20-20 20h-100c-17.386718 0-33.066406-7.441406-44.035156-19.296875l-115.441406-105.488281c-.175782-.160156-.347656-.324219-.515625-.488282-3.765625-3.699218-8.734375-5.726562-14.003907-5.726562-.0625 0-.128906 0-.191406 0-5.34375.050781-10.347656 2.179688-14.085937 5.992188-3.742188 3.8125-5.777344 8.855468-5.726563 14.195312.050782 5.261719 2.113282 10.191406 5.816406 13.914062l101.769532 94.226563c.109375.101563.21875.203125.324218.304687 46.199219 44.730469 107.058594 69.367188 171.367188 69.367188h172.71875c11.046875 0 20 8.953125 20 20s-8.953125 20-20 20h-172.71875c-37 0-73.148438-7.039062-107.445312-20.921875-34.226563-13.851563-65.039063-33.890625-91.582032-59.550781l-101.855468-94.300782c-.144532-.132812-.28125-.265624-.421876-.402343-23.613281-23.175781-23.96875-61.234375-.796874-84.847657 11.222656-11.4375 26.230468-17.824218 42.257812-17.972656 15.890625-.171875 30.90625 5.847656 42.3125 16.902344l77.113281 70.460938c9.191407-21.367188 30.445313-36.367188 55.140625-36.367188h191.871094c47.492188 0 86.125 38.632812 86.125 86.117188v20.882812c0 11.046875-8.953125 20-20 20-11.042969 0-20-8.953125-20-20zm0 0" data-original="#000000" class="active-path" data-old_color="#000000" fill="#717171"/></g> </svg>
