<svg xmlns="http://www.w3.org/2000/svg" xmlns:xlink="http://www.w3.org/1999/xlink" width="24" height="24" viewBox="0 0 24 24">
    <defs>
        <path id="a" d="M0 .022h23.978v23.975H0z"/>
    </defs>
    <g fill="none" fill-rule="evenodd">
        <path fill="#627DE3" d="M10.63 7.847c.044.087.088.175.132.24.043.066.11.132.153.198.066.066.132.131.22.197.065.044.153.11.262.132a1.348 1.348 0 0 0 .57.11c.088 0 .197 0 .285-.023.088-.022.175-.043.241-.087h.022c.088-.044.175-.088.263-.154.066-.044.132-.11.197-.175l.022-.022c.066-.066.11-.131.154-.197s.087-.132.11-.22c0-.021 0-.021.021-.043.044-.088.066-.198.088-.285.022-.088.022-.197.022-.285 0-.088 0-.197-.022-.285a2.036 2.036 0 0 0-.088-.285 1.244 1.244 0 0 0-.263-.395l-.044-.043c-.065-.066-.131-.11-.219-.176-.088-.044-.153-.087-.24-.131-.089-.044-.176-.066-.264-.088-.11-.022-.197-.022-.285-.022-.088 0-.197 0-.285.022a1.236 1.236 0 0 0-.263.088h-.022a2.39 2.39 0 0 0-.24.131c-.089.066-.154.11-.22.176-.066.065-.132.131-.175.197-.044.066-.088.153-.132.241a1.236 1.236 0 0 0-.088.263c-.021.11-.021.197-.021.285 0 .088 0 .197.021.285.022.175.066.263.088.35"/>
        <g>
            <mask id="b" fill="#fff">
                <use xlink:href="#a"/>
            </mask>
            <path fill="#2296FF" d="M13.677 15.868h-.504v-5.37a.566.566 0 0 0-.57-.57H10.3a.566.566 0 0 0-.57.57v1.184c0 .307.242.57.57.57h.46v3.638h-.46a.566.566 0 0 0-.57.57v1.184c0 .307.242.57.57.57h3.376c.307 0 .57-.241.57-.57V16.46a.585.585 0 0 0-.57-.592" mask="url(#b)"/>
            <path fill="#2296FF" d="M11.989 22.422c-5.742 0-10.41-4.669-10.41-10.411C1.578 6.268 6.246 1.6 11.988 1.6 17.732 1.6 22.4 6.268 22.4 12.011c0 5.742-4.668 10.41-10.411 10.41zm0-22.4C5.369.022 0 5.392 0 12.01 0 18.631 5.37 24 11.989 24c6.62 0 11.99-5.37 11.99-11.989 0-6.62-5.37-11.99-11.99-11.99z" mask="url(#b)"/>
        </g>
    </g>
</svg>
