<svg xmlns="http://www.w3.org/2000/svg" xmlns:xlink="http://www.w3.org/1999/xlink" width="100" height="90" viewBox="0 0 132 121">
    <defs>
        <path id="prefix__c" d="M29.447 11.05C21.604 8.606 23.743.508 23.743.508l-3.616-.44v-.069l-.28.035-.28-.035v.069l-3.616.44s2.14 8.098-5.703 10.542C2.405 13.495.623 15.94.012 25.615h39.67c-.61-9.676-2.393-12.12-10.235-14.565"/>
        <path id="prefix__g" d="M13.084 14.075c9.983-3.111 7.26-13.418 7.26-13.418l4.603-.561V.009l.356.043.357-.043v.087l4.602.561s-2.722 10.307 7.26 13.418c9.983 3.112 12.251 6.223 13.03 18.539H.055c.777-12.316 3.046-15.427 13.028-18.539"/>
        <path id="prefix__k" d="M13.217 14.207C23.3 11.065 20.55.654 20.55.654L25.2.087v-.088l.36.044.36-.044v.088l4.649.567s-2.75 10.41 7.333 13.553c10.083 3.143 12.375 6.286 13.16 18.726H.057c.786-12.44 3.077-15.583 13.16-18.726"/>
        <path id="prefix__m" d="M5.58 1.157c-.57.045-1.138-.102-1.614-.42C3.272.27 2.171-.25 1.134.186-.555.895-.61 4.8 3.85 5.102c4.217.286 3.881-2.887 3.334-3.625-.37-.498-1.1-.361-1.603-.321"/>
        <circle id="prefix__a" cx="25.564" cy="25.564" r="25.564"/>
        <circle id="prefix__e" cx="29.581" cy="29.581" r="29.581"/>
        <circle id="prefix__i" cx="32.868" cy="32.868" r="32.868"/>
    </defs>
    <g fill="none" fill-rule="evenodd">
        <path fill="#D0E8F1" d="M2.143 22.765C.959 22.765 0 21.805 0 20.623c0-1.184.96-2.143 2.143-2.143h18.986c1.183 0 2.142.96 2.142 2.143 0 1.183-.96 2.142-2.142 2.142h-4.58c-1.184 0-2.143.96-2.143 2.143 0 .64.28 1.215.726 1.607h12.645c1.184 0 2.143.96 2.143 2.142 0 1.184-.96 2.143-2.143 2.143H7.683c-1.183 0-2.142-.96-2.142-2.143 0-1.183.959-2.142 2.142-2.142h3.227c.445-.392.726-.967.726-1.607 0-1.132-.878-2.059-1.99-2.137l-.153-.006h-7.35z" transform="translate(1 2)"/>
        <path fill="#FFF" d="M42.737 101.085c1.184 0 2.143-.96 2.143-2.142 0-1.184-.96-2.143-2.143-2.143H23.751c-1.183 0-2.142.96-2.142 2.143 0 1.183.96 2.142 2.142 2.142h4.58c1.184 0 2.143.96 2.143 2.143 0 .64-.28 1.215-.726 1.607H17.103c-1.184 0-2.143.96-2.143 2.142 0 1.184.96 2.143 2.143 2.143h20.094c1.183 0 2.142-.96 2.142-2.143 0-1.183-.959-2.142-2.142-2.142H33.97c-.445-.392-.726-.967-.726-1.607 0-1.132.878-2.059 1.99-2.137l.153-.006h7.35zM103.143 48.285c-1.184 0-2.143-.96-2.143-2.142 0-1.184.96-2.143 2.143-2.143h18.986c1.183 0 2.142.96 2.142 2.143 0 1.183-.96 2.142-2.142 2.142h-4.58c-1.184 0-2.143.96-2.143 2.143 0 .64.28 1.215.726 1.607h12.645c1.184 0 2.143.96 2.143 2.142 0 1.184-.96 2.143-2.143 2.143h-20.094c-1.183 0-2.142-.96-2.142-2.143 0-1.183.959-2.142 2.142-2.142h3.227c.445-.392.726-.967.726-1.607 0-1.132-.878-2.059-1.99-2.137l-.153-.006h-7.35z" transform="translate(1 2)"/>
        <g transform="translate(1 2) translate(.88 36.08)">
            <mask id="prefix__b" fill="#fff">
                <use xlink:href="#prefix__a"/>
            </mask>
            <circle cx="25.564" cy="25.564" r="26.312" stroke="#E9F7FC" stroke-width="1.496"/>
            <g mask="url(#prefix__b)">
                <g>
                    <path fill="#0B0F22" d="M35.662 10.327C33.41-2.806 24.077.167 22.984.564c-1.093-.397-10.425-3.37-12.678 9.763C7.913 24.284-5.175 24.377 2.26 32.454c6.448 7.003 17.818 6.593 20.724 6.36 2.906.233 14.276.643 20.724-6.36 7.436-8.076-5.652-8.17-8.046-22.127" transform="translate(1.848 5.544)"/>
                    <path fill="#000512" d="M22.098 7.053c-.739-.493-1.97.986-2.71 2.218-4.708 8.968-7.173 18.344-10.177 27.757 5.686 2.192 11.76 1.947 13.773 1.786 2.436.195 10.816.512 17.263-3.513C36.67 24.371 31.64 14.21 22.098 7.053" transform="translate(1.848 5.544)"/>
                    <path fill="#F5BF99" d="M30.117 13.718c-1.012 1.6-1.154 4.18.157 5.009 1.311.83 3.58-.407 4.592-2.007 1.011-1.6.768-3.57-.543-4.398-1.312-.83-3.194-.204-4.206 1.396M17.332 14.11c1.122 1.524 1.448 4.087.198 5.007-1.249.92-3.6-.152-4.722-1.677-1.123-1.524-1.02-3.506.23-4.426 1.249-.92 3.171-.43 4.294 1.095" transform="translate(1.848 5.544)"/>
                    <g transform="translate(1.848 5.544) translate(4.543 21.098)">
                        <mask id="prefix__d" fill="#fff">
                            <use xlink:href="#prefix__c"/>
                        </mask>
                        <path fill="#F5BF99" d="M29.447 11.05C21.604 8.606 23.743.508 23.743.508l-3.616-.44v-.069l-.28.035-.28-.035v.069l-3.616.44s2.14 8.098-5.703 10.542C2.405 13.495.623 15.94.012 25.615h39.67c-.61-9.676-2.393-12.12-10.235-14.565" mask="url(#prefix__d)"/>
                        <path fill="#DE976B" d="M23.488 2.428c.05-1.144.255-1.92.255-1.92l-3.616-.44v-.069l-.28.035-.28-.035v.069l-3.616.44s.35 1.323.248 3.06c.794 1.62 3.648 3.866 7.289-1.14" mask="url(#prefix__d)"/>
                        <path fill="#E2A278" d="M23.633 2.534c-.012-.023-.058-.05-.07-.017l.059.071.011-.054M23.368 2.61c.012.056.046.137.126.167-.045-.082-.011-.068-.068-.162.011-.032.057-.028.08-.004-.012-.023.046-.029.012-.076-.081-.007-.115.033-.104.112-.023-.002-.034-.025-.046-.037M21.066 4.708L21.089 4.706 21.066 4.708M19.311 5.315L19.33 5.294 19.311 5.315M19.001 5.225L19.019 5.233 19.001 5.225M21.066 4.708l-.058.004c.013.026.034.004.058-.004M23.271 3.089L23.271 3.052 23.261 3.079 23.271 3.089M21.691 4.144L21.703 4.134 21.689 4.099 21.691 4.144M22.15 3.692c-.012.008.038.065.058.092-.017-.028-.02-.046-.015-.06l-.043-.032M22.938 3.011L22.942 2.99 22.938 3.011M21.323 4.418L21.303 4.4 21.323 4.418M23.9 1.704L23.887 1.703 23.9 1.704M23.468 2.428L23.465 2.417 23.423 2.413 23.468 2.428M18.48 5.053L18.482 5.055 18.48 5.053M16.353.897c-.062.037-.096-.042-.163.012.03 0 .124.023.163-.012M23.253 3.096L23.236 3.118 23.253 3.096M16.19.909L16.19.909 16.184.916 16.19.909M17.359 4.521L17.348 4.555 17.359 4.521M18.127 5.101L18.108 5.083 18.127 5.101M16.923 4.248L16.904 4.217 16.9 4.227 16.923 4.248M16.597 3.826L16.59 3.843 16.603 3.855 16.597 3.826M23.24.126c.01.022.014.046.017.07-.002-.054.083-.063-.017-.07M23.238 3.062L23.253 3.096 23.261 3.079 23.238 3.062M16.461 4.628c-.02-.026-.038-.054-.056-.082.012.026.032.057.056.082M16.216 4.323c.01-.03.012-.054.01-.075l-.024.002.014.073M23.257.197L23.257.196 23.257.197" mask="url(#prefix__d)"/>
                        <path fill="#E2A278" d="M21.976.62c-.028.007-.035-.009-.037-.025l.048-.003.004-.009-.015.037zm-.29-.565c.02.006.045.01.072.012.003.027-.007.053-.023.05.01-.017-.026-.036-.049-.062zm.167.02V.073h.042l-.042.002zm2.396.189c.047-.174-.1.002-.164.018V.278c-.175-.005.016-.076.009-.13-.153.008-.311.081-.383.069.006-.016-.007-.024.026-.04-.085.029-.165.02-.252.013-.08-.006-.19-.014-.22.033l-.008-.026c.007.051.003.102-.004.137-.038-.003-.078.054-.085-.012.023.004.028-.021.042-.04l-.043.023c-.025-.097.058-.026.066-.094-.082.02-.182.086-.238.053-.001-.093.143-.014.073-.104l.089.046c-.054-.152.055.016.009-.145-.119-.04-.142.03-.26-.011-.034.047 0 .075-.034.123-.183.07-.108-.245-.249-.14-.04.057-.067.17-.15.098l.044-.099c-.117-.024-.085.14-.2.056.027-.038.096-.023.08-.037-.07-.091-.064.051-.125.043L22.27.002c-.127-.001-.273.048-.413.048.01-.027.038-.052.009-.084-.18.024-.373-.057-.535-.131l-.074.07-.005-.052c-.062-.037-.01.05-.045.077-.038 0-.044-.051-.017-.072-.125.052-.349.103-.46.004l.026-.02c-.091-.044-.127.147-.206.063l.018-.011c-.135-.04-.285-.033-.411-.065l.21.239c.004-.024.008-.047.014-.069l.056-.203-.34-.049c-.042-.005-.081-.018-.118-.04-.006.041-.033.05-.066.052h-.048l-.018.001c-.01.004-.018.021-.027.07-.1-.088-.074-.114-.21-.18l-.025-.011-.369.36-.008.02.036.049.284-.321c-.017.032-.033.074-.063.088l-.012-.082-.064.095-.051-.094-.05.028c.022.002.049.031.049.056-.076.047-.203-.034-.21-.076l-.182.093c0-.034.03-.049.053-.073-.091.096-.03-.085-.113.004v.066c-.053-.044-.159-.031-.234 0l.008-.06c-.143.003-.294.064-.453.082.06.02.06.12.014.135l-.03-.085c-.023.058.053.027 0 .1-.06-.002-.052-.093-.022-.126l-.068.04c-.007-.026.008-.042.008-.076-.023.058-.135-.072-.166.027l-.007-.026c-.158.019-.226.058-.355.078.007.076-.046.065-.077.13-.097-.012-.21-.058-.323-.038-.076.047-.016.067-.046.116-.015-.068-.128-.048-.075-.104-.136.027-.173.035-.34.111.022.026.045.036.037.06-.03.016-.075-.02-.074-.053l.007-.008c-.097.064-.196.025-.335-.003-.186-.023-.422-.035-.5.047l.01-.008c-.074.034-.138.067-.193.099-.032 0-.038.003-.047-.002l-.006-.005C15.59.26 15.646.23 15.54.21l-.01.013c.1.188.117.286.134.392.014.102.027.21.086.322-.021.023-.034.058-.043.088l-.016.063c-.003.044.008.092.023.14.027.097.065.198.009.278l.046-.014c.052.031-.021.048-.029.077.037-.008.038-.046.067-.026.097.312-.002.664-.034.989-.01.118.252.06.139.214l-.09-.041c.111.24 0 .491.077.73-.02-.015-.046-.017-.045-.04-.017.016-.025.02-.03.058-.004.038-.002.081.003.118-.002.078.067.123.092.115.024.06-.04.027-.044.075.023.129.154.119.118.182l-.036-.01c.046.016.082.153.127.084.023.104.13.141.14.23.098-.007.069.162.172.102-.1.069.034.198.118.206-.041.009.009.065-.046.081.05.053.112.086.148.034-.01.198.266.102.196.286.203.097.389.174.56.254-.072.098-.18-.107-.247.001.182.067.323.031.463.144.034.036-.048.035-.072.044.183.044.315.169.49.166l-.042.018c.03.009.064.043.079-.01l-.035.004c-.019-.09.174-.12.19-.16-.098.136.135.086-.001.252.023-.003.055-.02.06-.058.027.018.032.041-.01.074.12-.002.094-.069.193-.044-.006.026-.028.032-.046.06.064-.038.123-.077.204-.044-.008.015-.001.038-.027.033.152.019.265-.105.42-.046-.052.114.053.042.06.14l.09-.032-.037-.048c.077 0 .14-.072.207-.045l-.054.045c.048-.008.094-.022.14-.032l-.082-.03c.07-.06-.018-.126.08-.108-.018.012.072-.006.119.048.032-.034.062-.077.12-.061.019.028.008.111.02.13.021-.09.17-.053.193-.155-.01.025.002.077.01.086l.012-.075c.039.012.047.021.052.063.103-.016-.065-.114.067-.094l-.017.032c.13-.002.213-.112.329-.12.068.084-.085.058-.019.125.154-.07.268-.243.42-.286l-.032.003c-.044-.135.135.008.174-.09l.013.066c.106-.03.178-.136.287-.263l.003.042c.07-.007.152-.072.216-.098-.004-.043.03-.06-.02-.09.145.024.211-.059.269-.142.056-.086.102-.173.23-.165l-.007.047.1-.126c-.05-.04-.04-.015-.097-.031-.01-.041.007-.09.035-.116-.024.078.066.075.112.08l-.038-.046c.134.027-.073-.103.058-.122l.017.028c.02-.04.018-.098.058-.121.062.04-.01.054.028.1.044-.047-.002-.183.09-.17-.006.032-.035.059-.04.091.103.019.095 0 .137-.024l-.004.002.102-.05-.036.004c-.077-.19.09-.14.075-.301.012.154.037.059.09.12.036-.003.083-.015.092.01-.012-.082.097-.026.074-.146.021.016.038-.038.079.015.029-.063-.044-.02-.065-.046 0-.135.24-.105.245-.295.04-.13-.012-.205.026-.321.057-.003.054.085.054.085.07-.024.094-.065.108-.13.01.024.034.027.068.031.025-.041-.054-.084.016-.109.016.027.044.067.052.103.018-.058.012-.133.029-.194.045.016.033.07.044.105.024-.065.07-.16.025-.22l-.046.017.056.05c.012.08-.068.05-.09.035l.01-.043c-.147-.06-.078.148-.14.206l-.066-.097.02.124c-.035-.004-.092-.034-.079-.076-.08.01-.002.066-.082.066l-.014-.014-.01.066c-.012-.024-.068-.043-.033-.06-.115.038-.04.182-.13.157v-.01c-.063.134.055.064.057.208l-.202-.08.053.065c-.013.01-.036.027-.058.001.006.079.033.017.052.076-.103.003-.106.17-.213.094.029.061.081-.018.062.068-.117-.08-.04.082-.135.083-.038-.064.033-.081-.06-.08.062.113-.107.071-.128.126.068.07-.053.113-.095.201-.02-.027-.164.078-.25.108l-.009-.013c.055.084-.022.13-.056.188-.037-.046-.044-.072-.036-.115l-.044.04c.01.033.007.057-.016.09l-.036-.065c-.058.052-.067.168-.177.194.038.058.184.098.127.204-.026-.026-.069-.074-.056-.104-.004.01-.007.045-.031.045l-.006-.077c-.053.008.015.057-.019.075-.032-.042-.046-.013-.067-.05.004-.01.04-.001.038-.027-.039.018-.1.022-.137 0 .021.022.043.057.023.08-.062.05-.06-.035-.113-.03.006.04-.056.039-.011.105l-.063-.027c-.011.055-.152.112-.066.159l.011-.001-.003.006c-.072.139-.258.115-.358.204l-.013-.023c-.056.063-.144.103-.172.175-.022.01-.071-.02-.076-.053-.046.042-.04.073-.137.068.036-.067-.035-.029.043-.056-.08.01-.11-.018-.161.076 0-.073-.085-.06-.111-.029l.067.027c-.035.024-.071.03-.107.038l-.012-.092c-.089-.022-.138.039-.191.091-.052.052-.105.101-.182.021-.027.07.09.027.072.105-.075.004-.172-.11-.192-.106-.1-.03-.067.147-.173.123.016.03.04.114-.037.153-.076-.004-.1-.125-.057-.155l.026.016c.022-.014.05-.031.019-.063l-.006.033c-.038-.028-.133-.017-.113-.072-.05.032-.02.053.02.07-.091-.046-.14 0-.231-.03l.012.055c-.134-.047-.062.057-.158.066-.05-.052.029-.115-.068-.08-.052-.041-.002-.085.022-.11-.089.052-.145-.063-.186-.08l.045-.019c-.027.012-.047.008-.068.005l.013.066c-.023-.013-.044-.02-.038-.045-.034.035 0 .109-.065.153-.026-.04-.112.009-.103-.076.098.052.01-.085.1-.078l-.06-.016.015-.02c-.076-.095-.069.084-.17.05.026-.042.004-.094-.015-.09.04.014-.005.083-.055.105-.053-.055-.08.001-.113-.017l.032.033c-.03.04-.06.02-.112.015.01-.036.05-.007.04-.029-.083.056-.08-.124-.17-.108-.016-.045.037-.082.02-.115-.102.018-.048-.096-.146-.095-.011.068.002.057-.084.08.05.01.098.025.148.032-.042.014-.084.025-.127.036.038.025.102.011.12.032-.064.026-.053.014-.058.07-.01-.11-.136-.012-.166-.104l.084-.135c-.048-.113-.2-.03-.287-.146l.018.049c-.053.039-.073-.045-.124-.053.036-.039.027-.07.033-.108-.024.032-.072-.068-.151.004v-.093c-.06-.095-.197.022-.263-.07.064-.016.057-.076.138-.055-.026-.025-.04-.055-.067-.03.01-.038-.12-.025-.105-.084-.027.004-.074.038-.096.003l.02-.017c-.02.017-.069-.027-.09.04.055-.191-.21-.245-.144-.41-.06-.055-.122-.129-.162-.189l.025.002c-.004-.11-.164.016-.16-.093.066-.06.066.026.085-.007.158-.064-.034-.042.072-.155l.01.02c.06-.06-.059-.154-.046-.255l.026.001c-.089-.071-.114-.201-.14-.297.068.03.036.043.105.025-.01-.044-.111.013-.132-.073.037-.029.07-.091.143-.101l.006.082c.095-.044-.005-.107.011-.15l.042.004c-.017-.126-.124-.124-.12-.259l-.032.015c-.108-.068.056-.064-.026-.133l.105-.028c-.03-.048-.112-.164-.14-.249.083.043.13.142.18.203-.002-.049-.018-.164-.073-.185l.025.061c-.088-.053-.136-.126-.142-.221.208-.003.027-.254.177-.342-.096-.16-.012-.343-.058-.54-.146.097-.014-.058-.175-.017-.019-.046-.016-.046-.006-.053.027-.033.056-.055.087-.067.048 0 .042.024.08.026.008-.02.071.004.118.016-.064-.02-.094-.039-.07-.036-.028-.011-.055-.018-.081-.02-.087-.075.06-.005.071 0l-.013-.02.052.046c-.02-.028.005 0-.027-.13l.03.074.031-.016c.045-.017.09-.038.132-.057.087-.039.17-.069.242-.036l-.008.041c.03-.015.046-.082.091-.046l.007.042c.015-.016.076-.08.121-.062l-.03.05c.173.03.242-.142.378-.186.014.118.15.14.218.15v.018c.195-.01.317-.138.491-.206.127.114.384.007.572.057-.03-.018-.006-.092.024-.108.045.019.106-.096.113.013h-.015c.044.102.127.063.195.058l-.006-.143c.202.184.453-.132.572.04l.04-.03.328-.185-.054-.124c-.01-.023-.016-.047-.028-.069l-.318.282.029-.014-.012.076c.047.013.084.024.122.032.04.008.065.013.175.022.02-.003.083-.013.11-.02l-.037.06c.111-.01.085-.233.167-.248l.036.11.04-.002-.335-.298-.012.069-.041.202.315.106c.105.035.209.086.325.021-.004.017-.013.049-.036.05.067.012.252.11.246-.05-.01.102.147.029.23-.006l-.021.073c.077-.088.082-.113.177-.128.02.012.011.061-.015.039.067.048.065-.064.147-.014l-.038.044c.074.015.07-.011.118-.062.05-.024.139.036.142.105.015-.04.062-.09.103-.065.003.026-.015.04-.024.047.118.066.196-.065.272.02-.001.024.003.037.01.045-.1-.014-.178-.027-.17-.032-.009.069.07.09-.005.178.07-.044.193-.143.267-.102l.007.026-.009.006.05-.005c.024.014.039.025.062.029.003.057.088.041.127.05.006-.077.057-.058.016-.126.005.006-.009.008-.036.008l-.018.005.004-.006-.1-.007c.036-.034.073-.062.112-.015.026-.046.055-.093.07-.115.042.112.14.181.146.248.127-.028.29.007.383-.125.037-.014.035.045.045.069l-.058.025c.073-.027.206.011.234-.085.082.055-.06.085.062.083l-.02.028c.205.185.46-.2.53.015l.007-.035c.03.03.078.031.108.048-.015.065-.009.129-.019.207-.006.06-.04.203-.109.299-.04.08.02.099.061.157l-.083.007.081.1c.053.132-.225.194-.112.367l.057-.015c-.017.056.016.182-.046.168.01.006.055.023.024.043l-.042-.002.062.145c-.038.107-.168-.029-.185.131.013.061.114.175.144.154.003-.024.03-.06.072-.059l.02.055c.125.015.251.06.345-.063l-.072-.093.063-.025v.075c.059-.04.01-.069-.023-.101.033-.005.056-.016.07-.033l-.114-.096c.05-.007.095.047.126-.01-.053-.045-.113.031-.144-.04.06-.038.105-.021.061-.075.033-.004.053.008.065.029-.035-.048-.006-.119-.07-.148.075-.037-.003-.152.115-.134-.027-.017-.084-.088-.084-.13.132.091.027-.15.177-.11-.12-.072-.03-.205-.083-.312l.02.029c.019-.052.06-.062.089-.092-.051-.012-.08-.04-.101-.073-.021-.04-.033-.1-.06-.131.126-.108.114.065.22.038-.088-.002-.046-.208-.13-.156.088-.097.05-.077.157-.153-.143.033-.002-.082-.078-.113.108-.165.156-.115.145-.235.07-.109.091-.004.09-.001z" mask="url(#prefix__d)"/>
                        <path fill="#E2A278" d="M22.035.527L22.047.523 22.033.504 22.021.526 22.035.527M21.093 4.706L21.089 4.706 21.101 4.711 21.093 4.706M21.985 4.344L22.006 4.35 21.985 4.344M22.295 4.08l.06-.022c-.029.007-.047.015-.06.022M22.541 3.883L22.522 3.856 22.521 3.856 22.541 3.883M17.965 5.583l-.014-.002c-.034.002-.012.005.014.002M19.515 5.583l-.044.04c.028.003.049.002.044-.04M16.468 4.637L16.469 4.636 16.461 4.628 16.468 4.637M19.4 5.63c.029.012.051.006.07-.007-.022-.002-.049-.007-.07.007M23.448 2.873L23.459 2.863 23.451 2.854 23.448 2.873M23.451 2.854L23.454 2.835 23.451 2.854M23.46 2.796L23.454 2.835 23.46 2.796M23.164 3.176L23.182 3.197 23.164 3.176M23.09 3.278c.024-.02.093-.021.107-.064l-.015-.017c.02.04-.11.03-.092.08M22.494 3.446l.085-.061c-.034-.007-.078-.015-.053-.055-.15.038.067.024-.032.116M22.247 3.648c.028-.049-.031-.03-.04-.043-.006.043-.007.054.04.043M20.45 4.998l-.024-.064c-.033.026.01.024.024.064M20.171 5.496L20.226 5.521 20.225 5.455 20.171 5.496M19.784 5.099L19.798 5.084 19.741 5.126 19.784 5.099M16.704 3.867l-.062.058c.029.014.11-.037.062-.058M16.402 2.412c.042-.02.068-.071.024-.099-.003.04-.035.08-.024.099M19.09.463L19.06.496 19.12.464 19.09.463" mask="url(#prefix__d)"/>
                    </g>
                    <path fill="#F5BF99" d="M15.491 6.647c-.055.162-1.795 11.191 2.254 15.278 4.048 4.087 11.05 1.668 12.757-2.52 1.472-3.616 1.756-10.428-1.108-14.591C26.53.651 18.318-1.641 15.491 6.647" transform="translate(1.848 5.544)"/>
                    <path fill="#DE976B" d="M20.55 9.649l.494 5.467.072.79c.003.041.028.088.074.097l1.193.233c.127.025.181-.17.054-.195l-1.193-.233.074.097-.495-5.466-.071-.79c-.012-.129-.214-.13-.203 0" transform="translate(1.848 5.544)"/>
                    <path fill="#0B0F22" d="M25.243 13.126c-.016.38.185.697.45.708.266.012.494-.286.511-.666.017-.379-.185-.696-.45-.707-.265-.012-.494.286-.51.665M18.527 13.351c-.016.38.185.696.45.708.266.011.494-.286.51-.666.018-.38-.184-.696-.45-.708-.264-.011-.493.287-.51.666" transform="translate(1.848 5.544)"/>
                    <path fill="#DE976B" d="M33.286 14.291c-.261.016-.531.103-.758.231-.2.114-.374.274-.49.474-.146.249-.193.545-.173.83.018.246.09.513.288.678.156.13.356.174.554.14.198-.032.387-.145.515-.298.145-.17.253-.414.187-.64-.076-.257-.343-.38-.593-.397-.282-.019-.578.096-.756.32-.08.1.061.244.143.143.132-.166.33-.258.541-.262.163-.003.365.045.449.2.082.152 0 .346-.096.472-.097.128-.238.22-.394.258-.138.033-.29.014-.408-.079-.155-.123-.212-.336-.227-.524-.036-.454.128-.878.526-1.119.148-.09.311-.151.48-.19l.094-.02.04-.006c.01-.002.046-.006.012-.002l.066-.007c.13-.008.13-.21 0-.202M13.644 15.023l.05.005c.03.003-.003-.001.007 0l.031.005.082.015c.142.03.283.075.413.14.381.19.618.534.639.963.017.362-.098.85-.535.833-.149-.005-.302-.076-.414-.181-.122-.114-.235-.297-.21-.47.027-.192.235-.28.407-.292.236-.015.465.074.614.26.081.102.223-.042.143-.143-.285-.356-.981-.476-1.279-.066-.285.393.12.908.495 1.047.186.068.398.065.575-.026.202-.105.322-.316.37-.53.125-.54-.044-1.116-.497-1.446-.25-.183-.58-.297-.89-.316-.13-.008-.13.194 0 .202" transform="translate(1.848 5.544)"/>
                    <path fill="#E77C69" d="M16.557 17.149c0 .664.667 1.203 1.49 1.203.822 0 1.489-.539 1.489-1.203 0-.665-.667-1.203-1.49-1.203-.822 0-1.49.538-1.49 1.203M26.538 16.434c0 .665.667 1.203 1.49 1.203.822 0 1.49-.538 1.49-1.203 0-.664-.668-1.203-1.49-1.203-.823 0-1.49.539-1.49 1.203" transform="translate(1.848 5.544)"/>
                    <path fill="#DE976B" d="M22.984 20.929c0 .093.163.168.363.168.2 0 .363-.075.363-.168 0-.094-.162-.17-.363-.17-.2 0-.363.076-.363.17" transform="translate(1.848 5.544)"/>
                    <path fill="#0B0F22" d="M27.156 9.926c-.065.341-.712.171-1.52.017-.808-.155-1.471-.235-1.406-.577.065-.342.773-.493 1.581-.34.808.155 1.41.558 1.345.9M19.635 9.703c.067.342-.596.425-1.404.583-.807.158-1.453.331-1.52-.01-.066-.342.534-.747 1.341-.905.808-.158 1.516-.01 1.583.332" transform="translate(1.848 5.544)"/>
                    <path fill="#1C2A36" d="M35.27 32.567l-.126.085c-5.12 3.503-16.813 3.927-21.673-.071-6.727 2.324-8.34 5.025-8.916 14.132h39.671c-.576-9.125-2.195-11.819-8.956-14.146" transform="translate(1.848 5.544)"/>
                    <path fill="#0A161F" d="M36.39 42.288c-9.436 5.081-21.482 2.56-31.245-.799-.279 1.466-.461 3.183-.59 5.224h39.671c-.252-3.996-.705-6.758-1.7-8.796-1.85 1.71-3.916 3.182-6.136 4.371" transform="translate(1.848 5.544)"/>
                    <path fill="#EE9E3D" d="M33.64 46.713v-14.68s2.14-.267 3.769 1.362v13.318H33.64M15.1 46.713v-14.68s-2.138-.267-3.768 1.362v13.318h3.769" transform="translate(1.848 5.544)"/>
                    <path fill="#DE976B" d="M25.254 17.396c-.86 1.636-3.403 2.047-4.631.622-.147-.17-.308-.41-.38-.597-.045-.121-.24-.069-.194.053.242.644.83 1.166 1.457 1.416 1.14.455 2.497.144 3.372-.696.21-.202.414-.437.55-.696.06-.115-.114-.217-.174-.102" transform="translate(1.848 5.544)"/>
                    <path fill="#0B0F22" d="M27.555 1.682s-3.094 5.08-4.431 5.08c-1.337 0-.38-2.712-.38-2.712s-2.064 4.749-8.176 5.258c0 0 .266-8.85 8.53-8.248l4.457.622" transform="translate(1.848 5.544)"/>
                    <path fill="#0B0F22" d="M26.205 1.67s2.9 6.954 4.799 6.748c.806-.087 1.013-.878.983-1.758-.097-2.915-2.622-5.2-5.532-5.011-.083.005-.166.012-.25.02" transform="translate(1.848 5.544)"/>
                    <path fill="#FFFFFE" d="M12.787 13.842c.018 1.628 1.023 3.096 2.551 3.673 1.535.58 3.342.097 4.383-1.17 1.041-1.265 1.198-3.09.356-4.504-.838-1.408-2.495-2.146-4.102-1.85-1.843.34-3.167 1.997-3.188 3.851-.003.26.401.26.404 0 .017-1.454.917-2.792 2.294-3.298 1.39-.511 2.973-.083 3.924 1.05.947 1.125 1.07 2.785.32 4.046-.749 1.256-2.249 1.937-3.687 1.655-1.65-.323-2.832-1.782-2.85-3.453-.004-.26-.408-.26-.405 0M22.782 13.842c.019 1.628 1.023 3.096 2.552 3.673 1.534.58 3.341.097 4.383-1.17 1.04-1.265 1.198-3.09.356-4.504-.838-1.408-2.496-2.146-4.102-1.85-1.843.34-3.168 1.997-3.189 3.851-.003.26.401.26.404 0 .017-1.454.917-2.792 2.294-3.298 1.39-.511 2.973-.083 3.925 1.05.947 1.125 1.07 2.785.319 4.046-.749 1.256-2.249 1.937-3.687 1.655-1.649-.323-2.831-1.782-2.85-3.453-.004-.26-.408-.26-.405 0" transform="translate(1.848 5.544)"/>
                    <path fill="#FFFFFE" d="M20.567 13.985l.05-.047.056-.046.013-.011.042-.03c.152-.11.318-.203.494-.263.591-.202 1.163-.006 1.62.397.195.171.482-.114.286-.286-.545-.48-1.244-.739-1.961-.518-.321.099-.648.277-.886.518-.183.185.103.471.286.286" transform="translate(1.848 5.544)"/>
                </g>
            </g>
        </g>
        <g transform="translate(1 2) translate(38.72)">
            <mask id="prefix__f" fill="#fff">
                <use xlink:href="#prefix__e"/>
            </mask>
            <circle cx="29.581" cy="29.581" r="30.378" stroke="#E9F7FC" stroke-width="1.593"/>
            <g mask="url(#prefix__f)">
                <g>
                    <path fill="#0B0F22" d="M23.302 32.68s-9.374-.388-10.452-9.945C11.77 13.169 14.8 4.24 23.645 3.122c8.846-1.118 11.845-5.882 11.44-.875 0 0 1.766-1.896 2.211-.972.445.923.13 2.625-2.022 3.695 0 0 4.35 1.264 4.12 10.226-.27 10.527-.649 19.563-16.092 17.485" transform="translate(3.96 3.96)"/>
                    <path fill="#BA7E59" d="M18.014 20.809c1.288 2.037 1.47 5.32-.2 6.376-1.669 1.055-4.556-.518-5.844-2.555-1.287-2.037-.978-4.544.691-5.599 1.67-1.055 4.066-.259 5.353 1.778M34.288 21.307c-1.429 1.94-1.843 5.203-.253 6.373 1.59 1.171 4.583-.193 6.011-2.133 1.43-1.941 1.299-4.463-.292-5.634-1.59-1.17-4.037-.547-5.466 1.394" transform="translate(3.96 3.96)"/>
                    <g transform="translate(3.96 3.96) translate(0 30.193)">
                        <mask id="prefix__h" fill="#fff">
                            <use xlink:href="#prefix__g"/>
                        </mask>
                        <path fill="#BA7E59" d="M13.084 14.075c9.983-3.111 7.26-13.418 7.26-13.418l4.603-.561V.009l.356.043.357-.043v.087l4.602.561s-2.722 10.307 7.26 13.418c9.983 3.112 12.251 6.223 13.03 18.539H.055c.777-12.316 3.046-15.427 13.028-18.539" mask="url(#prefix__h)"/>
                        <path fill="#996140" d="M20.67 3.1c-.065-1.455-.325-2.443-.325-2.443l4.602-.561V.009l.356.043.357-.043v.087l4.602.561s-.444 1.684-.315 3.895c-1.01 2.062-4.644 4.92-9.278-1.451" mask="url(#prefix__h)"/>
                        <path fill="#A37152" d="M20.854 2.967c-.033.005-.082.051-.047.076l.11-.044-.063-.032M20.85 3.31c.073.006.183-.009.248-.097-.115.029-.086-.008-.22.03-.036-.025-.015-.08.023-.099-.032.006-.018-.065-.089-.04-.038.094 0 .15.1.163l-.062.043M23.578 6.269L23.563 6.243 23.578 6.269M25.95 7.216L25.919 7.237 25.95 7.216M26.403 7.353L26.375 7.348 26.403 7.353M23.578 6.269l.038.066c.024-.029-.015-.042-.038-.066M21.401 3.577L21.355 3.569 21.386 3.587 21.401 3.577M22.628 5.665L22.612 5.652 22.568 5.675 22.628 5.665M21.99 5.087c.01.016.084-.047.119-.071-.036.02-.06.023-.076.017l-.043.054M21.216 3.967L21.19 3.958 21.216 3.967M23.098 6.069L23.083 6.101 23.098 6.069M21.044 2.079L21.027 2.082 21.044 2.079M20.645 3.102L20.639 3.089 20.584 3.088 20.645 3.102M27.274 7.354L27.269 7.353 27.274 7.354M30.547 1.234c-.108.111-.075-.204-.204-.034.043-.022.119.188.204.034M21.405 3.601L21.427 3.627 21.405 3.601M30.343 1.2L30.343 1.2 30.33 1.215 30.343 1.2M28.997 6.398L28.955 6.379 28.997 6.398M27.692 7.016L27.73 7.014 27.692 7.016M29.436 5.785L29.476 5.753 29.462 5.75 29.436 5.785M29.9 5.183L29.876 5.184 29.867 5.207 29.9 5.183M21.084.976c-.02-.025-.033-.053-.044-.082.02.067-.083.104.044.082M21.359 3.611L21.405 3.601 21.386 3.587 21.359 3.611M28.887 5.258L28.966 5.189 28.887 5.258M25.944.526L25.916.534 25.944.526M29.144 4.94c.038.005.066 0 .089-.008l-.013-.025-.076.032M21.04.893L21.04.894 21.04.893" mask="url(#prefix__h)"/>
                        <path fill="#A37152" d="M22.494-.02c.032-.018.045-.001.053.018l-.058.019-.002.012.007-.05zm.53.608c-.026 0-.058.003-.092.007-.012-.032-.008-.067.014-.068-.01.024.043.037.078.06zm-.212.027v.002l-.051.012.051-.014zm-1.81.515c-.113-.08-.16-.113-.235-.164l-.001-.003c-.003-.042.124.078.197.131-.034-.03-.11-.137-.082-.136l.038.051c-.023-.048.001-.052.021-.06.03-.007.022-.014.083-.085l.017.03c-.024-.062-.035-.126-.037-.171.049-.009.08-.09.109-.01-.03 0-.028.034-.04.061l.047-.042c.06.113-.064.05-.054.137.095-.05.199-.162.279-.138.03.113-.174.06-.06.15l-.122-.029c.112.171-.073-.004.033.181.159.015.166-.08.324-.065.027-.069-.023-.094.004-.162.205-.143.208.27.35.096.033-.082.031-.23.156-.167l-.024.135c.152-.005.063-.198.23-.13-.021.055-.112.059-.087.071.114.091.062-.083.14-.092l.031.113c.157-.037.323-.142.497-.185-.006.036-.032.076.014.106.215-.085.477-.044.7-.002l.07-.11.023.063c.088.028-.003-.064.032-.108.047-.013.07.05.043.084.138-.103.399-.234.568-.146l-.027.034c.126.025.112-.222.236-.143l-.02.02c.179.008.362-.046.529-.045h.231l.038-.304c.004-.03.01-.06.017-.087l-.362.32c.049.02.094.048.133.085.02-.048.056-.051.097-.043l.067.017c.035.007.069.013.098.012.055-.013.091-.04.092-.103.158.076.128.117.319.155L25.213.01l-.01.025.045.062.362.408c.03-.035.063-.082.105-.09l-.011.106.108-.098.035.131.069-.019c-.025-.01-.05-.054-.042-.083.108-.035.24.103.236.157l.254-.06c-.01.043-.053.052-.089.075.143-.091.01.114.141.03l.021-.083c.052.071.186.088.289.074l-.028.07c.177.04.383.011.584.037-.068-.043-.036-.166.024-.17l.01.113c.047-.064-.056-.05.032-.124.074.022.036.132-.012.163l.096-.027c.002.034-.022.048-.033.09.046-.064.145.13.214.018v.033c.202.026.298-.001.463.013.015-.095.077-.066.135-.137.117.045.241.136.388.146.108-.035.04-.078.092-.129-.003.088.143.098.06.151.177.007.225.01.455-.034-.02-.039-.045-.057-.027-.085.041-.01.086.047.075.089l-.011.007c.124-.051.283.033.38.103.037.062-.003.11.095.029l-.01.008c.042-.027.097-.053.163-.077l-.012.02-.008.005c-.022.012-.087.046-.118.08l.013-.007c.07-.026.052.019.035.045-.018.03-.036.044.007.075-.034.005-.059.003-.078.011l-.049.075c-.022.056-.028.123-.03.191-.005.138.001.282-.092.37l.062-.004c.053.058-.043.057-.061.093.047 0 .06-.048.09-.013.02.434-.18.874-.25 1.32-.022.163.31.1.162.3l-.113-.06c.13.328-.008.67.124.986-.027-.017-.06-.016-.062-.047l-.032.057.01.01c.02.01.052.028.084.04-.014.01-.06-.016-.095-.024-.03-.047.044.142-.04.12l-.015-.04c.015.052-.1.148 0 .165-.094.065-.075.195-.17.233.052.107-.149.116-.041.221-.119-.101-.214.066-.206.165-.02-.047-.075.01-.106-.052-.05.057-.075.128-.009.174-.229-.031-.099.313-.322.188-.11.216-.252.385-.406.532-.078-.134.182-.142.08-.27-.117.16-.146.336-.336.4-.054.003-.006-.072-.005-.105-.14.15-.336.152-.465.292l.02-.053c-.03.019-.081.006-.054.07l.025-.028c.09.079-.06.244-.053.298-.004-.21-.184.006-.167-.267-.016.02-.034.06-.017.104-.036-.006-.053-.03-.035-.089-.107.064-.048.127-.157.151-.007-.033.012-.051.014-.093-.038.079-.082.158-.182.141l.015-.049c-.153.038-.257.212-.445.159.048-.15-.063-.045-.074-.176l-.094.036.038.063c-.083-.006-.164.092-.235.041l.066-.048c-.053.007-.106.006-.16.01l.087.058c-.093.056-.004.162-.118.115.025-.011-.09-.012-.125-.091-.048.038-.1.067-.159.025-.009-.044.038-.137.032-.166-.06.096-.202-.005-.28.088l.038-.1-.056.074c-.032-.038-.034-.052-.014-.102-.112-.048-.005.167-.126.06l.038-.024c-.13-.068-.286-.031-.397-.118.009-.134.12.01.115-.107-.184-.036-.423-.01-.581-.114l.025.028c-.106.153-.083-.146-.205-.115l.06-.06c-.098-.084-.25-.083-.445-.144l.045-.026c-.04-.077-.156-.125-.21-.192-.046.025-.08-.01-.096.063-.026-.184-.142-.224-.263-.261-.116-.04-.235-.08-.251-.236l.059-.005-.176-.088c-.04.069-.012.052-.02.124-.05.02-.118.014-.153-.02.1.02.083-.096.085-.154l-.053.054c.02-.174-.118.108-.157-.057l.033-.026c-.052-.02-.125-.012-.159-.059.046-.082.07.006.124-.046-.06-.05-.234.02-.223-.094.042.005.078.037.12.04.018-.13-.009-.114-.037-.167l.003.005-.059-.129.003.045c-.237.1-.17-.111-.375-.097.197-.01.076-.044.158-.109-.003-.044-.015-.102.017-.112-.105.014-.024-.119-.172-.101.022-.026-.041-.052.03-.098-.073-.042-.03.053-.066.077-.169-.017-.091-.31-.329-.34-.147-.079-.252-.028-.388-.105.01-.073.12-.047.12-.047-.012-.092-.057-.132-.134-.165.032-.007.042-.035.057-.075-.045-.04-.12.044-.132-.047.038-.013.096-.036.143-.037-.07-.034-.16-.052-.227-.091.034-.051.096-.02.142-.022-.07-.05-.17-.136-.258-.1l.006.061.08-.053c.1.012.035.1.011.124l-.048-.029c-.123.163.15.149.208.235l-.139.055.16.009c-.014.041-.066.103-.115.076-.007.103.081.02.062.12l-.021.013.08.03c-.033.008-.07.074-.083.026.021.156.218.097.167.205l-.014-.002c.155.11.09-.053.274-.03l-.133.239.091-.056c.01.017.03.05-.007.072.101.006.026-.039.104-.053-.01.132.2.157.092.285.08-.029-.013-.106.092-.071-.113.143.098.062.098.177-.085.046-.106-.045-.107.072.149-.072.09.141.163.172.09-.086.144.074.257.128-.034.025.118.201.17.31l-.016.013c.1-.078.168.017.247.053-.052.056-.083.068-.139.062l.06.053c.04-.019.074-.02.122.002l-.076.06c.086.063.235.049.3.184.06-.065.07-.259.214-.216-.025.04-.071.108-.112.1.014.002.058-.004.064.027l-.092.027c.025.067.065-.031.099.004-.043.053 0 .06-.04.098-.013-.002-.017-.047-.048-.038.037.044.068.114.055.17.019-.035.054-.074.093-.057.087.058-.02.087.01.151.048-.022.075.057.134-.024.025.018.003.06-.003.09.067-.002.221.131.228.009l-.008-.013h.01c.204.01.279.251.46.295l-.016.03c.113.015.217.097.319.06.028.013.04.086.01.117.086.011.109-.02.194.08-.098.02.005.06-.094.004.086.07.086.136.23.089-.07.066.037.13.094.123l-.049-.084c.058.008.103.032.148.057l-.063.098c.082.107.201.079.305.058.105-.022.193-.028.253.1.075-.066-.107-.08-.034-.16.094.036.169.216.202.222.133.09.158-.138.298-.08-.015-.043-.018-.153.09-.18.096.026.11.183.043.209l-.033-.027c-.035.012-.08.024-.044.073l.018-.04c.047.049.191.055.154.119.082-.038.037-.066-.02-.089.132.062.21.007.348.048l-.022-.07c.203.04.086-.082.217-.108.082.056-.015.15.117.088.088.03.03.107-.001.142.118-.093.246.016.325.02l-.063.042c.038-.025.071-.03.106-.035L27 7.353c.042.009.076 0 .081.034.03-.062-.056-.126.006-.215.06.028.141-.08.186.021-.17.003.045.101-.09.15.025-.018.057-.025.1-.02l-.01.03c.185.056.042-.134.199-.18-.002.064.072.098.094.077-.065.02-.061-.087-.02-.15.116.014.095-.07.146-.084l-.064.002c-.002-.065.047-.076.105-.12.023.04-.047.054-.016.064.03-.13.21.036.28-.082.065.014.055.1.108.105.078-.127.165.013.25-.114-.074-.05-.069-.03-.03-.146-.052.051-.103.108-.16.156.024-.054.044-.113.063-.17-.054.032-.092.111-.134.116.027-.089.03-.067-.029-.114.138.07.113-.147.24-.124l.103.175c.184-.007.178-.236.365-.314l-.072.012c-.027-.081.09-.084.12-.15.038.057.085.052.134.067-.035-.036.115-.094.039-.207l.126.008c.144-.085-.001-.266.12-.355.022.085.105.068.07.178.037-.036.078-.062.044-.094.052.006.029-.167.108-.159-.008-.035-.055-.086-.016-.126l.026.022c-.025-.022.02-.098-.068-.108.265.015.253-.343.472-.354.045-.104.092-.232.14-.32l.013.03c.124-.092-.132-.164.014-.291.156-.061.01.108.08.065.273.057-.004-.297.123-.356l.014.024c.073-.078-.094-.181-.079-.307h.034c-.114-.082-.157-.244-.186-.365.087.037.046.054.135.032-.012-.054-.143.016-.166-.093.048-.035.09-.112.185-.12l.004.1c.123-.05-.002-.13.02-.183l.053.008c-.013-.154-.147-.161-.131-.328l-.041.016c-.13-.099.078-.074-.016-.17l.137-.02c-.028-.061-.12-.218-.134-.329.094.07.137.199.192.28.005-.06.003-.201-.06-.238l.019.08c-.101-.08-.145-.182-.132-.301.258.046.097-.303.31-.364-.07-.22.095-.404.12-.642-.216.05.005-.07-.203-.092-.004-.055.008-.1.021-.1.056-.073.118-.16.182-.261.08-.082.03.078.081.064.068-.224.114-.109.216-.292-.091.059-.1-.038-.033-.188l-.157.231c-.047-.185.155-.305.217-.497-.028-.01-.092-.01-.179.002l.179-.045c-.208.014-.665-.083-.884.06-.015-.026-.033-.086.044-.091-.093-.018-.208-.024-.3-.021-.061.006-.122.019-.182.03-.119.02-.23.032-.309-.03l.023-.049c-.043.01-.083.087-.127.03l.004-.054c-.024.014-.119.076-.169.04l.053-.052c-.204-.093-.342.1-.524.113.018-.15-.143-.219-.223-.253l.005-.021c-.244-.049-.434.073-.67.104-.122-.18-.472-.127-.69-.246.032.032-.02.116-.062.126-.05-.037-.16.086-.135-.05l.019.004c-.024-.14-.138-.117-.224-.13l-.036.178c-.193-.29-.6.024-.695-.226l-.058.025.35.395c-.013-.029-.022-.06-.037-.087l-.249-.458-.156.1-.031.025-.01-.097c-.06-.002-.11-.004-.16-.002-.048.001-.12.008-.112.012-.01 0 .007.005-.03.006l.027-.067c-.067-.014-.156.263-.245.258l-.011-.147-.051-.009-.381-.085-.046.464-.015.087.348-.392c-.141-.012-.285-.042-.408.072 0-.021 0-.063.03-.073-.088.007-.345-.057-.29.137-.018-.128-.19.01-.282.08l.004-.098c-.069.132-.067.165-.18.213-.029-.009-.033-.073.007-.053-.098-.039-.061.099-.179.062l.035-.066c-.096.004-.084.035-.128.113-.055.045-.182-.003-.206-.087-.007.054-.05.13-.109.113-.011-.032.007-.055.016-.066-.166-.045-.222.14-.342.06-.006-.032-.015-.046-.025-.055.126-.013.228-.02.219-.012-.01-.088-.114-.09-.048-.22-.074.075-.195.235-.3.206l-.016-.029.009-.01-.06.02c-.034-.01-.055-.018-.086-.015-.02-.071-.12-.025-.172-.023.016.096-.052.088.02.16-.01-.006.008-.013.04-.021l.021-.013-.002.01.125-.022c-.034.053-.071.1-.133.053-.019.064-.04.131-.052.163-.086-.125-.228-.181-.256-.261-.148.072-.36.08-.435.271-.041.029-.057-.045-.077-.071l.065-.05c-.083.057-.258.05-.264.178-.117-.043.048-.123-.101-.084l.016-.041c-.337-.163-.387.373-.96.18.044.012.065.016.086.035-.137-.007-.295-.009-.401.023.053.206.131.421.175.61.05.214.054.32.01.478-.021.11.061.108.13.164l-.099.037.133.093c.107.146-.219.297-.034.475l.066-.033c-.005.072.062.222-.02.216.014.006.075.018.041.048l-.054.007.106.167c-.03.137-.215-.007-.214.189.024.07.168.2.203.17 0-.029.03-.077.084-.082l.032.067c.16.004.326.052.428-.125l-.104-.113.076-.043.01.1c.07-.061.004-.093-.044-.131.041-.012.069-.03.082-.055l-.16-.106c.06-.02.127.043.156-.038-.075-.05-.136.063-.189-.023.067-.063.128-.052.06-.112.04-.013.067-.002.088.023-.055-.055-.034-.155-.122-.177.083-.068-.044-.197.107-.207-.038-.015-.13-.091-.143-.144.192.077-.014-.205.18-.204-.17-.052-.108-.256-.22-.372l.037.028c0-.076.046-.105.068-.157-.067.006-.113-.017-.154-.048-.039-.021-.07-.03-.115-.05.124-.035.164.023.287.002-.109.011-.117-.035-.211-.044.08-.01.036-.016.154.01-.183-.063-.033-.021-.152-.09.086.013.179.09.114.03.059.035.132.09.13.087z" mask="url(#prefix__h)"/>
                        <path fill="#A37152" d="M22.449.112L22.436.121 22.459.14 22.467.109 22.449.112M23.56 6.239L23.563 6.243 23.562 6.227 23.56 6.239M25.701.544L25.704.52 25.683.539 25.701.544M22.831 5.259L22.836 5.23 22.831 5.259M22.48 4.904l-.026-.075c.008.035.017.058.025.075M22.244 4.596L22.209 4.619 22.209 4.62 22.244 4.596M27.436 6.424l.011-.01c.023-.03.006-.014-.01.01M25.767 6.828l.062-.039c-.03-.01-.054-.015-.062.04M28.879 5.265L28.88 5.266 28.887 5.258 28.879 5.265M25.91 6.8c-.029-.023-.055-.021-.08-.01l.08.01M21.197 3.3L21.189 3.283 21.176 3.291 21.197 3.3M21.176 3.291L21.154 3.282 21.176 3.291M21.109 3.261L21.154 3.282 21.109 3.261M21.478 3.728L21.51 3.711 21.478 3.728M21.585 3.842c-.017-.034-.001-.12-.051-.145l-.024.014c.055-.015.007.14.075.13M21.688 4.62l-.068-.118c-.012.042-.029.098-.076.059.03.2.039-.082.144.059M21.933 4.96c-.063-.04-.038.038-.056.05.057.01.07.01.056-.05M24.35 6.772l-.044.076c.057.013.014-.03.043-.076M25.04 6.563L25.011 6.494 24.962 6.562 25.04 6.563M25.188 7.259L25.16 7.264 25.264 7.259 25.188 7.259M29.895 5.345l-.099-.048c-.007.042.087.12.099.048M30.189 3.102c.055-.02.091-.078.041-.117-.01.047-.054.092-.041.117" mask="url(#prefix__h)"/>
                    </g>
                    <path fill="#BA7E59" d="M36.63 11.809c.07.205 2.286 14.244-2.868 19.446-5.153 5.202-14.066 2.123-16.237-3.209-1.874-4.602-2.236-13.272 1.41-18.571 3.646-5.3 14.098-8.216 17.696 2.334" transform="translate(3.96 3.96)"/>
                    <path fill="#996140" d="M29.935 15.63l-.63 6.958-.09 1.005.094-.124-1.519.297c-.162.031-.093.28.069.248l1.518-.297c.059-.012.09-.07.095-.124l.63-6.958.09-1.006c.015-.165-.242-.163-.257 0" transform="translate(3.96 3.96)"/>
                    <path fill="#0B0F22" d="M24.218 20.056c.021.483-.236.886-.573.9-.338.016-.628-.364-.65-.846-.021-.483.235-.887.573-.901.338-.016.628.364.65.847M32.766 20.342c.022.482-.235.886-.573.9-.337.016-.628-.364-.65-.847-.02-.482.236-.886.574-.9.337-.015.628.364.65.847" transform="translate(3.96 3.96)"/>
                    <path fill="#996140" d="M13.98 21.795l.064.006c.037.004-.005 0 .01.002l.038.006c.035.005.07.012.104.019.182.037.36.094.527.177.484.241.785.68.812 1.226.022.46-.125 1.081-.68 1.06-.19-.006-.385-.097-.528-.23-.155-.145-.299-.378-.267-.599.035-.244.3-.356.519-.37.3-.02.592.094.78.33.104.13.285-.053.183-.181-.363-.455-1.249-.607-1.627-.085-.363.5.153 1.155.63 1.332.236.088.505.083.731-.033.257-.133.409-.401.472-.675.158-.687-.058-1.42-.634-1.84-.32-.232-.738-.378-1.134-.402-.165-.01-.165.247 0 .257M38.982 22.213c-.333.02-.677.13-.965.294-.255.144-.477.349-.625.603-.184.317-.245.694-.22 1.056.023.314.116.653.367.863.2.166.453.221.706.18.252-.042.491-.186.656-.38.183-.218.32-.528.237-.815-.097-.328-.437-.484-.754-.506-.36-.023-.737.123-.964.407-.102.129.08.312.183.182.168-.21.42-.328.689-.333.207-.004.464.057.57.254.106.194.002.44-.121.602-.123.162-.303.281-.5.328-.177.041-.371.017-.52-.1-.197-.157-.27-.428-.29-.668-.045-.578.164-1.117.669-1.424.19-.115.397-.192.613-.242.039-.01.079-.017.118-.025l.052-.008c.011-.002.058-.008.015-.003l.084-.008c.165-.01.166-.268 0-.257" transform="translate(3.96 3.96)"/>
                    <path fill="#E77C69" d="M35.274 25.176c0 .846-.848 1.531-1.895 1.531-1.048 0-1.896-.685-1.896-1.531 0-.846.848-1.532 1.896-1.532 1.047 0 1.895.686 1.895 1.532M22.815 24.922c0 .846-.848 1.531-1.895 1.531-1.048 0-1.897-.685-1.897-1.531 0-.846.85-1.531 1.897-1.531 1.047 0 1.895.685 1.895 1.531" transform="translate(3.96 3.96)"/>
                    <path fill="#DE976B" d="M27.093 29.987c0 .118-.206.214-.461.214-.256 0-.462-.096-.462-.214 0-.119.206-.215.462-.215.255 0 .461.096.461.215" transform="translate(3.96 3.96)"/>
                    <path fill="#0B0F22" d="M21.783 15.981c.083.436.906.219 1.935.022 1.028-.196 1.873-.298 1.79-.733-.083-.435-.984-.629-2.013-.432-1.029.196-1.795.709-1.712 1.143M31.356 15.699c-.085.435.76.54 1.787.741 1.028.201 1.85.422 1.935-.013.085-.434-.68-.95-1.707-1.151-1.028-.201-1.93-.012-2.015.423" transform="translate(3.96 3.96)"/>
                    <path fill="#996140" d="M23.676 25.789c1.17 2.222 4.629 2.778 6.299.844.222-.259.428-.554.548-.875.059-.155-.19-.222-.248-.068-.272.724-1.007 1.37-1.748 1.65-1.391.526-3.019.117-4.051-.93-.22-.223-.431-.473-.578-.751-.076-.147-.298-.017-.222.13" transform="translate(3.96 3.96)"/>
                    <path fill="#5F6AA3" d="M37.522 44.268c-2.274-.71-3.887-1.792-5.024-3.04-5.866 4.06-11.14 3.315-13.576-1.032-1.135 1.676-2.956 3.174-5.838 4.072C3.102 47.379.834 50.49.056 62.807H50.55c-.778-12.316-3.046-15.428-13.029-18.54" transform="translate(3.96 3.96)"/>
                    <path fill="#445897" d="M32.381 59.988c-10.858 1.174-20.343-4.243-29.483-9.57C1.148 53.108.429 56.896.056 62.808H50.55c-.343-5.438-.979-9.08-2.439-11.72-.797.618-10.713 7.96-15.73 8.9" transform="translate(3.96 3.96)"/>
                    <path fill="#0B0F22" d="M15.1 17.74s.521 4.289 1.817 3.926c1.297-.361 4.86-12.03 4.86-12.03s8.234 3.047 13.938-1.101c0 0-4.868-8.168-15.041-2.14 0 0-4.216 3.371-5.575 11.345" transform="translate(3.96 3.96)"/>
                    <path fill="#FFFFFE" d="M17.097 21.41c.024 2.073 1.303 3.94 3.248 4.676 1.954.738 4.253.123 5.579-1.489 1.325-1.611 1.525-3.935.453-5.734-1.067-1.791-3.176-2.73-5.221-2.355-2.346.433-4.032 2.543-4.059 4.902-.003.331.511.332.515 0 .021-1.85 1.167-3.553 2.919-4.197 1.77-.65 3.785-.106 4.996 1.335 1.205 1.433 1.361 3.546.406 5.15-.953 1.6-2.862 2.466-4.693 2.107-2.098-.41-3.604-2.268-3.628-4.395-.004-.33-.518-.332-.515 0M29.82 21.41c.023 2.073 1.302 3.94 3.248 4.676 1.953.738 4.253.123 5.578-1.489 1.325-1.611 1.525-3.935.454-5.734-1.067-1.791-3.176-2.73-5.221-2.355-2.346.433-4.032 2.543-4.06 4.902-.003.331.512.332.515 0 .021-1.85 1.167-3.553 2.92-4.197 1.77-.65 3.784-.106 4.996 1.335 1.205 1.433 1.361 3.546.405 5.15-.952 1.6-2.861 2.466-4.692 2.107-2.099-.41-3.604-2.268-3.629-4.395-.003-.33-.518-.332-.514 0" transform="translate(3.96 3.96)"/>
                    <path fill="#FFFFFE" d="M27 21.592l.064-.06.071-.059.017-.014.053-.038c.193-.14.405-.258.629-.334.753-.257 1.48-.008 2.062.505.248.218.613-.144.364-.364-.694-.611-1.584-.94-2.496-.66-.409.127-.824.354-1.128.66-.233.236.13.6.364.364" transform="translate(3.96 3.96)"/>
                    <path fill="#445897" d="M28.448 61.756l-.55-17.01 1.542-.445 4.741 4.238s.623-.919-.71-2.697c-1.334-1.778-3.083-2.312-3.172-2.37-.089-.06-4.178.859-4.178.859l.51 17.825 1.817-.4" transform="translate(3.96 3.96)"/>
                    <path fill="#99A2C6" d="M32.498 41.228s-8.038 6.24-13.576-1.032c0 0-3.25 3.715-3.495 7.458l5.769-3.954s3.686 2.127 8.293 0l4.8 3.954s.395-4.644-1.791-6.426" transform="translate(3.96 3.96)"/>
                    <path fill="#99A2C6" d="M24.761 62.774L27.093 62.774 27.093 43.826 24.761 43.826z" transform="translate(3.96 3.96)"/>
                </g>
            </g>
        </g>
        <g transform="translate(1 2) translate(46.64 51.04)">
            <mask id="prefix__j" fill="#fff">
                <use xlink:href="#prefix__i"/>
            </mask>
            <circle cx="32.868" cy="32.868" r="33.704" stroke="#E9F7FC" stroke-width="1.672"/>
            <g mask="url(#prefix__j)">
                <g>
                    <path fill="#DA4756" d="M23.177 3.193s3.759-6.154 12.454-1.375c8.695 4.78 14.13 29.596 7.386 36.078 0 0-7.464-3.602-18.792-.917C12.898 39.663 7.201 38.68 7.201 38.68S8.122 2.464 23.177 3.193" transform="matrix(-1 0 0 1 58.256 7.128)"/>
                    <path fill="#B42B42" d="M23.204 12.408c-7.6 6.08-9.656 16.827-10.37 26.363 2.776-.173 6.572-.65 11.391-1.792 4.175-.99 7.822-1.124 10.767-.9-.2-5.567.228-11.134-.7-16.701-.95-4.752-7.92-9.504-11.088-6.97" transform="matrix(-1 0 0 1 58.256 7.128)"/>
                    <path fill="#DE976C" d="M18.196 20.027c1.301 2.058 1.485 5.375-.201 6.44-1.686 1.066-4.604-.523-5.904-2.58-1.3-2.058-.988-4.59.698-5.655 1.686-1.066 4.107-.262 5.407 1.795M34.634 20.53c-1.443 1.96-1.861 5.255-.255 6.438 1.606 1.183 4.629-.195 6.072-2.156 1.443-1.96 1.311-4.507-.295-5.69-1.606-1.183-4.078-.552-5.522 1.408" transform="matrix(-1 0 0 1 58.256 7.128)"/>
                    <g transform="matrix(-1 0 0 1 58.256 7.128) translate(0 29.516)">
                        <mask id="prefix__l" fill="#fff">
                            <use xlink:href="#prefix__k"/>
                        </mask>
                        <path fill="#DE976C" d="M13.217 14.207C23.3 11.065 20.55.654 20.55.654L25.2.087v-.088l.36.044.36-.044v.088l4.649.567s-2.75 10.41 7.333 13.553c10.083 3.143 12.375 6.286 13.16 18.726H.057c.786-12.44 3.077-15.583 13.16-18.726" mask="url(#prefix__l)"/>
                        <path fill="#C57D52" d="M20.878 3.122c-.065-1.47-.328-2.468-.328-2.468L25.2.087v-.088l.36.044.36-.044v.088l4.649.567s-.45 1.7-.319 3.934c-1.02 2.083-4.69 4.97-9.37-1.466" mask="url(#prefix__l)"/>
                        <path fill="#CA8961" d="M21.065 2.986c-.033.006-.083.053-.048.077l.11-.044-.062-.033M21.06 3.333c.075.006.186-.009.251-.097-.116.029-.087-.008-.223.029-.035-.025-.014-.08.025-.099-.033.006-.019-.066-.09-.04-.04.095 0 .152.1.164l-.062.043M23.816 6.322L23.801 6.296 23.816 6.322M26.212 7.279L26.18 7.3 26.212 7.279M26.669 7.418L26.642 7.412 26.669 7.418M23.816 6.322l.038.067c.024-.029-.015-.042-.038-.067M21.617 3.603L21.571 3.594 21.602 3.613 21.617 3.603M22.856 5.712L22.84 5.699 22.796 5.723 22.856 5.712M22.212 5.128c.01.017.085-.047.12-.071-.036.02-.06.024-.077.017l-.043.054M21.43 3.998L21.404 3.988 21.43 3.998M23.331 6.12L23.316 6.153 23.331 6.12M21.256 2.091L21.239 2.092 21.256 2.091M20.853 3.123L20.847 3.11 20.792 3.109 20.853 3.123M27.549 7.418L27.545 7.417 27.549 7.418M30.855 1.237c-.109.112-.075-.207-.205-.035.043-.022.12.19.205.035M21.621 3.628L21.643 3.654 21.621 3.628M30.65 1.202L30.649 1.202 30.637 1.218 30.65 1.202M29.29 6.453L29.248 6.433 29.29 6.453M27.972 7.077L28.01 7.075 27.972 7.077M29.733 5.834L29.774 5.801 29.76 5.799 29.733 5.834M30.202 5.225L30.178 5.226 30.169 5.249 30.202 5.225M21.297.976c-.02-.025-.033-.054-.044-.083.019.068-.084.105.044.083M21.575 3.638L21.621 3.628 21.602 3.613 21.575 3.638M29.179 5.301L29.258 5.232 29.179 5.301M26.206.521L26.178.529 26.206.521M29.438 4.98c.039.005.067 0 .09-.009l-.013-.024-.077.032M21.252.892L21.253.893 21.252.892" mask="url(#prefix__l)"/>
                        <path fill="#CA8961" d="M22.721-.031c.033-.018.046 0 .053.019l-.058.019-.002.012.007-.05zm.536.615c-.027-.001-.06.002-.094.007-.011-.032-.007-.068.015-.069-.01.024.043.037.079.062zm-.215.027v.002l-.051.012.051-.014zm-1.827.52l-.238-.166-.002-.002c-.002-.042.126.079.2.132-.034-.03-.112-.138-.083-.137l.038.051c-.023-.048.002-.053.022-.06.029-.008.021-.015.083-.087l.017.03c-.024-.061-.034-.126-.037-.172.05-.008.082-.091.11-.01-.03 0-.028.034-.04.062l.047-.042c.061.113-.065.05-.054.138.096-.051.2-.164.281-.14.03.115-.175.061-.06.153l-.124-.03c.114.173-.073-.005.034.182.16.015.168-.08.328-.065.027-.07-.024-.095.003-.164.208-.144.21.272.355.097.032-.083.03-.233.156-.169l-.023.137c.153-.005.063-.2.232-.13-.022.054-.113.057-.089.07.116.092.064-.084.143-.093l.03.115c.16-.038.326-.144.502-.187-.005.036-.032.076.015.107.217-.086.481-.045.707-.002l.07-.11.023.062c.09.029-.003-.064.033-.109.047-.013.07.05.044.085.138-.104.402-.237.573-.148l-.027.034c.127.026.113-.224.238-.143l-.02.02c.18.008.366-.047.534-.046h.234l.038-.307c.004-.03.01-.06.017-.088l-.366.324c.05.02.095.047.135.086.02-.05.057-.053.098-.044l.068.017c.035.007.069.013.099.012.055-.013.092-.041.092-.104.16.077.13.119.322.157l-.505-.448-.01.025.045.063.366.412c.03-.035.063-.083.106-.09l-.011.106.109-.1.035.134.07-.02c-.026-.009-.05-.054-.042-.084.109-.035.243.105.238.16l.256-.06c-.01.041-.053.05-.09.074.145-.092.011.115.143.03l.021-.083c.052.071.188.089.292.074l-.028.07c.179.041.386.012.59.038-.069-.042-.037-.167.024-.172l.01.115c.048-.065-.057-.05.033-.125.074.022.035.133-.013.165l.098-.028c0 .034-.023.05-.034.09.047-.064.146.133.216.019v.034c.204.026.301-.002.468.013.015-.096.077-.067.136-.14.118.046.244.139.392.149.109-.036.04-.079.093-.13-.003.089.145.098.061.152.178.007.227.01.459-.034-.02-.04-.045-.058-.028-.086.043-.01.088.048.077.09l-.012.007c.126-.052.287.033.384.103.037.064-.002.11.096.03l-.01.008c.043-.027.098-.053.165-.077l-.012.02-.009.005c-.022.012-.087.047-.119.08l.014-.006c.07-.027.052.018.035.044-.018.031-.037.045.006.077-.034.005-.058.003-.078.011l-.05.075c-.022.057-.028.124-.03.194-.005.139.002.284-.093.373L29.9 1.8c.053.06-.043.058-.062.094.048 0 .062-.049.091-.013.02.439-.181.883-.253 1.333-.022.165.314.102.164.304l-.114-.06c.132.33-.008.676.126.995-.027-.018-.062-.017-.063-.049l-.032.058.01.01c.02.01.052.03.084.04-.014.01-.061-.015-.096-.023-.03-.047.045.143-.04.12l-.015-.04c.015.054-.1.15 0 .168-.095.066-.076.197-.172.234.053.109-.15.117-.041.224-.12-.102-.217.066-.208.167-.02-.048-.076.01-.107-.052-.05.057-.076.129-.009.175-.232-.032-.1.316-.326.19-.11.218-.254.388-.41.537-.078-.135.184-.143.08-.272-.117.162-.146.338-.338.403-.055.004-.006-.072-.006-.106-.14.153-.339.153-.469.295l.02-.053c-.03.019-.082.006-.055.071l.026-.028c.09.079-.061.245-.053.3-.005-.212-.187.007-.169-.27-.017.02-.035.062-.017.106-.037-.006-.054-.03-.036-.09-.108.065-.048.128-.158.153-.007-.034.012-.052.014-.094-.039.079-.083.159-.184.142l.015-.05c-.155.039-.26.215-.45.16.05-.151-.063-.045-.074-.177l-.095.037.038.063c-.084-.005-.165.093-.237.042l.067-.049c-.054.007-.108.006-.162.01l.087.058c-.093.057-.003.165-.119.116.026-.01-.09-.011-.126-.091h.001c-.05.038-.101.068-.161.025-.01-.044.038-.139.032-.168-.06.097-.204-.004-.283.09l.038-.102-.056.075c-.032-.038-.034-.053-.014-.103-.113-.048-.005.169-.127.061l.038-.024c-.131-.07-.288-.032-.402-.12.01-.135.121.01.117-.108-.186-.035-.427-.01-.587-.115l.025.028c-.107.155-.083-.148-.207-.116l.06-.06c-.098-.085-.252-.084-.449-.146l.046-.026c-.04-.078-.158-.126-.212-.193-.047.024-.081-.01-.097.063-.026-.186-.144-.227-.265-.264-.118-.041-.238-.08-.255-.239l.06-.004-.177-.09c-.04.07-.012.053-.021.126-.05.02-.119.014-.154-.02.1.02.084-.097.086-.156l-.053.055c.02-.176-.12.108-.16-.059l.034-.025c-.053-.02-.127-.012-.16-.06.046-.083.07.007.125-.047-.062-.049-.236.022-.226-.094.043.004.08.037.122.041.018-.132-.01-.116-.038-.17l.003.006-.06-.13.004.045c-.24.1-.172-.112-.38-.098.2-.01.078-.045.16-.11-.002-.045-.015-.104.017-.114-.106.015-.024-.12-.173-.101.022-.026-.042-.053.03-.1-.074-.042-.03.054-.067.078-.17-.017-.092-.313-.332-.344-.149-.079-.254-.028-.392-.106.01-.073.12-.047.12-.047-.011-.093-.056-.133-.134-.167.033-.007.042-.035.058-.076-.045-.04-.122.046-.134-.047.038-.012.097-.036.145-.038-.07-.034-.161-.051-.23-.091.035-.052.097-.02.143-.023-.07-.049-.17-.137-.26-.1l.006.062.081-.054c.1.012.036.1.012.125l-.05-.029c-.123.165.152.15.211.237l-.14.056.162.01c-.015.04-.067.103-.117.076-.007.104.082.02.062.121l-.02.014.08.03c-.033.008-.07.075-.084.026.022.157.22.098.169.207l-.014-.003c.156.112.092-.053.277-.03l-.134.241.091-.056c.01.017.03.05-.007.074.102.005.027-.04.105-.055-.01.133.203.16.093.289.08-.03-.013-.108.093-.073-.114.146.1.064.098.18-.085.046-.106-.046-.107.073.15-.073.091.142.164.173.092-.087.146.074.26.13-.035.024.12.202.172.313l-.016.013c.1-.08.17.017.25.054-.054.055-.084.067-.14.062l.06.053c.04-.02.074-.02.123.002l-.077.06c.086.064.237.05.302.186.061-.065.072-.26.217-.218-.025.041-.072.11-.113.101.014.003.058-.004.065.028l-.094.027c.026.067.066-.031.1.004-.042.054 0 .06-.039.1-.014-.003-.018-.048-.049-.04.037.045.068.116.055.171.02-.034.055-.074.094-.056.089.058-.02.087.01.153.05-.024.076.057.136-.025.025.018.002.06-.004.09.068 0 .224.134.231.01l-.008-.014.01.001c.206.01.282.254.465.298l-.016.03c.113.015.218.098.322.06.028.013.04.088.01.119.087.011.11-.02.196.08-.1.02.005.06-.095.005.086.07.087.138.231.09-.07.067.038.13.096.124L24.96 7c.06.008.104.033.15.057l-.064.1c.083.108.204.079.309.058.106-.022.194-.028.255.1.076-.065-.108-.08-.034-.16.095.035.17.217.204.224.134.092.159-.14.3-.082-.014-.043-.017-.153.092-.18.097.025.111.184.043.21L26.18 7.3c-.034.012-.08.025-.043.073l.017-.04c.048.05.194.056.156.12.083-.037.037-.066-.02-.089.133.062.211.007.352.048l-.023-.07c.205.04.087-.083.22-.11.082.058-.016.151.118.09.089.03.03.108-.001.142.119-.093.248.017.328.02l-.064.044c.038-.026.072-.03.107-.036l-.054-.075c.042.01.076 0 .082.034.03-.062-.057-.126.006-.217.06.029.142-.08.187.022-.17.003.046.102-.09.152.024-.02.057-.027.1-.022l-.009.032c.186.055.042-.136.2-.183-.001.065.073.1.096.078-.066.02-.063-.087-.02-.15.116.013.095-.071.147-.086l-.065.002c-.002-.065.048-.077.106-.122.024.042-.047.055-.016.065.03-.13.213.037.283-.082.065.014.055.101.11.106.078-.129.166.013.252-.115-.076-.052-.07-.032-.03-.148-.054.052-.105.11-.162.158.024-.055.044-.115.064-.173-.055.033-.094.113-.137.117.028-.089.031-.067-.028-.114.139.07.114-.149.243-.125l.103.176c.186-.007.18-.238.369-.317l-.073.012c-.028-.082.09-.085.121-.15.038.056.086.05.136.066-.036-.036.116-.094.039-.21l.127.01c.145-.086-.001-.27.121-.359.022.085.107.069.07.18.039-.036.08-.062.046-.096.052.007.029-.168.109-.16-.008-.036-.056-.087-.016-.127l.025.022c-.025-.023.022-.099-.068-.11.267.016.255-.345.477-.357.045-.105.093-.234.14-.323l.014.03c.125-.093-.133-.166.015-.294.157-.061.01.11.08.066.276.057-.003-.3.125-.359l.014.024c.074-.08-.095-.183-.08-.31h.034c-.114-.083-.159-.247-.187-.37.087.04.046.056.135.033-.011-.054-.144.016-.167-.094.048-.035.092-.113.187-.122l.004.103c.124-.051-.003-.132.02-.186l.053.008c-.013-.155-.147-.162-.132-.33l-.041.015c-.132-.1.078-.074-.016-.171l.138-.02c-.028-.062-.12-.221-.135-.333.095.07.139.2.194.283.005-.06.002-.204-.061-.24l.019.08c-.102-.081-.146-.184-.133-.304.26.046.098-.306.313-.368-.071-.22.096-.407.12-.648-.217.05.007-.071-.204-.093-.004-.056.008-.1.022-.1.056-.075.118-.163.184-.265.081-.082.03.08.082.066.067-.227.114-.11.217-.296-.092.06-.1-.039-.033-.19l-.158.234c-.048-.188.156-.308.219-.502-.029-.011-.094-.01-.18.001l.18-.045c-.21.014-.672-.083-.894.061-.015-.026-.033-.087.045-.093-.093-.018-.21-.024-.304-.021-.06.007-.122.02-.182.03-.12.021-.234.033-.313-.03l.023-.048c-.043.009-.083.087-.128.03l.004-.055c-.024.015-.12.076-.17.04l.053-.053c-.206-.093-.346.102-.53.115.02-.152-.143-.221-.224-.256l.005-.021c-.247-.05-.439.074-.677.105-.123-.182-.477-.128-.696-.248.031.031-.02.117-.063.127-.05-.037-.163.087-.137-.05l.019.004c-.024-.141-.14-.118-.226-.133l-.037.18c-.194-.292-.606.025-.701-.227l-.06.026.353.398c-.012-.03-.02-.06-.036-.088l-.251-.462-.158.1-.032.026-.009-.098c-.062-.002-.112-.004-.162-.003-.049.002-.122.01-.113.013-.01 0 .006.006-.032.006l.029-.068c-.068-.014-.158.266-.248.261l-.012-.149-.05-.008-.386-.086-.046.468c-.003.03-.009.059-.015.088l.351-.397c-.142-.012-.287-.042-.412.074 0-.022 0-.064.03-.074-.088.007-.348-.057-.292.138-.018-.13-.192.01-.285.08l.004-.097c-.07.132-.068.166-.182.214-.029-.009-.033-.073.007-.053-.1-.04-.061.1-.18.062l.034-.067c-.096.005-.085.037-.128.114-.056.046-.184-.002-.209-.087-.006.055-.05.132-.11.114-.011-.032.007-.055.016-.066-.167-.046-.224.14-.345.06-.006-.032-.015-.047-.025-.055.127-.014.23-.02.22-.012-.01-.089-.114-.092-.048-.224-.074.077-.197.239-.302.21l-.017-.03.01-.01-.062.021c-.034-.01-.055-.019-.086-.016-.02-.072-.122-.026-.174-.023.016.097-.052.089.02.161-.01-.006.008-.012.042-.02l.02-.013-.002.008.126-.021c-.034.054-.072.1-.135.053-.018.066-.04.133-.052.165-.086-.126-.23-.183-.259-.264-.149.073-.363.08-.438.275-.042.028-.058-.046-.078-.073l.065-.05c-.083.057-.26.05-.266.18-.119-.044.048-.125-.103-.085l.016-.042c-.34-.164-.39.377-.97.183.046.01.066.016.088.035-.139-.008-.298-.01-.406.023.055.208.133.425.178.617.05.215.054.322.01.482-.022.11.061.11.132.165l-.1.038.134.094c.108.147-.222.3-.035.48l.067-.033c-.006.072.062.223-.02.218.014.006.075.017.041.048l-.054.007.106.168c-.03.14-.217-.006-.216.192.025.071.17.201.205.172.001-.03.03-.078.085-.083l.032.067c.162.004.33.052.433-.126l-.105-.114.076-.044.01.101c.07-.062.004-.094-.043-.132.04-.012.068-.03.082-.056l-.162-.107c.062-.019.128.044.158-.038-.075-.05-.138.064-.19-.023.067-.063.128-.052.06-.114.04-.013.068 0 .088.024-.055-.055-.034-.157-.123-.18.084-.068-.044-.198.108-.209-.038-.015-.131-.091-.144-.145.194.078-.014-.206.182-.206-.172-.052-.11-.259-.222-.376l.037.029c0-.076.046-.106.069-.159-.068.007-.114-.017-.156-.048-.04-.022-.07-.03-.116-.05.126-.036.166.022.29.001-.11.012-.118-.036-.213-.044.08-.01.036-.016.156.01-.185-.063-.034-.021-.154-.091.087.013.18.091.114.03.06.035.134.092.133.088z" mask="url(#prefix__l)"/>
                        <path fill="#CA8961" d="M22.676.103L22.663.112 22.685.131 22.694.099 22.676.103M23.798 6.292L23.801 6.296 23.8 6.279 23.798 6.292M25.961.54L25.964.515 25.942.534 25.961.54M23.062 5.302L23.067 5.273 23.062 5.302M22.706 4.943l-.025-.076c.008.036.017.059.025.076M22.469 4.632L22.434 4.656 22.434 4.657 22.469 4.632M27.713 6.479l.011-.01c.024-.03.006-.014-.01.01M26.027 6.888l.063-.04c-.03-.01-.054-.015-.063.04M29.17 5.308L29.172 5.31 29.179 5.301 29.17 5.308M26.172 6.858c-.03-.022-.056-.02-.082-.01l.082.01M21.411 3.324L21.403 3.306 21.39 3.314 21.411 3.324M21.39 3.314L21.368 3.305 21.39 3.314M21.322 3.285L21.368 3.305 21.322 3.285M21.695 3.756L21.727 3.738 21.695 3.756M21.803 3.87c-.018-.034-.001-.12-.052-.146l-.024.014c.056-.015.007.143.076.132M21.907 4.657l-.068-.12c-.013.043-.03.1-.078.06.031.202.04-.083.146.06M22.155 5c-.064-.04-.039.038-.057.05.057.01.071.012.057-.05M24.595 6.83l-.044.077c.058.013.015-.03.044-.077M25.293 6.62L25.264 6.55 25.214 6.618 25.293 6.62M25.443 7.322L25.414 7.327 25.519 7.323 25.443 7.322M30.197 5.388l-.1-.048c-.007.043.088.122.1.048M30.494 3.123c.055-.02.092-.079.041-.118-.01.047-.054.093-.041.118" mask="url(#prefix__l)"/>
                    </g>
                    <path fill="#DE976C" d="M37 10.936c.072.208 2.309 14.388-2.896 19.642-5.206 5.255-14.209 2.145-16.402-3.24-1.893-4.648-2.259-13.406 1.424-18.76C22.809 3.227 33.367.28 37 10.937" transform="matrix(-1 0 0 1 58.256 7.128)"/>
                    <path fill="#C57D52" d="M30.238 14.795l-.637 7.03-.091 1.014.095-.125-1.534.3c-.164.032-.094.282.07.25l1.533-.3c.06-.01.09-.07.095-.125l.637-7.028.092-1.016c.015-.166-.245-.165-.26 0" transform="matrix(-1 0 0 1 58.256 7.128)"/>
                    <path fill="#0B0F22" d="M24.462 19.266c.022.488-.237.895-.578.91-.341.016-.635-.368-.657-.856-.021-.487.238-.895.58-.91.34-.015.634.369.655.856M33.097 19.555c.022.488-.237.895-.578.91-.341.015-.635-.368-.657-.856-.021-.487.238-.895.579-.91.341-.015.635.369.656.856" transform="matrix(-1 0 0 1 58.256 7.128)"/>
                    <path fill="#C57D52" d="M14.121 21.023l.065.006c.037.005-.005 0 .01.002l.039.006c.035.005.07.012.105.02.183.037.364.095.531.178.49.244.794.688.82 1.238.024.466-.125 1.092-.687 1.072-.19-.007-.387-.099-.532-.233-.156-.147-.302-.381-.27-.605.035-.246.303-.36.524-.374.303-.02.598.095.789.334.104.13.287-.054.184-.183-.367-.46-1.261-.613-1.644-.086-.366.506.155 1.167.636 1.346.24.088.511.083.74-.034.259-.134.412-.406.476-.682.16-.694-.058-1.433-.64-1.858-.323-.235-.746-.382-1.146-.406-.167-.01-.166.25 0 .26M39.376 21.445c-.337.02-.684.132-.975.297-.257.146-.482.353-.631.61-.186.32-.248.7-.222 1.066.023.317.117.66.37.872.202.168.458.223.714.181.254-.042.496-.187.662-.383.185-.22.324-.534.24-.823-.098-.332-.442-.49-.763-.51-.363-.025-.744.123-.973.41-.103.13.08.314.184.183.17-.212.425-.33.696-.336.21-.004.47.058.577.256.107.196.001.446-.123.609-.124.163-.306.283-.506.33-.178.043-.374.018-.524-.1-.2-.158-.274-.432-.293-.675-.045-.583.165-1.128.676-1.438.191-.116.4-.194.619-.245l.12-.024.052-.009.015-.002.085-.01c.166-.01.167-.27 0-.26" transform="matrix(-1 0 0 1 58.256 7.128)"/>
                    <g transform="matrix(-1 0 0 1 58.256 7.128) translate(23.443 23.496)">
                        <mask id="prefix__n" fill="#fff">
                            <use xlink:href="#prefix__m"/>
                        </mask>
                        <path fill="#893A34" d="M5.58 1.157c-.57.045-1.138-.102-1.613-.42C3.272.27 2.17-.25 1.134.186-.555.895-.61 4.8 3.85 5.102c4.217.286 3.881-2.887 3.334-3.624-.37-.499-1.1-.362-1.603-.322" mask="url(#prefix__n)"/>
                        <path fill="#FFFFFE" d="M7.649.505s.855 1.904-1.815 1.68C.654 1.75.394.915.846-.738L7.649.505" mask="url(#prefix__n)"/>
                        <path fill="#E77C69" d="M7.059 4.84s-.845-1.605-3.271-1.867C1.362 2.712.402 3.91.402 3.91s1.975 2.796 6.657.93" mask="url(#prefix__n)"/>
                    </g>
                    <path fill="#E77C69" d="M35.63 24.438c0 .854-.856 1.547-1.914 1.547-1.058 0-1.915-.693-1.915-1.547s.857-1.547 1.915-1.547 1.915.693 1.915 1.547M22.798 23.519c0 .854-.858 1.547-1.915 1.547-1.058 0-1.916-.693-1.916-1.547s.858-1.547 1.916-1.547c1.057 0 1.915.693 1.915 1.547" transform="matrix(-1 0 0 1 58.256 7.128)"/>
                    <path fill="#DE976B" d="M27.367 29.298c0 .12-.209.217-.466.217-.258 0-.467-.098-.467-.217 0-.12.209-.217.467-.217.257 0 .466.097.466.217" transform="matrix(-1 0 0 1 58.256 7.128)"/>
                    <path fill="#DA4756" d="M22.003 15.15c.084.44.915.221 1.954.023 1.04-.199 1.892-.301 1.808-.74-.084-.44-.994-.636-2.033-.437-1.039.198-1.813.716-1.729 1.155M31.673 14.865c-.086.44.767.546 1.805.75 1.038.203 1.868.426 1.954-.014.086-.439-.686-.96-1.724-1.163-1.038-.203-1.95-.012-2.035.427" transform="matrix(-1 0 0 1 58.256 7.128)"/>
                    <path fill="#A5CDC7" d="M37.901 43.723c-2.44-.76-4.127-1.947-5.285-3.309-.533.382-1.102.722-1.71 1.012-3.814 1.907-8.792 1.189-12.13-1.349-1.16 1.502-2.92 2.823-5.56 3.646C3.134 46.866.843 50.008.057 62.449h51.006c-.786-12.44-3.078-15.583-13.161-18.726" transform="matrix(-1 0 0 1 58.256 7.128)"/>
                    <path fill="#78BBB4" d="M25.422 45.99c1.267 2.85 4.487 4.103 7.339 2.836 3.801-1.584 1.531-5.371-.053-8.222-.023-.047-.036-.098-.053-.147l-.039-.043c-.533.382-1.102.722-1.71 1.012-3.814 1.907-8.792 1.189-12.13-1.349-.432.56-.948 1.093-1.56 1.586-.223.492-.427.978-.595 1.461-1.281 3.686 2.169 7.384 5.861 6.122 1.255-.429 2.373-1.41 2.94-3.257M1.189 54.062C.608 56.277.273 59.006.056 62.449h51.006c-.276-4.366-.739-7.583-1.657-10.06-4.539 3.54-10.165 5.993-15.113 7.54-10.763 3.382-24.21 2.584-33.103-5.867" transform="matrix(-1 0 0 1 58.256 7.128)"/>
                    <path fill="#FFFFFE" d="M32.616 40.414s-6.276 4.496-13.84-.337c0 0-4.446 4.759-.493 7.149 4.223 2.553 7.276-4.027 7.276-4.027s1.462 6.289 6.242 4.321c4.652-1.915.815-7.106.815-7.106" transform="matrix(-1 0 0 1 58.256 7.128)"/>
                    <path fill="#DA4756" d="M21.606 5.223s2.236 4.518 10.874 5.893 8.31 4.739 8.31 4.739-4.517-20.06-19.184-10.632" transform="matrix(-1 0 0 1 58.256 7.128)"/>
                    <path fill="#DA4756" d="M22.468 4.696s1.678 8.794-6.164 12.526c0 0-3.156-7.716 6.164-12.526" transform="matrix(-1 0 0 1 58.256 7.128)"/>
                </g>
            </g>
        </g>
    </g>
</svg>
