<svg xmlns="http://www.w3.org/2000/svg" width="230" height="196" viewBox="0 0 230 196">
    <g fill="none" fill-rule="nonzero">
        <g transform="translate(66.774 53.6)">
            <path fill="#757376" d="M.22 110.972h89.086v26.612c0 2.175-1.773 3.938-3.96 3.938H4.18c-2.187 0-3.96-1.763-3.96-3.938v-26.612z"/>
            <ellipse cx="45.257" cy="126.248" fill="#FFF" rx="8.414" ry="8.377"/>
            <path fill="#757376" d="M4.18.602h81.165c2.188 0 3.961 1.763 3.961 3.938v4.93H.22V4.54C.22 2.364 1.993.6 4.18.6z"/>
            <path fill="#DEE4FE" d="M.22 9.47h89.086v101.503H.22z"/>
            <path fill="#FC1F35" d="M72.091 130.682c-10.551-5.73-2.92-12.855 0-8.057 2.921-4.798 10.552 2.327 0 8.057z"/>
            <rect width="67.31" height="13.794" x="11.108" y="82.394" fill="#FFF" stroke="#D2D2D2" stroke-width=".927" rx="1.973"/>
            <rect width="67.31" height="13.796" x="11.108" y="61.7" fill="#FFF" stroke="#D2D2D2" stroke-width=".927" rx="1.973"/>
        </g>
        <g transform="rotate(15 -5.828 564.342)">
            <rect width="71.269" height="70.953" fill="#F8F9FF" rx="3.946"/>
            <path fill="#454869" d="M0 54.2h71.27v12.815c0 2.175-1.774 3.938-3.961 3.938H3.96C1.773 70.953 0 69.19 0 67.015V54.2z"/>
            <rect width="16.827" height="20.694" x="7.919" y="23.651" fill="#6CC64D" rx=".987"/>
            <path fill="#E8ECFC" d="M21.822 9.682H40.29c.547 0 .99.441.99.985v12.561c0 .365-.203.7-.528.87a.995.995 0 0 1-1.02-.058L21.261 11.48a.981.981 0 0 1-.386-1.104.99.99 0 0 1 .946-.693z"/>
            <rect width="18.807" height="36.462" x="45.533" y="9.854" fill="#E8ECFC" rx=".987"/>
        </g>
        <ellipse cx="137.768" cy="4.435" fill="#FD7C2C" rx="4.455" ry="4.435"/>
        <ellipse cx="31.854" cy="132.544" fill="#FDBC70" rx="4.455" ry="4.435"/>
        <ellipse cx="222.895" cy="108.894" fill="#6CC64D" rx="6.434" ry="6.406"/>
        <g transform="rotate(-15 105.644 -287.081)">
            <rect width="33.655" height="33.506" fill="#F8F9FF" rx="3.946"/>
            <path fill="#B2BEFF" d="M12.748 11.825c.016-.168.057-.334.12-.492l.493-1.225A1.98 1.98 0 0 1 15.2 8.869h3.256c.81 0 1.538.49 1.839 1.239l.492 1.225c.065.162.105.328.12.492h4.828c1.094 0 1.98.882 1.98 1.97v8.872a1.975 1.975 0 0 1-1.98 1.969H7.92a1.975 1.975 0 0 1-1.98-1.969v-8.873c0-1.087.887-1.969 1.98-1.969h4.829z"/>
        </g>
        <path fill="#9CD0FF" d="M31.36 52.23c16.945 0 30.684 13.236 30.684 29.563 0 5.103-1.34 9.904-3.703 14.094l2.743 14.547-14.986-2.708a31.443 31.443 0 0 1-14.739 3.63C14.413 111.357.673 98.12.673 81.795c0-16.328 13.739-29.565 30.686-29.565"/>
        <path fill="#FFF" d="M25.578 81.794c.04 2.658 2.218 4.793 4.892 4.793 2.674 0 4.852-2.135 4.891-4.793C35.322 79.135 33.144 77 30.47 77s-4.853 2.134-4.892 4.793m-14.23 0c0 2.686 2.19 4.863 4.891 4.863 2.702 0 4.892-2.177 4.892-4.863 0-2.687-2.19-4.864-4.892-4.864-2.701 0-4.892 2.177-4.892 4.864m29.352 0c0 2.686 2.19 4.863 4.892 4.863 2.701 0 4.891-2.177 4.891-4.863 0-2.687-2.19-4.864-4.891-4.864-2.702 0-4.892 2.177-4.892 4.864"/>
        <g transform="translate(26.816 143.56)">
            <rect width="33.655" height="33.506" x="6.863" y="6.252" fill="#2296FF" rx="3.946" transform="rotate(-30 23.69 23.005)"/>
            <path fill="#FFF" stroke="#FFF" stroke-linecap="round" stroke-linejoin="round" stroke-width=".514" d="M24.031 28.277c-.658-1.132-1.043-2.112-1.157-2.943-.113-.83.008-1.78.365-2.853.357-1.073.539-1.884.546-2.432a2.866 2.866 0 0 0-.385-1.502c-.794-1.367-1.824-1.686-3.09-.959-.602.345-.977.805-1.125 1.38-.148.577-.041 1.192.318 1.848l-3.534 2.029c-.88-1.554-1.08-3.051-.601-4.492.48-1.44 1.573-2.649 3.279-3.628 1.722-.988 3.298-1.341 4.73-1.057 1.432.283 2.587 1.181 3.465 2.693.4.687.622 1.425.667 2.213.047.787-.1 1.775-.44 2.962l-.445 1.5c-.274.945-.227 1.839.145 2.683l.381.769-3.12 1.79h.001zm1.808 3.928c-.314-.543-.388-1.095-.223-1.66.165-.563.536-1.01 1.114-1.342.576-.33 1.15-.426 1.725-.287.573.14 1.018.48 1.333 1.023.309.533.384 1.077.225 1.633-.16.555-.536 1.003-1.129 1.343-.593.34-1.17.441-1.734.3-.564-.14-1-.477-1.31-1.01z"/>
        </g>
        <g transform="rotate(15 -361.158 660.368)">
            <rect width="33.655" height="33.506" x=".29" y=".221" fill="#2296FF" rx="3.946"/>
            <g fill="#E8ECFC" transform="translate(8.91 5.913)">
                <path d="M6.737 1.667v9.84l-.954-.899-1.238-1.165a1.73 1.73 0 0 0-2.37 0 1.534 1.534 0 0 0 0 2.234l5.04 4.747a1.75 1.75 0 0 0 2.398 0l5.039-4.747a1.534 1.534 0 0 0 0-2.234 1.73 1.73 0 0 0-2.37 0l-1.238 1.165-.954.898V1.667C10.09.747 9.34 0 8.413 0c-.926 0-1.677.746-1.677 1.667h.001z"/>
                <rect width="17.817" height="1.971" y="18.723" rx=".985"/>
            </g>
        </g>
    </g>
</svg>
