<svg  id="messIcon" xmlns="http://www.w3.org/2000/svg" width="24" height="24" viewBox="0 0 24 24">
    <path fill="#2F2F2F" fill-rule="evenodd" d="M18.538 3c1.03 0 1.881.825 1.957 1.86l.005.15v10.72c0 1.053-.805 1.926-1.816 2.004l-.146.005H12.2L7.423 21v-3.26H5.462c-1.03 0-1.881-.826-1.957-1.861l-.005-.15V5.01c0-1.053.805-1.926 1.816-2.003L5.462 3h13.076zm0 1.34H5.462a.65.65 0 0 0-.647.57l-.007.1v10.72c0 .342.236.615.555.662l.099.007H8.73v2.1l3.07-2.1h6.737a.65.65 0 0 0 .647-.57l.007-.1V5.01a.654.654 0 0 0-.654-.67zM8 9c.555 0 1 .445 1 1 0 .555-.445 1-1 1-.555 0-1-.445-1-1 0-.555.445-1 1-1zm4 0c.555 0 1 .445 1 1 0 .555-.445 1-1 1-.555 0-1-.445-1-1 0-.555.445-1 1-1zm4 0c.555 0 1 .445 1 1 0 .555-.445 1-1 1-.555 0-1-.445-1-1 0-.555.445-1 1-1z"/>
</svg>
