<svg xmlns="http://www.w3.org/2000/svg" xmlns:xlink="http://www.w3.org/1999/xlink" width="230" height="183" viewBox="0 0 230 183">
    <defs>
        <ellipse id="a" cx="27.651" cy="27.512" rx="27.651" ry="27.512"/>
    </defs>
    <g fill="none" fill-rule="evenodd" transform="translate(0 -1)">
        <g fill-rule="nonzero" transform="translate(60.888 .876)">
            <ellipse cx="55.023" cy="77.989" fill="#90DFAA" rx="55.023" ry="54.747"/>
            <ellipse cx="32.085" cy="4.716" fill="#FD7C2C" rx="4.661" ry="4.624"/>
            <path fill="#E6E9EE" d="M99.364 110.323c-9.955 13.534-26.142 22.413-44.32 22.413-18.177 0-34.277-8.793-44.319-22.413 7.79-8.275 18.351-12.671 27.18-14.913-.778 6.293 2.787 13.407 2.873 13.148 3.29-7.585 14.18-6.941 14.18-6.941s11.166.603 14.542 8.275c.087.173 3.376-8.189 2.597-14.482 8.916 2.242 19.476 6.638 27.267 14.913z"/>
            <path fill="#FFDECC" d="M68.709 89.383v.834c0 1.123-1.057 6.68-13.594 11.52h-.687c-12.537-4.84-13.224-10.805-13.224-11.929a17.507 17.507 0 0 1 1.546-6.57c3.435 3.89 7.557 6.484 12.022 6.484 4.379 0 8.587-2.507 12.021-6.483.945 2.074 1.916 3.896 1.916 6.144z"/>
            <path fill="#F1543F" d="M62.31 103.656l-2.773 5.581h-9.53l-2.773-5.58c3.812-1.658 7.538-1.92 7.538-1.92s3.812.262 7.537 1.92z"/>
            <path fill="#FF7058" d="M47.234 132.221c2.51.343 5.106.515 7.789.515 2.596 0 5.192-.172 7.789-.515l-3.03-22.984h-9.519l-3.029 22.984z"/>
            <g fill="#FFF">
                <path d="M68.632 89.281c-.482 0 .606 6.833-13.696 12.043 0 0 11.182.598 14.563 8.2.086.341 6.587-16.229-.867-20.243z"/>
                <path d="M41.24 89.281c-7.367 4.014-.953 20.499-.78 20.243 3.295-7.517 14.563-8.2 14.563-8.2-14.389-5.21-13.782-12.043-13.782-12.043z"/>
            </g>
            <path fill="#E9BAA1" d="M67.87 85.214c-3.635 3.83-7.999 6.024-12.847 6.024s-9.177-2.468-12.814-6.297c.174-.596.433-1.192.693-1.702 3.463 3.83 7.619 6.382 12.12 6.382 4.503 0 8.659-2.468 12.122-6.382.26.51.554 1.38.727 1.975z"/>
            <path fill="#FFDECC" d="M78.738 71.845c-1.823 3.026-4.602 4.841-6.686 4.495-4.167 7.693-10.245 13.398-17.018 13.398-6.772 0-12.85-5.791-17.018-13.398-2.083.26-4.862-1.47-6.685-4.495-2.17-3.544-2.258-7.433-.174-8.73.521-.26 1.042-.432 1.65-.346 1.39 3.544 2.665 4.97 2.665 4.97-1.997-10.977 6.416-12.553 5.027-23.098 0 0 5.802 11.16 20.18 3.612.127-.067-.13.93 0 .859l-.908.809c20.491-4.581 13.86 19.404 13.686 20.009 2.344-2.94 2.763-4.824 3.631-7.504.347 0 1.39.516 1.65.69 2.258 1.21 2.17 5.185 0 8.73z"/>
            <path fill="#324A5E" d="M66.775 33.97c1.652-.172 4.346 1.288 4.346 1.288-7.388-8.333-19.47-3.007-19.47-3.007 4.086-3.436 7.736-3.093 7.736-3.093-17.296-2.577-20.251 7.646-20.251 7.646-.782-1.202-.782-2.92-.695-3.78-1.217 2.062.087 6.186.087 6.186-1.217-3.007-5.476-2.491-5.476-2.491 3.65.601 4.259 2.835 4.259 2.835-9.126 3.35-7.562 12.715-7.562 12.715l2.173-2.578c-2.694 10.224 4.172 18.127 4.172 18.127-2-10.91 6.17-12.113 4.78-22.594 0 0 5.128 11.254 19.817 3.35l-1.13 2.148c20.773-4.64 13.472 20.017 13.472 20.017 7.388-9.278 6.258-18.814 6.258-18.814l.87 3.436C82.506 39.897 66.774 33.97 66.774 33.97z"/>
        </g>
        <g transform="translate(46.923 128.054)">
            <mask id="b" fill="#fff">
                <use xlink:href="#a"/>
            </mask>
            <use fill="#AED2FF" fill-rule="nonzero" xlink:href="#a"/>
            <g mask="url(#b)">
                <g transform="translate(4.21 5.028)">
                    <path fill="#563519" d="M23.932 42.113c-14.134.28-15.714-16.158-15.203-24.278C9.684 2.699 23.618-3.371 29.307 1.826c6.048 0 8.88 7.404 9.564 15.864.91 11.258-3.299 24.194-14.94 24.423z"/>
                    <path fill="#FFDECC" d="M28.023 31.876c-.091.14-9.042.281-9.14.42-2.812 3.954-8.886 5.686-13.714 6.75-4.807 1.06-4.992 7.078-5 11.086h46.852c-.007-4.008-.096-10.005-5-11.086-4.903-1.08-11.332-3.037-13.998-7.17z"/>
                    <path fill="#FFDECC" d="M28.29 23.433v11.338c-2.583 3.345-6.807 3.23-9.389 0V23.433c0-6.122 9.388-6.122 9.388 0z"/>
                    <path fill="#F7C5AA" d="M28.29 23.433v7.59c-1.777 1.37-3.49 2.138-4.695 2.138s-2.918-.767-4.694-2.137v-7.591c0-6.122 9.388-6.122 9.388 0z"/>
                    <path fill="#FFDECC" d="M23.595 31.276c-3.056 0-9.512-4.737-11.508-11.522-2.016-6.85 1.78-16.676 11.508-16.676s13.524 9.825 11.509 16.676c-1.997 6.785-8.453 11.522-11.509 11.522z"/>
                    <ellipse cx="11.489" cy="18.655" fill="#FFDECC" rx="3.35" ry="1.91" transform="rotate(-113.24 11.489 18.655)"/>
                    <ellipse cx="35.971" cy="18.657" fill="#FFDECC" rx="3.35" ry="1.91" transform="rotate(-66.758 35.97 18.657)"/>
                    <path fill="#563519" d="M36.033 19.632C39.727 4.02 28.577 1.366 22.07 1.366c-7.326 0-11.769 9.133-10.853 14.884 10.226 1.505 17-1.107 20.322-7.836 1.05 4.097 2.562 8.581 4.493 11.218z"/>
                    <path fill="#EC917F" d="M13.575 36.398c-2.673 1.264-5.731 2.06-8.406 2.649-4.807 1.06-4.992 7.077-5 11.086h46.852c-.007-4.009-.096-10.005-5-11.086-2.626-.579-5.69-1.41-8.38-2.692l-.006.01c-4.032 6.611-7.72 10.213-10.04 11.486-2.317-1.271-5.996-4.863-10.02-11.453z"/>
                    <g fill="#BC7704">
                        <path d="M8.552 50.132c.029-.908.112-2.001.335-3.334-.415 1.3-.71 2.387-.916 3.334h.58zM38.638 50.132a24.768 24.768 0 0 0-.335-3.334c.415 1.3.71 2.387.916 3.334h-.581z"/>
                    </g>
                    <path stroke="#FFF" stroke-dasharray="1.086270656467469,1.629405928052161" stroke-width=".543" d="M12.725 36.743c2.183 4.413 6.694 10.424 10.87 12.4m10.87-12.4c-2.184 4.413-6.694 10.424-10.87 12.4"/>
                </g>
            </g>
        </g>
        <g fill-rule="nonzero">
            <path fill="#B06328" d="M229.03 144.015c0 6.12-5.18 11.273-11.331 11.273-3.238 0-6.151-1.288-8.418-3.543l-36.258-39.298c-1.295-1.288-1.295-3.22 0-4.51l8.417-8.374c1.295-1.289 3.237-1.289 4.532 0l39.496 36.399c2.266 1.932 3.562 5.153 3.562 8.053z"/>
            <path fill="#B0C4D8" d="M179.928 100.152l-6.32 6.32-9.433-9.432 6.32-6.32z"/>
            <path fill="#99B4CD" d="M175.57 102l1.62 1.598 3.24-3.195-9.72-9.588-6.48 6.392 4.86 4.794c1.945-1.918 4.537-1.918 6.48 0z"/>
            <path fill="#D0E9FB" d="M135.183 13.558c-26.891 0-48.599 21.599-48.599 48.355 0 26.756 21.708 48.355 48.6 48.355 26.89 0 48.598-21.599 48.598-48.355 0-26.756-21.707-48.355-48.599-48.355zm0 87.04c-21.383 0-38.879-17.408-38.879-38.685 0-21.276 17.496-38.684 38.88-38.684 21.383 0 38.878 17.408 38.878 38.684 0 21.276-17.495 38.684-38.879 38.684z"/>
            <path fill="#A35425" d="M225.405 135.416l-1.95-1.606c1.625 1.927 2.6 4.496 2.6 7.065 0 4.175-5.2 5.78-8.126 2.89l-34.126-33.72c-1.95-1.926-4.876-1.926-6.826 0l-3.25 3.212 35.427 37.573c1.95 1.927 4.55 3.532 7.15 3.854 3.576.321 7.151-.964 9.426-3.212 2.275-2.247 3.575-5.78 3.25-9.312 0-2.57-1.625-4.818-3.575-6.744z"/>
        </g>
        <ellipse cx="186.268" cy="151.942" fill="#6CC64D" fill-rule="nonzero" rx="6.732" ry="6.678"/>
        <g fill-rule="nonzero" transform="translate(0 84.701)">
            <ellipse cx="27.651" cy="27.512" fill="#B2BEFF" rx="27.651" ry="27.512"/>
            <path fill="#E6E9EE" d="M49.119 44.843A27.661 27.661 0 0 1 27.65 55.025 27.661 27.661 0 0 1 6.183 44.843c3.615-4.81 9.145-7.192 13.674-8.362-.349 2.86 1.132 6.672 1.175 6.586 1.524-3.466 6.62-3.77 6.62-3.77s5.094.304 6.574 3.77c.044.086 1.568-3.726 1.176-6.586 4.572 1.17 10.146 3.553 13.717 8.362z"/>
            <path fill="#FFDECC" d="M33.878 33.795v.043c0 .433-.218 3.206-6.096 5.416h-.262c-5.878-2.21-6.096-4.983-6.096-5.416v-.043c0-.563.13-1.127.261-1.69 1.699 2.123 3.745 3.553 5.966 3.553 2.22 0 4.268-1.43 5.966-3.553.13.563.261 1.127.261 1.69z"/>
            <g fill="#FFF">
                <path d="M33.878 33.795s.305 3.12-6.227 5.546c0 0 5.095.303 6.575 3.769.088.087 3.005-7.452-.348-9.315zM21.424 33.795c-3.353 1.863-.435 9.402-.348 9.272 1.524-3.466 6.575-3.77 6.575-3.77-6.532-2.383-6.227-5.502-6.227-5.502z"/>
            </g>
            <g fill="#FFDECC">
                <path d="M36.796 22.833c-.392 2.686-1.568 5.2-3.528 7.106-.391.39-.74.693-1.175.996l-.697-2.21h-7.49l-.696 2.21c-1.394-1.04-4.311-3.943-4.355-6.672C17.635 8.709 29.611 12 29.611 12c8.055-.563 7.794 6.5 7.185 10.832zM38.407 25.65c-.61.996-1.437 1.69-2.221 1.949.305-.693.566-1.43.784-2.166v-.044l.522-1.95h-.043c.174-.65.348-1.3.479-1.949.174 0 .348.087.522.173.958.607.915 2.383-.043 3.986zM19.116 27.599c-.784-.26-1.61-.953-2.22-1.95-1.002-1.603-1.002-3.38-.044-3.942.087-.044.13-.087.218-.087.522 2.036 1.132 3.553 1.262 3.856.218.693.48 1.43.784 2.123z"/>
            </g>
            <path fill="#324A5E" d="M32.398 7.669c.348-3.986-6.01-3.726-6.01-3.726C16.765 5.329 15.72 14.254 15.72 14.254l1.306-1.56c-2.046 4.463 1.045 12.132 1.306 12.739 1.612 5.329 5.182 10.225 9.32 10.225 4.136 0 7.707-4.896 9.318-10.225v-.044c.174-.65.348-1.3.479-1.95h-.044c.871-3.465 1.83-6.975 1.83-6.975C41.715 4.03 32.397 7.67 32.397 7.67zm4.398 15.164c-.392 2.686-1.568 5.2-3.528 7.106-.391.39-.783.693-1.175.996l-.697-2.166h-7.49l-.696 2.21c-1.394-1.04-2.57-2.47-3.528-4.117a9.166 9.166 0 0 1-.827-2.556c-1.22-15.554 10.756-12.261 10.756-12.261 8.055-.607 7.794 6.455 7.185 10.788z"/>
            <path fill="#324A5E" d="M32.398 7.669c.348-3.986-6.01-3.726-6.01-3.726C16.765 5.329 15.72 14.254 15.72 14.254l1.306-1.56c-2.046 4.463 1.045 12.132 1.306 12.739 1.612 5.329 5.182 10.225 9.32 10.225 4.136 0 7.707-4.896 9.318-10.225v-.044c.174-.65.348-1.3.479-1.95h-.044c.871-3.465 1.83-6.975 1.83-6.975C41.715 4.03 32.397 7.67 32.397 7.67zm4.398 15.164c-.392 2.686-1.568 5.2-3.528 7.106-.391.39-.783.693-1.175.996l-.697-2.166h-7.49l-.696 2.21c-1.394-1.04-2.57-2.47-3.528-4.117a9.166 9.166 0 0 1-.827-2.556c-1.22-15.554 10.756-12.261 10.756-12.261 8.055-.607 7.794 6.455 7.185 10.788z"/>
            <path fill="#324A5E" d="M32.398 7.669c.348-3.986-6.01-3.726-6.01-3.726C16.765 5.329 15.72 14.254 15.72 14.254l1.306-1.56c-2.046 4.463 1.045 12.132 1.306 12.739 1.612 5.329 5.182 10.225 9.32 10.225 4.136 0 7.707-4.896 9.318-10.225v-.044c.174-.65.348-1.3.479-1.95h-.044c.871-3.465 1.83-6.975 1.83-6.975C41.715 4.03 32.397 7.67 32.397 7.67zm4.398 15.164c-.392 2.686-1.568 5.2-3.528 7.106-.391.39-.783.693-1.175.996l-.697-2.166h-7.49l-.696 2.21c-1.394-1.04-4.311-3.943-4.355-6.673-1.22-15.554 10.756-12.261 10.756-12.261 8.055-.607 7.794 6.455 7.185 10.788z"/>
            <path fill="#FFDECC" d="M24.603 30.242c.74.823 1.829 1.386 3.048 1.386a3.97 3.97 0 0 0 3.048-1.386h-6.096z"/>
        </g>
    </g>
</svg>
