<svg xmlns="http://www.w3.org/2000/svg" width="18" height="18" viewBox="0 0 18 18">
    <path fill="#B3BEC9" fill-rule="evenodd" d="M9.321 13.821c.532 0 .965.434.965.965a.966.966 0 0 1-.965.964.966.966 0 0 1-.964-.964c0-.531.433-.965.964-.965zM4.921 3.45l10.606 10.607-.795.795-1.032-1.031H4.5v-.964c.539 0 .693-.21.821-.463a1.45 1.45 0 0 0 .142-.504l.001-.012V8.036c0-.703.191-1.362.523-1.928L4.125 4.245l.795-.795zm1.515 4.375l-.007.21v3.882a2.387 2.387 0 0 1-.249.921l-.008.008-.007.011h6.29c-.003-.011-.01-.019-.015-.03a2.162 2.162 0 0 1-.155-.422l-5.59-5.59c-.143.31-.234.651-.259 1.01zM9.321 2.25c.49 0 .902.377.958.853l.007.111v1.1c1.593.417 2.797 1.819 2.887 3.517l.006.205-.001 2.36-.964-.964V8.036c0-1.548-1.198-2.8-2.722-2.888l-.17-.005c-.413 0-.804.085-1.158.238l-.707-.706a3.88 3.88 0 0 1 .665-.291l.235-.07v-1.1c0-.527.437-.964.964-.964z"/>
</svg>
