<svg xmlns="http://www.w3.org/2000/svg" width="230" height="196" fill="none"><path fill="#757376" d="M66.994 164.572h89.086v26.612a3.95 3.95 0 0 1-3.96 3.938H70.954a3.95 3.95 0 0 1-3.96-3.938v-26.612z"/><ellipse cx="112.031" cy="179.848" fill="#fff" rx="8.414" ry="8.377"/><path fill="#757376" d="M70.954 54.202h81.165a3.95 3.95 0 0 1 3.961 3.938v4.93H66.994v-4.93c0-2.176 1.773-3.94 3.96-3.94z"/><path fill="#dee4fe" d="M66.994 63.07h89.086v101.503H66.994z"/><path fill="#fc1f35" d="M138.865 184.282c-10.55-5.73-2.92-12.855 0-8.057 2.92-4.798 10.552 2.327 0 8.057z"/><g fill="#fff" stroke="#d2d2d2" stroke-width=".927"><rect width="67.31" height="13.794" x="77.882" y="135.994" rx="1.973"/><rect width="67.31" height="13.796" x="77.882" y="115.3" rx="1.973"/></g><g transform="rotate(15 -5.828 564.342)"><rect width="71.269" height="70.953" fill="#f8f9ff" rx="3.946"/><path fill="#454869" d="M0 54.2h71.27v12.815c0 2.175-1.774 3.938-3.96 3.938H3.96A3.95 3.95 0 0 1 0 67.015V54.2z"/><rect width="16.827" height="20.694" x="7.919" y="23.651" fill="#6cc64d" rx=".987"/><g fill="#e8ecfc"><path d="M21.822 9.682H40.3c.547 0 1 .44 1 .985v12.56a.98.98 0 0 1-.528.87.995.995 0 0 1-1.02-.058L21.26 11.48a.981.981 0 0 1-.386-1.104.99.99 0 0 1 .946-.693z"/><rect width="18.807" height="36.462" x="45.533" y="9.854" rx=".987"/></g></g><ellipse cx="137.768" cy="4.435" fill="#fd7c2c" rx="4.455" ry="4.435"/><ellipse cx="31.854" cy="132.544" fill="#fdbc70" rx="4.455" ry="4.435"/><ellipse cx="222.895" cy="108.894" fill="#6cc64d" rx="6.434" ry="6.406"/><g transform="rotate(345 105.644 -287.081)"><rect width="33.655" height="33.506" fill="#f8f9ff" rx="3.946"/><path fill="#b2beff" d="M12.748 11.825a1.79 1.79 0 0 1 .12-.492l.493-1.225A1.98 1.98 0 0 1 15.2 8.869h3.256a1.98 1.98 0 0 1 1.839 1.239l.492 1.225a1.75 1.75 0 0 1 .12.492h4.828c1.094 0 1.98.882 1.98 1.97v8.872a1.975 1.975 0 0 1-1.98 1.969H7.92a1.975 1.975 0 0 1-1.98-1.969v-8.873c0-1.087.887-1.97 1.98-1.97h4.83z"/></g><path fill="#9cd0ff" d="M31.36 52.23c16.945 0 30.684 13.236 30.684 29.563 0 5.103-1.34 9.904-3.703 14.094l2.743 14.547-14.986-2.708a31.443 31.443 0 0 1-14.739 3.63C14.413 111.357.673 98.12.673 81.795S14.412 52.23 31.36 52.23"/><path fill="#fff" d="M25.578 81.794c.04 2.658 2.218 4.793 4.892 4.793s4.852-2.135 4.89-4.793A4.88 4.88 0 0 0 30.47 77c-2.674 0-4.853 2.134-4.892 4.793m-14.23 0c0 2.686 2.2 4.863 4.89 4.863s4.892-2.177 4.892-4.863-2.2-4.864-4.892-4.864-4.892 2.177-4.892 4.864m29.352 0c0 2.686 2.2 4.863 4.892 4.863s4.89-2.177 4.89-4.863-2.2-4.864-4.89-4.864-4.892 2.177-4.892 4.864"/><rect width="33.655" height="33.506" x="6.863" y="6.252" fill="#2296ff" rx="3.946" transform="matrix(.866025 -.5 .5 .866025 18.487358 158.487086)"/><path fill="#fff" stroke="#fff" stroke-linejoin="round" stroke-width=".514" d="M50.847 171.837c-.658-1.132-1.043-2.112-1.157-2.943s.008-1.78.365-2.853.54-1.884.546-2.432c.012-.527-.12-1.046-.385-1.502-.794-1.367-1.824-1.686-3.1-.96-.602.345-.977.805-1.125 1.38s-.04 1.192.318 1.848l-3.534 2.03c-.88-1.554-1.08-3.05-.6-4.492s1.573-2.65 3.28-3.628c1.722-.988 3.298-1.34 4.73-1.057s2.587 1.18 3.465 2.693c.4.687.622 1.425.667 2.213s-.1 1.775-.44 2.962l-.445 1.5c-.274.945-.227 1.84.145 2.683l.38.77-3.12 1.8zm1.808 3.928c-.314-.543-.388-1.095-.223-1.66s.536-1 1.114-1.342 1.15-.426 1.725-.287 1.018.48 1.333 1.023c.31.533.384 1.077.225 1.633s-.536 1.003-1.13 1.343-1.17.44-1.734.3-1-.477-1.3-1z"/><g transform="rotate(15 -361.158 660.368)"><rect width="33.655" height="33.506" x=".29" y=".221" fill="#2296ff" rx="3.946"/><g fill="#e8ecfc"><path d="M15.647 7.58v9.84l-2.192-2.064a1.73 1.73 0 0 0-2.37 0c-.308.3-.483.694-.483 1.117s.175.827.483 1.117l5.04 4.747a1.75 1.75 0 0 0 2.398 0l5.04-4.747c.308-.3.483-.694.483-1.117s-.175-.827-.483-1.117a1.73 1.73 0 0 0-2.37 0L19 17.42V7.58c0-.92-.75-1.667-1.677-1.667s-1.677.746-1.677 1.667z"/><rect width="17.817" height="1.971" y="24.636" rx=".985" x="8.91"/></g></g></svg>