<svg xmlns="http://www.w3.org/2000/svg" width="24" height="24" viewBox="0 0 24 24">
    <g fill="none" fill-rule="evenodd">
        <rect width="24" height="24" rx="2"/>
        <path fill="#2F2F2F" d="M11.993 3c-.703 0-1.286.583-1.286 1.286v1.466c-2.212.578-3.86 2.577-3.86 4.962v5.123s-.021.357-.192.688c-.17.337-.377.618-1.096.618v1.286h12.869v-1.286c-.764 0-.96-.281-1.121-.603-.161-.326-.166-.678-.166-.678v-5.148c0-2.385-1.649-4.384-3.86-4.962V4.286c0-.703-.584-1.286-1.288-1.286zm0 15.429c-.708 0-1.286.577-1.286 1.285S11.285 21 11.993 21c.71 0 1.287-.578 1.287-1.286 0-.708-.578-1.285-1.287-1.285zm0-11.572a3.847 3.847 0 0 1 3.86 3.857v5.138s-.014.613.303 1.25c.005.016.015.026.02.04H7.78a.11.11 0 0 1 .02-.024c.322-.633.332-1.24.332-1.24v-5.164c0-2.14 1.719-3.857 3.86-3.857zM4.267 8.133a.656.656 0 0 0-.583.412 9 9 0 0 0 .015 6.92.644.644 0 0 0 1.187-.502c-.8-1.888-.79-4.033-.01-5.936a.638.638 0 0 0-.06-.608.643.643 0 0 0-.549-.286zm15.447 0a.645.645 0 0 0-.588.894c.78 1.903.79 4.048-.01 5.936a.643.643 0 1 0 1.187.502c.935-2.214.92-4.71.015-6.92a.647.647 0 0 0-.604-.412z"/>
    </g>
</svg>
