<svg xmlns="http://www.w3.org/2000/svg" width="24" height="24" viewBox="0 0 24 24">
    <g fill="none" fill-rule="evenodd">
        <path d="M0 0h24v24H0z"/>
        <path fill="#2F2F2F" d="M18.923 3.006a3.05 3.05 0 0 0-2.175.895h-.006L5.173 15.668l-2.08 6.244 6.239-2.085.132-.126L21.099 8.252a3.087 3.087 0 0 0 0-4.35 3.076 3.076 0 0 0-2.176-.896zm0 1.532c.39 0 .781.145 1.088.451a1.527 1.527 0 0 1 0 2.176L18.797 8.36a3.874 3.874 0 0 0-.866-1.286 3.861 3.861 0 0 0-1.292-.866l1.202-1.226c.3-.294.691-.45 1.082-.445zm-3.3 2.97c.283.023.698.131 1.215.648.523.523.63.938.66 1.22.019.217-.011.247-.023.283l-7.951 7.818a3.933 3.933 0 0 0-.83-1.178 3.866 3.866 0 0 0-1.177-.823l7.824-7.945c.036-.018.066-.042.283-.024zM6.46 16.75c.24.018.625.114 1.154.643.523.523.619.907.637 1.142 0 .03-.006.012 0 .036l-1.466.487a4.326 4.326 0 0 0-.841-.835l.492-1.473c.018.006 0 0 .024 0z"/>
    </g>
</svg>
