<svg xmlns="http://www.w3.org/2000/svg" width="18" height="18" viewBox="0 0 18 18">
    <g fill="none" fill-rule="evenodd">
        <path d="M0 0h18v18H0z"/>
        <path stroke="#4A5157" stroke-linecap="round" stroke-linejoin="round" stroke-width="1.125" d="M14.188 12.509c0-.488-.517-.462-.781-.462a7.41 7.41 0 0 1-3.395-.824l-1.361 1.361a9.34 9.34 0 0 1-3.234-3.235l1.36-1.361a7.404 7.404 0 0 1-.824-3.395c0-.264-.129-.78-.635-.78H2.764c-.514 0-.514.516-.514.78 0 6.162 4.995 11.157 11.157 11.157.264 0 .78-.093.78-.508V12.51z"/>
    </g>
</svg>
