<svg xmlns="http://www.w3.org/2000/svg" width="24" height="24" viewBox="0 0 24 24">
    <defs>
        <linearGradient id="a" x1="94.599%" x2="5.401%" y1="0%" y2="100%">
            <stop offset="0%" stop-color="#00C8FE"/>
            <stop offset="100%" stop-color="#4FACFE"/>
        </linearGradient>
    </defs>
    <path fill="url(#a)" fill-rule="evenodd" d="M15.538 0c1.03 0 1.881.825 1.957 1.86l.005.15v10.72c0 1.053-.805 1.926-1.816 2.004l-.146.005H9.2L4.423 18v-3.26H2.462c-1.03 0-1.881-.826-1.957-1.861l-.005-.15V2.01C.5.957 1.305.084 2.316.007L2.462 0h13.076zm0 1.34H2.462a.65.65 0 0 0-.647.57l-.007.1v10.72c0 .342.236.615.555.662l.099.007H5.73v2.1l3.07-2.1h6.737a.65.65 0 0 0 .647-.57l.007-.1V2.01a.654.654 0 0 0-.654-.67zM5 6c.555 0 1 .445 1 1 0 .555-.445 1-1 1-.555 0-1-.445-1-1 0-.555.445-1 1-1zm4 0c.555 0 1 .445 1 1 0 .555-.445 1-1 1-.555 0-1-.445-1-1 0-.555.445-1 1-1zm4 0c.555 0 1 .445 1 1 0 .555-.445 1-1 1-.555 0-1-.445-1-1 0-.555.445-1 1-1z" transform="translate(3 3)"/>
</svg>
