<svg xmlns="http://www.w3.org/2000/svg" width="14" height="14" viewBox="0 0 16 17">
    <g fill="none" fill-rule="evenodd">
        <path fill="#8B98A5" d="M8 1c.93 0 .95 1.23 0 1.23A6.76 6.76 0 0 0 1.23 9 6.76 6.76 0 0 0 8 15.77 6.76 6.76 0 0 0 14.77 9c0-.474-.05-.937-.142-1.383-.148-.742 1.073-.898 1.255.014.077.445.117.902.117 1.369 0 4.409-3.591 8-8 8s-8-3.591-8-8 3.591-8 8-8z"/>
        <path fill="#8B98A5" d="M4.923 5.952a1.23 1.23 0 1 0-.001 2.46 1.23 1.23 0 0 0 .001-2.46z"/>
        <path stroke="#8B98A5" stroke-linecap="round" stroke-linejoin="round" stroke-width="1.2" d="M11.5 11c-.746 1.2-2.031 2-3.5 2-1.469 0-2.754-.8-3.5-2"/>
        <path fill="#8B98A5" d="M11.077 5.952a1.23 1.23 0 1 0-.001 2.46 1.23 1.23 0 0 0 0-2.46zM13 .5V2h-1.5a.5.5 0 1 0 0 1H13v1.5a.5.5 0 1 0 1 0V3h1.5a.5.5 0 1 0 0-1H14V.5a.5.5 0 1 0-1 0z"/>
    </g>
</svg>
