<svg xmlns="http://www.w3.org/2000/svg" width="210" height="187" viewBox="0 0 210 187">
    <g fill="none" fill-rule="nonzero">
        <g>
            <path fill="#DEE4FE" d="M84.453 187c46.516 0 84.453-38.003 84.453-84.595 0-46.593-37.937-84.595-84.453-84.595C37.938 17.81 0 55.812 0 102.405 0 148.999 37.939 187 84.453 187z" opacity=".481"/>
            <ellipse cx="90.902" cy="5.314" fill="#FD7C2C" rx="5.337" ry="5.314"/>
            <ellipse cx="10.894" cy="178.957" fill="#FDBC70" rx="5.337" ry="5.314"/>
            <ellipse cx="201.982" cy="146.537" fill="#6CC64D" rx="7.709" ry="7.676"/>
            <g fill="#FFF">
                <path d="M65.207 37.97a6.36 6.36 0 0 1 1.845.272 10.348 10.348 0 0 1 10.129-8.188c5.713 0 10.345 4.615 10.351 10.313a5.153 5.153 0 0 1 5.81 5.108 5.153 5.153 0 0 1-5.16 5.148 5.158 5.158 0 0 1-4.333-2.348 10.323 10.323 0 0 1-6.668 2.429 10.321 10.321 0 0 1-6.93-2.655 6.304 6.304 0 0 1-5.045 2.51c-3.485 0-6.311-2.819-6.311-6.295s2.827-6.294 6.312-6.294zM88.684 136.297c.584 0 1.147.088 1.679.248a9.409 9.409 0 0 1 9.21-7.446c5.193 0 9.405 4.197 9.412 9.377a4.686 4.686 0 0 1 5.283 4.646c0 2.586-2.1 4.68-4.693 4.68a4.691 4.691 0 0 1-3.94-2.135 9.38 9.38 0 0 1-6.062 2.209 9.382 9.382 0 0 1-6.3-2.415 5.732 5.732 0 0 1-4.589 2.283c-3.17 0-5.74-2.562-5.74-5.723s2.57-5.724 5.74-5.724zM28.519 68.707a2.8 2.8 0 0 1 .816.121 4.575 4.575 0 0 1 4.479-3.62 4.572 4.572 0 0 1 4.577 4.56c.094-.011.19-.016.288-.016a2.278 2.278 0 0 1 0 4.554c-.803 0-1.51-.415-1.917-1.04a4.565 4.565 0 0 1-2.948 1.074 4.566 4.566 0 0 1-3.065-1.174 2.787 2.787 0 0 1-2.23 1.11 2.787 2.787 0 0 1-2.791-2.783 2.788 2.788 0 0 1 2.79-2.783v-.003z"/>
            </g>
            <g fill="#FFF">
                <path d="M77.699 131.42c1.154 0 2.091.939 2.091 2.096a2.096 2.096 0 0 1-2.091 2.099 2.095 2.095 0 0 1-2.093-2.099c0-1.158.937-2.096 2.093-2.096zM60.573 111.668a.418.418 0 1 1 0 .837.418.418 0 0 1 0-.837zM53.043 113.669a1.194 1.194 0 0 1 0 2.388 1.194 1.194 0 0 1 0-2.388zM33.054 122.64c1.173 0 2.123.953 2.123 2.13 0 1.176-.95 2.13-2.123 2.13a2.127 2.127 0 0 1-2.125-2.13c0-1.177.95-2.13 2.125-2.13zM63.632 107.922c.64 0 1.159.52 1.159 1.163a1.16 1.16 0 0 1-2.318 0 1.16 1.16 0 0 1 1.159-1.163zM69.04 144.973c.854 0 1.545.695 1.545 1.55a1.546 1.546 0 1 1-3.09 0c0-.855.692-1.55 1.544-1.55zM78.341 126.126a.806.806 0 0 1 0 1.614.805.805 0 0 1-.804-.808c0-.445.36-.806.804-.806z"/>
                <path d="M69.607 176.718a7.515 7.515 0 0 0-1.695-7.985 7.462 7.462 0 0 0-7.732-1.785 6.842 6.842 0 0 0-3.114-9.296 6.373 6.373 0 0 0 .928-7.664 6.173 6.173 0 0 0 2.666-1.579 6.228 6.228 0 0 0 1.628-5.926 5.258 5.258 0 0 0 3.372-1.54 5.282 5.282 0 0 0 1.47-2.839c.669-.19 1.3-.549 1.828-1.077a4.24 4.24 0 0 0 1.107-4.033c.836-.058 1.457-.21 2.295-1.048.837-.84 1.886-2.94.558-4.553l32.649-36.12-13.692 5.964 4.802-12.642-35.586 31.393a3.599 3.599 0 0 0-4.878 3.117 4.206 4.206 0 0 0-4.02 1.11 4.205 4.205 0 0 0-1.076 1.833 5.256 5.256 0 0 0-2.831 1.474 5.288 5.288 0 0 0-1.536 3.382 6.191 6.191 0 0 0-5.911 1.633 6.18 6.18 0 0 0-1.602 2.77 6.333 6.333 0 0 0-7.369 1.083 6.803 6.803 0 0 0-1.33-1.884 6.8 6.8 0 0 0-7.943-1.238 7.51 7.51 0 0 0-1.778-7.752 7.46 7.46 0 0 0-7.965-1.7 8.448 8.448 0 0 0-1.395-3.066 10.71 10.71 0 0 0 3.606-2.39c4.202-4.213 4.202-11.045 0-15.258a10.743 10.743 0 0 0-15.007-.208c-.035 1-.056 2-.056 3.006 0 46.817 37.853 84.77 84.546 84.77 2.713 0 5.396-.13 8.042-.38 4.482-10.781-9.222-20.13-17.542-11.786a10.737 10.737 0 0 0-2.383 3.617 8.304 8.304 0 0 0-3.056-1.403z"/>
            </g>
            <path fill="#DFE1E3" d="M72.717 178.69a8.426 8.426 0 0 0-3.073-1.4 7.5 7.5 0 0 0-1.703-7.992 7.519 7.519 0 0 0-7.769-1.786 6.827 6.827 0 0 0-3.128-9.303 6.358 6.358 0 0 0 .932-7.67 6.207 6.207 0 0 0 2.679-1.58 6.216 6.216 0 0 0 1.635-5.932 5.292 5.292 0 0 0 3.389-1.54 5.279 5.279 0 0 0 1.477-2.842 4.231 4.231 0 0 0 2.949-5.114c2.78-.191 4.525-3.513 2.866-5.605l21.483-27.747-22.626 27.56c1.246 2.393-.212 4.796-2.96 5.04 1.34 2.266-.71 5.116-3.024 4.827.846 2.875-1.898 4.474-4.3 4.263.346 3.73-.994 7.182-4.818 8.123 2.288 2.97.93 6.47-1.165 8.042 4.92 2.769 4.982 7.082 2.716 10.594 5.672-1.412 11.687 1.276 10.22 8.98 0 0 3.102.396 4.658 2.778 0 0 5.652-10.32 13.801-6.12 6.079 3.13 5.092 9.633 4.197 12.734.528-.04 1.054-.084 1.58-.135 4.503-10.79-9.267-20.144-17.626-11.795a10.742 10.742 0 0 0-2.394 3.62h.004z"/>
            <path fill="#ECF0F1" d="M22.38 135.832c4.625 0 8.494 3.217 9.46 7.518a6.904 6.904 0 0 1 1.856-.253c2.68 0 5 1.527 6.127 3.753a6.235 6.235 0 0 1 3.583-1.125c3.441 0 6.23 2.77 6.23 6.185a6.129 6.129 0 0 1-.944 3.276 8.672 8.672 0 0 1 1.681 5.138 8.653 8.653 0 0 1-1.15 4.323c3.32.137 5.968 2.85 5.968 6.18a6.116 6.116 0 0 1-.992 3.348 3.753 3.753 0 0 1 4.135 2.729 3.736 3.736 0 0 1 2.783 3.603c0 .754-.225 1.453-.611 2.04-19.999-5.813-36.915-18.783-47.748-35.927-.01-.088-.021-.174-.029-.263l-.12.026a82.983 82.983 0 0 1-9.275-20.532c.3-.047.605-.071.917-.071 3.231 0 5.85 2.599 5.85 5.807 0 .501-.065.989-.185 1.452.418-.078.85-.122 1.291-.122a6.858 6.858 0 0 1 6.334 4.199 9.705 9.705 0 0 1 4.837-1.282l.003-.002z"/>
            <g fill="#FFF">
                <path d="M49.621 180.172c-15.284-6.918-28.152-18.27-36.984-32.426-.01-.09-.021-.177-.03-.267l-.12.026a85.238 85.238 0 0 1-2.317-3.979 6.933 6.933 0 0 1 1.727 2.466 9.614 9.614 0 0 1 4.848-1.302c4.634 0 8.51 3.264 9.478 7.63a6.861 6.861 0 0 1 8 3.551 6.195 6.195 0 0 1 3.591-1.143c3.447 0 6.242 2.811 6.242 6.278 0 1.221-.345 2.36-.946 3.324a8.875 8.875 0 0 1 1.683 5.214c0 1.596-.42 3.093-1.153 4.387 3.316.138 5.964 2.876 5.98 6.24h.001zM74.312 69.702l6.112-5.628 1.286 1.424zM117.284 115.386l4.92-6.922 1.39 1.297-6.311 5.625zM120.808 114.95l3.424-4.61 1.02.88-4.442 3.73zM74.5 66.851l4.63-4.277.57.79-5.199 3.487H74.5z"/>
            </g>
        </g>
        <g transform="rotate(1 -857.903 5027.323)">
            <path fill="#D5E3EF" d="M50.515 62.361l-24.15-24.118 19.722-19.696C55.547 9.1 67.622 2.87 80.703.659l3.623-.603h.604a3.605 3.605 0 0 1 3.622 3.618v.603l-.402 3.818C85.936 21.16 79.697 33.22 70.44 42.464L50.514 62.36z"/>
            <g fill="#F79548">
                <path d="M51.521 81.455c-1.207-1.206-3.22-1.206-4.427 0-1.61 1.608-2.617 6.632-2.818 6.833v.201s.201.202.201 0c.202 0 5.032-1.004 6.843-2.813 1.61-1.206 1.61-3.015.201-4.221zM7.245 37.238c-1.207-1.206-3.22-1.206-4.427 0C1.208 38.846.2 43.67.2 43.871v.2s.202.202.202 0c.201 0 5.031-1.004 6.842-2.813 1.409-1.005 1.409-2.814 0-4.02zM21.534 67.185c-3.622-3.618-9.66-3.618-13.283 0C3.221 72.21.201 86.88 0 87.485c0 .401 0 .602.201.803.403.201.805.201 1.208.201.604-.2 15.295-3.014 20.327-8.24 3.622-3.618 3.622-9.446-.202-13.064z"/>
            </g>
            <path fill="#FCBB76" d="M20.93 67.386c-1.81-1.81-4.83-1.81-6.64 0-2.617 2.613-4.026 9.848-4.026 10.05 0 .2 0 .401.201.401.202.201.202.201.403.201.402 0 7.647-1.608 10.063-4.02 1.81-1.808 1.81-4.823 0-6.632z"/>
            <path fill="#99B4CD" d="M52.528 72.41l-6.038-6.03 12.075-12.058V66.38z"/>
            <path fill="#D5E3EF" d="M56.553 84.47l-8.05-8.04 14.49-14.47c1.006-1.005 2.415-1.608 4.025-1.608 3.22 0 5.635 2.612 5.635 5.627 0 1.608-.603 3.015-1.61 4.02l-14.49 14.47z"/>
            <path fill="#99B4CD" d="M16.302 56.332c1.408-1.407 3.019-2.412 4.629-2.814l3.421-1.206L36.427 64.37l-1.207 3.417c-.604 1.809-1.61 3.417-2.818 4.622l-16.1-16.078z"/>
            <path fill="#6C9ABB" d="M24.352 52.312l-3.019 1.005 6.641 6.632c1.61 1.608 2.013 3.82 1.41 5.829-.202.804-.605 1.608-1.208 2.412l4.226 4.22c1.409-1.406 2.415-3.014 2.817-4.622l1.208-3.417-12.075-12.059z"/>
            <path fill="#99B4CD" d="M16.302 36.233l6.037 6.03 12.076-12.06H22.339z"/>
            <path fill="#D5E3EF" d="M4.226 32.213l8.05 8.04 14.49-14.471c1.007-1.005 1.61-2.412 1.61-4.02 0-3.015-2.615-5.628-5.634-5.628-1.61 0-3.02.603-4.025 1.608L4.227 32.213z"/>
            <ellipse cx="56.553" cy="32.213" fill="#FFF" rx="8.05" ry="8.039"/>
            <path fill="#627DE3" d="M56.553 42.263c-5.635 0-10.063-4.422-10.063-10.05 0-5.627 4.428-10.049 10.063-10.049 5.635 0 10.063 4.422 10.063 10.05 0 5.627-4.428 10.049-10.063 10.049zm0-16.08c-3.422 0-6.038 2.614-6.038 6.03 0 3.417 2.616 6.03 6.038 6.03 3.421 0 6.037-2.613 6.037-6.03 0-3.416-2.616-6.03-6.037-6.03zM50.515 62.361l-6.641 6.633c-.805.804-2.013.804-2.818 0L19.723 47.689c-.805-.804-.805-2.01 0-2.813l6.641-6.633 24.151 24.118zM62.654 78.568l-5.977 5.977-8.1-8.1 5.977-5.978z"/>
            <g fill="#ECF0F9">
                <path d="M34.415 37.238c-.202 0-.604 0-.805-.2a.97.97 0 0 1 0-1.408l10.062-10.05a.974.974 0 0 1 1.41 0 .97.97 0 0 1 0 1.408l-10.064 10.05c0 .2-.402.2-.603.2zM48.502 23.17c-.2 0-.603 0-.805-.202a.97.97 0 0 1 0-1.407l4.025-4.02a.974.974 0 0 1 1.41 0 .97.97 0 0 1 0 1.407l-4.026 4.02c0 .201-.402.201-.604.201z"/>
            </g>
            <path fill="#627DE3" d="M85.13.056h-.603l-3.824.603c-6.239 1.005-12.075 3.015-17.71 5.828a794524283.408 794524283.408 0 0 0 19.32 19.295c2.818-5.628 4.63-11.456 5.837-17.687l.604-3.617v-.603c0-2.211-1.61-3.82-3.623-3.82z"/>
            <path fill="#FFF" d="M70.64 8.296c-.402 0-.805-.2-1.006-.603-.201-.603 0-1.005.604-1.206 4.025-1.608 8.05-2.613 12.277-3.417.603 0 1.006.202 1.207.804 0 .603-.201 1.005-.805 1.206-4.025.603-8.05 1.81-11.874 3.216h-.403z" opacity=".28"/>
            <path fill="#ECF0F9" d="M60.578 69.396c-.201 0-.604 0-.805-.201a.97.97 0 0 1 0-1.407l4.025-4.02a.974.974 0 0 1 1.409 0 .97.97 0 0 1 0 1.407l-4.026 4.02c0 .2-.402.2-.603.2zM16.302 25.179c-.202 0-.604 0-.805-.201a.97.97 0 0 1 0-1.407l4.025-4.02a.974.974 0 0 1 1.409 0 .97.97 0 0 1 0 1.407l-4.026 4.02c0 .201-.402.201-.603.201z"/>
            <path fill="#627DE3" d="M18.373 34.352l-5.978 5.977-8.1-8.1 5.977-5.978z"/>
        </g>
    </g>
</svg>
