<svg xmlns="http://www.w3.org/2000/svg" width="30" height="30" viewBox="0 0 30 30">
    <g fill="none" fill-rule="evenodd">
        <circle cx="15" cy="15" r="15" fill="#2296FF"/>
        <path fill="#FFF" fill-rule="nonzero" d="M7.685 22.889L25.24 15.36c.465-.2.465-.523 0-.722L7.685 7.11c-.465-.2-.785.046-.714.547l.65 4.601c.072.502.534.978 1.032 1.065l8.735 1.519c.5.086.5.227 0 .314l-8.735 1.52c-.499.086-.96.562-1.031 1.064l-.651 4.601c-.07.501.249.746.714.547z"/>
        <path d="M5 4h22v22H5z"/>
    </g>
</svg>
