<svg height="464pt" viewBox="0 0 464.0023 464" width="464pt" xmlns="http://www.w3.org/2000/svg"><path d="m368.003906 319.867188c53.019532 0 96-42.980469 96-96 0-53.019532-42.980468-96-96-96-.960937 0-1.839844 0-2.800781.078124 12.933594-54.664062-19.878906-109.71875-74.113281-124.351562-54.234375-14.636719-110.289063 16.441406-126.609375 70.191406-18.492188-17.8125-45.835938-22.859375-69.472657-12.820312-23.632812 10.039062-38.984374 33.222656-39.003906 58.902344-.027344 9.613281 2.132813 19.105468 6.320313 27.757812-41.695313 12.734375-67.789063 54.066406-61.363281 97.183594 6.429687 43.117187 43.445312 75.039062 87.042968 75.058594zm0 0" fill="#00aeef"/><path d="m360.003906 375.867188c8.835938 0 16-7.164063 16-16v-192c0-8.835938-7.164062-16-16-16h-256c-8.839844 0-16 7.164062-16 16v192c0 8.835937 7.160156 16 16 16zm-248-24v-176h240v176zm0 0" fill="#898890"/><path d="m112.003906 175.867188h240v176h-240zm0 0" fill="#9fe1f6"/><path d="m312.003906 431.867188h-48v-56h-64v56h-48c-8.839844 0-16 7.164062-16 16 0 8.835937 7.160156 16 16 16h160c8.835938 0 16-7.164063 16-16 0-8.835938-7.164062-16-16-16zm0 0" fill="#787680"/><path d="m232.003906 199.867188-72 128h144zm0 0" fill="#ab2300"/><g fill="#f1f2f2"><path d="m232.003906 287.867188c-4.417968 0-8-3.582032-8-8v-40c0-4.417969 3.582032-8 8-8 4.417969 0 8 3.582031 8 8v40c0 4.417968-3.582031 8-8 8zm0 0"/><path d="m232.003906 311.867188c-.539062-.015626-1.074218-.066407-1.601562-.160157-.5-.089843-.988282-.25-1.441406-.480469-.511719-.175781-.996094-.417968-1.445313-.71875l-1.191406-.960937c-.726563-.765625-1.296875-1.660156-1.683594-2.640625-.851563-1.9375-.851563-4.144531 0-6.082031.386719-.976563.957031-1.875 1.683594-2.636719 2.5625-2.542969 6.511719-3.054688 9.636719-1.246094s4.652343 5.484375 3.726562 8.976563c-.925781 3.488281-4.074219 5.925781-7.683594 5.949219zm0 0"/></g></svg>