<svg xmlns="http://www.w3.org/2000/svg" width="24" height="24" viewBox="0 0 24 24">
    <g fill="#2F2F2F" fill-rule="evenodd">
        <path d="M18.538 3c1.078 0 1.962.905 1.962 2.01v10.72c0 1.104-.884 2.01-1.962 2.01H12.2L7.423 21v-3.26H5.462c-1.078 0-1.962-.906-1.962-2.01V5.01C3.5 3.905 4.384 3 5.462 3zm0 1.34H5.462a.654.654 0 0 0-.654.67v10.72c0 .376.286.67.654.67H8.73v2.098L11.8 16.4h6.737a.654.654 0 0 0 .654-.67V5.01a.654.654 0 0 0-.654-.67z"/>
        <path d="M10.044 7.276l-.973.995 2.45 2.508-2.45 2.508.973.995 2.456-2.503 2.456 2.503.973-.995-2.45-2.508 2.45-2.508-.973-.995L12.5 9.78z"/>
    </g>
</svg>
