<svg xmlns="http://www.w3.org/2000/svg" width="24" height="24" viewBox="0 0 24 24">
    <path fill="#2F2F2F" fill-rule="nonzero" d="M5.714 4.5A1.72 1.72 0 0 0 4 6.214v11.429a1.72 1.72 0 0 0 1.714 1.714h11.429a1.72 1.72 0 0 0 1.714-1.714v-2.857l-1.143 1.143v1.714c0 .321-.25.571-.571.571H5.714a.564.564 0 0 1-.571-.571V6.214c0-.321.25-.571.571-.571h11.429c.321 0 .571.25.571.571V7.93l1.143 1.142V6.214A1.72 1.72 0 0 0 17.143 4.5H5.714zm9.407 3.455l-.813.804 2.598 2.598H8.571V12.5h8.335l-2.598 2.594.813.812 3.973-3.977-3.973-3.974z"/>
</svg>
