<svg xmlns="http://www.w3.org/2000/svg" xmlns:xlink="http://www.w3.org/1999/xlink" width="370" height="402" viewBox="0 0 370 402">
    <defs>
        <ellipse id="prefix__a" cx="14.03" cy="13.994" rx="14.03" ry="13.994"/>
        <ellipse id="prefix__c" cx="14.03" cy="13.994" rx="14.03" ry="13.994"/>
        <linearGradient id="prefix__e" x1="100%" x2="12.924%" y1="47.154%" y2="52.989%">
            <stop offset="0%" stop-color="#13C6FE"/>
            <stop offset="100%" stop-color="#5EB3FF"/>
        </linearGradient>
    </defs>
    <g fill="none" fill-rule="evenodd">
        <rect width="237.868" height="398.95" x=".043" fill="#FFF" fill-rule="nonzero" rx="5.007" transform="translate(36.82)"/>
        <rect width="237.034" height="398.116" x="37.28" y=".417" stroke="#E4E4ED" stroke-width=".834" rx="5.007"/>
        <path fill="#CDCDDC" fill-rule="nonzero" d="M50.688 327.693h42.63c1.672 0 3.026 1.356 3.026 3.028v20.652c0 1.671-1.355 3.026-3.027 3.027H49.475c-.482 0-.944-.191-1.285-.532-.342-.34-.534-.802-.534-1.284V330.72c0-1.672 1.357-3.026 3.03-3.026l.002-.002z" opacity=".3"/>
        <g fill="#D4D4E0" fill-rule="nonzero" transform="translate(59.12 337.327)">
            <circle cx="3.825" cy="3.825" r="3.825"/>
            <circle cx="13.215" cy="3.825" r="3.825"/>
            <circle cx="22.604" cy="3.825" r="3.825"/>
        </g>
        <path stroke="#E4E4ED" stroke-linecap="square" stroke-width=".805" d="M37.906 360.627L273.687 360.627"/>
        <g fill="#CDCDDC" fill-rule="nonzero" transform="translate(50.441 109.3)">
            <path d="M3.028 0h152.54c1.673 0 3.028 1.356 3.028 3.028v28.997c0 .803-.318 1.573-.886 2.141-.567.569-1.337.888-2.14.889H1.815C.813 35.054 0 34.24 0 33.237V3.028C0 1.356 1.356 0 3.028 0zm0 41.731h152.54c1.673 0 3.028 1.356 3.028 3.029V65.41c0 1.671-1.355 3.026-3.027 3.027H1.816C.813 68.437 0 67.624 0 66.622V44.76c0-1.673 1.356-3.029 3.028-3.029z" opacity=".3"/>
            <rect width="140.413" height="5.007" x="9.042" y="9.042" opacity=".8" rx="2.504"/>
            <rect width="140.413" height="5.007" x="9.042" y="52.86" opacity=".8" rx="2.504"/>
            <rect width="88.895" height="5.007" x="9.092" y="19.964" opacity=".8" rx="2.504"/>
        </g>
        <g transform="translate(49.306 73.372)">
            <ellipse cx="14.03" cy="13.994" fill="#FFF" fill-rule="nonzero" rx="14.03" ry="13.994" transform="translate(.91 .91)"/>
            <ellipse cx="14.94" cy="14.904" stroke="#C3C3D4" stroke-width="1.169" rx="14.614" ry="14.579"/>
            <g transform="translate(.91 .91)">
                <mask id="prefix__b" fill="#fff">
                    <use xlink:href="#prefix__a"/>
                </mask>
                <g fill-rule="nonzero" mask="url(#prefix__b)">
                    <g transform="translate(3.508 3.499)">
                        <path fill="#5D4037" d="M18.794 9.662C18.628.778 12.445.119 11.05.082c0-.034-8.432-.468-8.63 9.543 0 0 4.953 12.694 2.254 11.949 0 0-1.03 1.563 5.933-2.331l1.084.583c6.469 3.899 4.092 1.165 4.092 1.165-2.505.75 3.011-11.33 3.011-11.33h-.001z"/>
                        <path fill="#EDBB98" d="M11.235 23.34H10.03c-1.019 0-1.846-4.479-1.846-5.538v-2.78c0-1.058.827-1.918 1.846-1.918h1.205c1.02 0 1.846.86 1.846 1.919v2.779c0 1.054-.826 5.538-1.846 5.538z"/>
                        <ellipse cx="16.882" cy="9.662" fill="#F4C5A2" rx="1.61" ry="2.029" transform="rotate(12.263 16.882 9.662)"/>
                        <ellipse cx="4.378" cy="9.794" fill="#F4C5A2" rx="1.61" ry="2.029" transform="rotate(167.737 4.378 9.794)"/>
                        <ellipse cx="10.647" cy="9.533" fill="#F4C5A2" rx="6.065" ry="7.351"/>
                        <path fill="#5D4037" d="M13.081 3.67s-1.73 3.234-5.076 3.963c0 0 .335-.573.427-1.546 0 0-2.308.802-2.67 3.394 0 0-.096 1.395.263 2.11 0 0-1.14-1.833-.907-3.366 0 0-1.185-1.012-1.906.192 0 0 3.965-9.02 10.017-5.533l-.148.788v-.001z"/>
                        <path fill="#5D4037" d="M13.081 3.67s2.28 1.424 1.921 3.963c0 0 .327-.161.58-1.035 0 0 .267 1.207-.313 2.74 0 0 .892-.884.937-1.304 0 0-.178 2.608-.711 3.257 0 0 1.033-1.887 1.387-3.615 0 0-.299-4.588-5.087-5.41l1.288 1.405h-.002z"/>
                        <path fill="#EEB734" d="M13.081 17.692l-.003.005v.037c0 .784-.45 1.452-1.098 1.753l-1.338 2.182h-.027l-1.337-2.182c-.677-.32-1.106-1.004-1.1-1.753v-.037l-.004-.005c-3.843.863-6.843 3.528-7.646 6.774-.008.048 5.096 0 10.095 0 5 0 10.11.048 10.095 0-.794-3.246-3.79-5.906-7.637-6.774z"/>
                    </g>
                </g>
            </g>
        </g>
        <g transform="translate(70.09 230.573)">
            <g>
                <path fill="#F6F7FF" fill-rule="nonzero" d="M3.634.6H186.68c.964 0 1.89.383 2.571 1.065.682.682 1.065 1.607 1.065 2.57v27.796c0 .964-.384 1.888-1.065 2.57-.682.681-1.607 1.064-2.57 1.064H2.18c-1.204 0-2.18-.976-2.18-2.18V4.235C0 2.226 1.627.6 3.634.6z" transform="matrix(-1 0 0 1 191.527 0)"/>
                <path stroke="#DCE0E6" stroke-width=".805" d="M3.634 1.003c-.857 0-1.68.34-2.286.947-.606.606-.946 1.429-.946 2.286v29.249c0 .982.796 1.777 1.778 1.777H186.68c.857 0 1.68-.34 2.286-.946.606-.606.947-1.428.947-2.285V4.234c0-.857-.34-1.68-.948-2.286-.606-.606-1.429-.946-2.286-.945H3.634z" transform="matrix(-1 0 0 1 191.527 0)"/>
            </g>
            <g>
                <path fill="#F6F7FF" fill-rule="nonzero" d="M3.634.081H186.68c.964 0 1.889.382 2.57 1.064.682.681 1.066 1.606 1.066 2.57v18.124c0 .964-.384 1.888-1.065 2.57-.682.681-1.607 1.064-2.57 1.064H2.18c-.578 0-1.133-.23-1.542-.64C.229 24.424 0 23.87 0 23.291V3.715C0 1.708 1.627.081 3.634.081z" transform="matrix(-1 0 0 1 191.527 41.65)"/>
                <path stroke="#DCE0E6" stroke-width=".805" d="M3.634.484C1.849.484.403 1.93.403 3.715v19.578c0 .982.795 1.777 1.777 1.777H186.68c.857 0 1.68-.34 2.286-.946.606-.606.947-1.428.947-2.285V3.715c0-.857-.34-1.68-.947-2.285-.606-.606-1.429-.947-2.286-.946H3.634h0z" transform="matrix(-1 0 0 1 191.527 41.65)"/>
            </g>
            <rect width="168.496" height="5.023" x="12.119" y="11.483" fill="#CDCDDC" fill-rule="nonzero" opacity=".6" rx="2.512"/>
            <rect width="168.496" height="5.023" x="12.338" y="52.164" fill="#CDCDDC" fill-rule="nonzero" opacity=".6" rx="2.512"/>
            <rect width="106.674" height="5.023" x="73.942" y="22.554" fill="#CDCDDC" fill-rule="nonzero" opacity=".6" rx="2.512"/>
        </g>
        <g transform="translate(234.076 196.428)">
            <ellipse cx="14.03" cy="13.994" fill="#FFF" fill-rule="nonzero" rx="14.03" ry="13.994" transform="translate(.91 .91)"/>
            <ellipse cx="14.94" cy="14.904" stroke="#C3C3D4" stroke-width="1.169" rx="14.614" ry="14.579"/>
            <g transform="translate(.91 .91)">
                <mask id="prefix__d" fill="#fff">
                    <use xlink:href="#prefix__c"/>
                </mask>
                <g fill-rule="nonzero" mask="url(#prefix__d)">
                    <g transform="translate(4.677 3.499)">
                        <path fill="#EDBB98" d="M10.53 20.056H9.347c-.999 0-1.812-.79-1.812-1.76v-2.55c0-.971.813-1.76 1.812-1.76h1.18c.998 0 1.811.789 1.811 1.76v2.55c0 .97-.811 1.76-1.811 1.76h.001z"/>
                        <path fill="#09C199" d="M12.339 18.257v.044c0 .97-.811 1.76-1.811 1.76h-1.18c-.999 0-1.812-.79-1.812-1.76v-.044c-3.772.794-6.705 3.233-7.49 6.215-.012.042 4.992 0 9.893 0 4.899 0 9.903.042 9.893 0-.789-2.982-3.724-5.42-7.493-6.215z"/>
                        <path fill="#3F2820" d="M5.5 13.25s.571 3.108-1.092 3.774c0 0-4.595 3.558-2.321 6.28 0 0 1.136-1.353 2.448-1.933 0 0 2.506-1.315 3.008-3.075l.52-2.85L5.5 13.25v.001z"/>
                        <ellipse cx="16.063" cy="10.824" fill="#F4C5A2" rx="1.61" ry="1.861" transform="rotate(12.263 16.063 10.824)"/>
                        <ellipse cx="3.814" cy="10.945" fill="#F4C5A2" rx="1.61" ry="1.861" transform="rotate(167.737 3.814 10.945)"/>
                        <path fill="#F7BEA0" d="M9.953 19.08c2.692 0 5.943-4.646 5.943-8.372 0-3.724-2.66-6.743-5.943-6.743-3.283 0-5.944 3.02-5.944 6.745 0 3.724 3.252 8.37 5.944 8.37z"/>
                        <ellipse cx="9.819" cy="1.823" fill="#3F2820" rx="3.035" ry="1.823"/>
                        <path fill="#3F2820" d="M5.018 8.783C6.86 7.817 8.14 7.345 8.855 7.366c2.774.085 4.283 1.658 4.7 1.65.578-.011 1.117-.156 1.618-.435 0 0 .392.934-.216 1.74 0 0 .254-.114.472-.415.019-.038.043-.072.069-.116l.079-.128c.072-.153.129-.335.151-.554 0 0 .73-.255 1.288.2 0 0 .97-6.352-4.682-7.29 0 0-10.207-2.142-9.544 7.481 0 0 1.13-1.35 1.879.818l.526.499-.177-2.033z"/>
                    </g>
                </g>
            </g>
        </g>
        <path fill="url(#prefix__e)" d="M41.87 0h227.853c2.766 0 5.007 2.242 5.007 5.007v51.747H36.863V5.01c0-1.329.526-2.603 1.466-3.542C39.268.527 40.54 0 41.869 0z"/>
        <g>
            <path fill="#FFF" fill-rule="nonzero" d="M5.246 31.076l3.865-4.102c.286-.31.286-.787 0-1.096-.132-.145-.32-.227-.516-.227s-.383.082-.516.227l-4.382 4.65c-.285.309-.285.785 0 1.094l4.382 4.653c.133.144.32.227.516.227.197 0 .384-.083.516-.227.287-.31.287-.788 0-1.098l-3.864-4.1h-.001z" transform="translate(42.56 4.83)"/>
            <g transform="translate(42.56 4.83) translate(207.966 1.847)">
                <path stroke="#FFF" stroke-width=".834" d="M2.087.419c-.923 0-1.67.743-1.67 1.666v4.59c0 .923.747 1.67 1.67 1.67h14.8c.28 0 .55-.111.748-.31.199-.197.31-.466.31-.747V2.087c0-.923-.749-1.67-1.67-1.67H2.087v.002z" opacity=".4"/>
                <path fill="#FFF" fill-opacity=".5" fill-rule="nonzero" d="M19.196 2.92c.738.19 1.255.855 1.255 1.618 0 .762-.517 1.428-1.255 1.617V2.921z"/>
                <rect width="15.023" height="5.426" x="1.67" y="1.67" fill="#FFF" fill-rule="nonzero" rx=".834"/>
            </g>
            <text fill="#FFF" font-family="ProximaNova-Regular, Proxima Nova" font-size="10.016" transform="translate(42.56 4.83) translate(181.84 .177)">
                <tspan x=".648" y="9.417">100%</tspan>
            </text>
            <path fill="#FFF" fill-rule="nonzero" d="M174.164.177l3.339 3.34-2.087 2.503 2.087 2.086-3.34 3.34v-4.59l-2.086 2.086-.417-.419 2.504-2.503v-.417l-2.92-2.504.416-.418 2.504 2.088V.177zm.835 2.087v2.505l1.28-1.253L175 2.264zm0 4.591V9.36l1.22-1.253-1.22-1.25z" transform="translate(42.56 4.83)"/>
            <text fill="#FFF" font-family="ProximaNova-Regular, Proxima Nova" font-size="10.016" transform="translate(42.56 4.83) translate(95.835 .877)">
                <tspan x=".16" y="9.134">9:41 AM</tspan>
            </text>
            <g fill="#FFF">
                <path fill-rule="nonzero" d="M63.001 8.055l-1.77 1.72-1.804-1.748c.454-.5 1.099-.783 1.774-.78.722 0 1.369.314 1.8.808zm1.82-1.766l-.91.882c-.7-.75-1.683-1.175-2.71-1.17-1.014-.005-1.986.41-2.685 1.144l-.91-.88c.944-.97 2.242-1.514 3.595-1.51 1.43 0 2.718.59 3.62 1.534zm1.816-1.765l-.908.882c-1.19-1.219-2.824-1.903-4.528-1.896-1.692-.007-3.316.669-4.504 1.874l-.91-.88c1.433-1.44 3.383-2.247 5.414-2.239 2.14 0 4.069.866 5.436 2.26z" transform="translate(42.56 4.83)"/>
                <text font-family="ProximaNova-Regular, Proxima Nova" font-size="10.016" transform="translate(42.56 4.83) translate(15.335 .177)">
                    <tspan x=".669" y="9">Network</tspan>
                </text>
                <path fill-rule="nonzero" d="M10.161 2.262c0-.229.193-.415.422-.415h1.241c.234 0 .424.18.424.415v7.1c0 .229-.194.414-.424.414h-1.241c-.111.002-.219-.041-.298-.12-.08-.078-.124-.184-.124-.295V2.262zm-3.34 2.093c0-.233.194-.422.423-.422h1.243c.233 0 .421.193.421.42v5.003c0 .232-.193.42-.421.42H7.244c-.232-.002-.42-.189-.422-.42V4.353v.002zM3.484 6.018c0-.228.193-.415.423-.415h1.242c.233 0 .421.179.421.415v3.343c0 .228-.193.415-.421.415H3.906c-.111.002-.22-.04-.299-.119-.08-.078-.124-.185-.124-.296V6.018zM.145 7.686c0-.228.193-.414.422-.414H1.81c.232 0 .422.18.422.414v1.676c0 .229-.193.414-.422.414H.567c-.11.002-.218-.041-.297-.119-.08-.078-.124-.184-.125-.295V7.686z" transform="translate(42.56 4.83)"/>
            </g>
        </g>
        <g fill-rule="nonzero" transform="translate(50.356 371.546)">
            <path fill="#88838C" stroke="#88838C" stroke-width=".805" d="M11.35 11.412c-.543.615-1.326.968-2.147.968-.822 0-1.604-.353-2.148-.968L1.04 4.865c-.83-.933-.83-2.34 0-3.273.381-.43.929-.676 1.504-.676s1.122.246 1.504.676l6.015 6.547c.472.534.472 1.336 0 1.87-.219.246-.532.386-.86.386-.329 0-.642-.14-.86-.386L2.758 3.93c-.08-.088-.11-.209-.08-.323.024-.11.106-.2.215-.235.108-.029.222.006.295.09L8.775 9.54c.241.264.616.264.858 0 .241-.264.241-.67 0-.934L3.618 2.058c-.27-.311-.663-.49-1.075-.49-.412 0-.804.179-1.075.49-.598.664-.598 1.673 0 2.337l6.019 6.55c.954 1.04 2.479 1.04 3.437 0 .956-1.064.956-2.678 0-3.742l-5.588-6.08c-.08-.086-.11-.207-.081-.321C5.28.69 5.362.6 5.471.567c.107-.03.222.005.294.09l5.587 6.08c1.185 1.29 1.185 3.383 0 4.675h-.001z"/>
            <rect width="161.082" height="6.677" x="19.058" y="4.035" fill="#DDDDEA" rx="3.338"/>
            <path fill="#20BF55" d="M194.327 15.718L194.327 9.89 206.252 8.208 194.329 6.525 194.329 0.696 211.021 8.208z"/>
        </g>
        <g opacity=".9" transform="translate(0 327.59)">
            <ellipse cx="22.004" cy="65.913" fill="#000" fill-opacity=".08" fill-rule="nonzero" rx="11.904" ry="5.03"/>
            <g opacity=".8">
                <path fill="#00B6A3" fill-rule="nonzero" d="M10.079 11.2c.22 3.288-.994 5.153-3.644 5.59-3.977.66-6.818-4.903-6.295-7.893.523-2.99 1.251-.987 2.982-1.646 1.73-.656 3.313-3.289 5.963-3.289s5.632 1.456 4.969 3.948c-.441 1.66-1.766 2.758-3.975 3.29zm19.334 9.84c-1.938-1.973-3.875-2.63-5.812-1.973-2.908.986-3.877 4.93 0 8.873 3.874 3.944 5.812 6.902 5.812 8.216 1.076-1.754 2.69-3.397 4.845-4.93 3.23-2.3 6.134-9.531 1.936-11.502-2.798-1.314-5.058-.876-6.78 1.315z"/>
                <g transform="matrix(-1 0 0 1 32.79 46.142)">
                    <path fill="#C2C2DB" fill-rule="nonzero" d="M1.649 11.07l1.882 6.293c.978 3.268 3.985 5.506 7.396 5.506 3.398 0 6.38-2.265 7.289-5.539l1.739-6.26H1.649z"/>
                    <ellipse cx="10.762" cy="9.103" fill="#D4D4E2" fill-rule="nonzero" rx="9.852" ry="5.572"/>
                    <ellipse cx="9.852" cy="5.572" fill="#736FA0" fill-rule="nonzero" rx="9.852" ry="5.572" transform="translate(.91 .91)"/>
                    <ellipse cx="10.762" cy="6.482" stroke="#EAE9F9" stroke-width=".805" rx="10.254" ry="5.975"/>
                    <path fill="#827DB0" fill-rule="nonzero" d="M1.216 7.862c-.2-.433-.304-.904-.306-1.381C.91 3.404 5.321.91 10.762.91c5.441 0 9.851 2.496 9.851 5.57 0 .479-.106.94-.306 1.382-.528-2.718-4.6-4.832-9.547-4.832-4.943 0-9.016 2.114-9.546 4.83l.002.002z"/>
                </g>
                <path fill="#00B6A3" fill-rule="nonzero" d="M33.077 10.169c-.214-1.084-1.073-1.734-2.576-1.952-2.252-.323-4.826-.648-4.504-3.249.322-2.601 2.254-5.527 7.08-4.876 4.827.65 7.724 2.275 8.368 1.626.644-.65 0 1.948 0 4.875 0 2.925-1.288 5.525-3.863 6.176-1.716.435-3.218-.435-4.505-2.6z"/>
                <path stroke="#00B6A3" stroke-width=".805" d="M32.372 7.924C22.556 19.33 18.61 34.353 20.53 52.994m1.992 0c.219-12.857 1.204-20.617 2.956-23.277m-1.998 23.278c.433-22.582-4.32-36.616-14.257-42.099"/>
            </g>
        </g>
        <g transform="matrix(-1 0 0 1 369.793 159.274)">
            <path fill="#F1BC95" fill-rule="nonzero" d="M70.732 97.252c-.165-.266-.323-.504-.494-.78-.84-1.358-1.896-2.578-2.71-3.971-.257-.461-.46-.95-.603-1.459-.166.102-.333.198-.504.297-.106.141-.243.257-.401.338-1.388.729-2.637 1.555-3.941 2.416-.105.07-.206.094-.306.123.079.164.167.322.225.489.36 1.038.684 2.033 1.076 3.059.264.686.323 1.43.38 2.162.013.145.019.3.024.445l-.177.11.215.585c.052 1.151.121 2.348.624 3.36.611 1.24.998 2.113 1.886 2.528 1.51 3.102 2.834 4.234 3.773 5.47.983 1.302.362 1.522 3.922 1.224 3.556-.296 2.362-2.078 2.362-2.078l.99-.58c.993-.58.413-1.418.413-1.418l-2.95-5.76c.16-.378.268-.762.205-1.13-.016-.093-.093-.144-.125-.22 1.426.525 4.005 1.323 4.582.438.805-1.235-3.194-2.093-4.558-3.107-.88-.654-2.71-1.802-3.91-2.54h.002z"/>
            <path fill="#D18D6D" fill-rule="nonzero" d="M64.682 100.369c-.148-1.4-.229-2.692-.773-4.02-.284-.68-.618-1.339-.998-1.97-.148-.249-.322-.477-.48-.716l-.051.092-.063.2c-.053.177-.145.34-.269.476l-.122.227c.316.445.575.928.77 1.438.36 1.039.68 2.034 1.073 3.06.263.685.322 1.429.382 2.161.075.952 0 1.514.531 2.407-.467-.793.092-2.457 0-3.355"/>
            <path fill="#000" fill-opacity=".08" fill-rule="nonzero" d="M32.862 241.302c-22.334-1.607-36.37-10.697-31.351-20.309 5.023-9.608 27.192-16.096 49.53-14.49 22.33 1.609 36.366 10.699 31.346 20.307-5.02 9.609-27.191 16.1-49.525 14.492z"/>
            <path fill="#1B1B1B" fill-rule="nonzero" d="M35.235 219.308c-.686-3.04-.761-5.386-4.542-5.29-1.328.032-3.03.312-4.322.115-.58-.092-1.065-.452-1.633-.354-.523.092-1.513.861-1.89 1.232-1.359 1.326-1.388 3.516-1.509 5.28-.17 2.597.41 5.2.44 7.796.006.519-.002 1.05.166 1.543.169.49.563.945 1.078 1.019.084-.654.168-1.304.248-1.957-.095.75.907 2.3 1.198 2.979.528 1.245 1.138 2.455 1.86 3.6 1.53 2.428 5.656 6.512 8.856 4.712 2.415-1.36 2.666-3.831 2.559-6.295-.226-4.971-1.424-9.57-2.51-14.38"/>
            <path fill="#083248" fill-rule="nonzero" d="M60.245 139.59c-.225-4.633-.498-9.304-.564-13.997-.088-6.606.545-13.948-1.028-20.386-.057-.233.582-1.148.735-1.34l-3.326 4.23c-2.131 3.598-3.756 7.691-6.619 10.74-1.998 2.137-4.962 3.59-6.4 6.231-1.57 2.887-1.416 7.58-1.885 10.851-.177 1.22-.354 2.448-.357 3.684-.008 1.732.324 3.447.652 5.147l1.82 9.42c.637 3.3 1.226 7.121.453 10.435-.882 3.788-.718 22.348 1.03 27.505 1.598 4.704 1.791 9.59 4.158 14.147.225.435.467.87.816 1.216.774.761 1.948.94 3.036.954 1.783.025 3.617-.31 5.119-1.27.39-.248.761-.546 1.004-.939.625-1.007.242-2.305-.096-3.442-1.671-5.654-3.446-12.26-3.215-18.16.212-5.417-.134-10.907.413-16.305.335-3.321 1.346-6.425 2.333-9.655.554-1.81.994-3.68 1.343-5.584.802-4.356.792-9.067.578-13.482z"/>
            <path fill="#FEC3A8" fill-rule="nonzero" d="M56.952 195.982c.551 2.343 1.203 4.637 1.842 6.794.338 1.137.72 2.435.095 3.442-.241.393-.611.693-1.004.94-1.502.959-3.336 1.294-5.12 1.271-1.087-.016-2.26-.195-3.035-.956-.35-.345-.592-.781-.816-1.216-1.618-3.117-2.222-6.385-2.951-9.647 2.597 1.642 6.26 1.433 10.99-.628z"/>
            <path fill="#0A3A53" fill-rule="nonzero" d="M32.732 198.77c-.342 4.372.317 8.8.352 13.2.024 3.244 1.433 6.315 1.058 9.579-.15 1.314-.718 2.73-1.932 3.262-.773.34-1.666.257-2.47.024-2.336-.681-4.183-2.554-5.33-4.695-1.15-2.138-1.69-4.54-2.163-6.921-1.417-7.135-2.333-14.36-2.74-21.623-.248-4.446.108-8.851.882-13.208l1.911-10.745c1.8-10.13-1.376-20.204-3.403-30.043-.993-4.814-2.232-10.294-1.607-15.23.686-5.418 2.33-10.842 3.236-16.248-.193 1.159 4.589 3.677 5.498 3.963 1.652.519 3.369.361 5.053.13 4.588-.637 8.991-2.376 13.071-4.509C59.263 97.811 58.51 95.59 58.51 95.59c1.382 3.906-.159 6.044-.108 10.148.081 6.193-1.299 12.426-6.222 15.966-3.14 2.26-7.19 3.621-8.525 7.541-.673 1.973-.783 4.08-.89 6.162-.195 3.76-.387 7.533-.195 11.296.146 2.836.512 5.664.557 8.508.06 3.976-.865 7.724-1.328 11.634-.393 3.29-2.911 5.935-3.713 9.126-.768 3.041-2.254 7.145-2.85 10.228-1.433 5.316-2.27 9.507-2.503 12.573z"/>
            <path fill="#D8D8D8" fill-rule="nonzero" d="M34.401 116.61l-9.877-1.83c-.203-.037-.412.018-.571.15-.159.132-.25.328-.25.534v13.191c0 .335.238.623.568.684l9.877 1.83c.204.037.413-.018.571-.15.159-.133.25-.328.25-.535v-13.19c0-.336-.238-.624-.568-.685z"/>
            <path stroke="#0A3A53" stroke-linecap="round" stroke-linejoin="round" stroke-width=".805" d="M26.206 120.325L32.118 121.368"/>
            <path stroke="#0A3A53" stroke-linecap="round" stroke-linejoin="round" stroke-width=".805" d="M24.954 121.854l8.346 1.392m-8.346 0l8.346 1.39m-8.346 0l8.346 1.392m-8.346 0l8.346 1.39m-8.346 0l8.346 1.392" opacity=".38"/>
            <path fill="#FEC3A8" fill-rule="nonzero" d="M33.086 212.134c.07 3.184 1.425 6.206 1.056 9.413-.15 1.316-.718 2.732-1.932 3.264-.773.34-1.666.257-2.47.024-2.336-.681-4.183-2.554-5.33-4.695-.921-1.714-1.453-3.6-1.87-5.506 4.718 2.325 8.234 1.492 10.546-2.5z"/>
            <path fill="#DBA424" fill-rule="nonzero" d="M58.487 50.884c3.682 3.46 4.02 2.3 4.39 9.514.137 2.672-.188 5.292-.016 7.992.184 2.788.548 5.564 1.093 8.304.388 1.932 1.05 3.69 1.401 5.629.364 2.017.8 4.042 1.575 5.948 1.26 3.09.547 4.637-2.372 6.081-.753.37-2.695.704-3.494.339-.96-.435-.912-2.11-1.14-3.116-.517-2.301-1.105-4.586-1.764-6.85-.618-2.129-1.768-3.938-2.668-5.956-1.208-2.734-2.367-5.49-3.477-8.265-1.428-3.517-3.228-7.149-3.83-10.89-.14-.884-1.949-14.79 1.275-13.811 0 0 5.342 1.621 9.027 5.081z"/>
            <path fill="#EEB734" fill-rule="nonzero" d="M62.605 51.816c.797 2.201 2.898 7.999-2.88 14.954-6.717 8.087-1.848 20.252-.973 29.83.258 2.818.516 5.64.776 8.457.081.899.691 3.055.197 3.808-.329.504-1.855.863-2.399 1.084-3.209 1.305-6.702 2.666-10.15 3.199-8.388 1.297-13.261-.239-21.377-2.45.668-4.003.428-10.054.755-14.098.475-5.99.295-12.853-2.167-18.386-1.534-3.444-3.63-6.646-4.767-10.243-.544-1.723-.858-3.513-1.172-5.297l-1.383-7.873c-.464-2.656-1.441-2.212-.08-4.653 1.163-2.088 4.17-8.454 6.091-9.808 4.415-3.114 11.129-8.348 12.74-8.348 1.615 0 2.465-3.4 4.167-4.58 2.079-1.441 3.72 5.104 6.118 5.596 4.064.815 4.754-.35 7.23 1.072 2.055 1.18 8.931 16.785 9.274 17.736z"/>
            <path fill="#E3AB24" fill-rule="nonzero" d="M16.121 50.963c-.876 6.623 9.103 44.753 7.664 48.844-2.447 6.955-4.281 7.092-4.696 8.752-.112.433 13.433 3.928 13.443 3.932.248.06-.847-4.462-.895-4.656-1.516-6.111-2.22-12.395-2.092-18.69.018-1.052.07-2.123.42-3.116.332-.934.917-1.755 1.522-2.544 3.497-4.561 15.081-17.063 10.369-12.89-4.713 4.173-9.406 1.134-11.443 0-2.34-1.3-7.256-5.65-7.88-5.253-2.643 1.689-4.142-13.653-3.514-14.38 2.988-3.459-2.228-5.087-2.898 0z"/>
            <path fill="#FBB99C" fill-rule="nonzero" d="M48.157 40.153c.649 2.027.454 4.151-1.575 5.346-1.437.846-3.292.814-4.823.14-2.37-1.044-3.354-3.417-5.355-4.885-1.695-1.24-3.43-2.468-5.286-3.468-.499-.267-2.28-1.422-2.95-.995 2.867-2.127 5.768-1.542 8.975-2.935 1.798-.78 2.814-2.32 4.986-2.23 1.436.065 2.77.754 3.655 1.887.958 1.253 1.093 2.46 1.422 3.91.244 1.09.607 2.157.95 3.229"/>
            <path fill="#FBB99C" fill-rule="nonzero" d="M32.815 25.216l-.146 10.196s1.157 4.122 4.848 4.914c3.691.789 6.927.566 8.22-.42l1.295-.99.146-10.071-14.363-3.63z"/>
            <path fill="#FFCFB8" fill-rule="nonzero" d="M61.135 12.893S59.902 22.4 55.5 30.234c-3.065 5.45-5.21 6.88-7.733 5.933-2.782-1.043-6.842-5.56-7.998-5.933-3.796-1.228-10.119-4.4-9.042-12.15.718-5.169 10.853-6.898 30.408-5.191z"/>
            <path fill="#1B1B1B" fill-rule="nonzero" d="M67.104 214.098c-.625-2.072-2.064-3.787-3.47-5.437-1.005-1.183-2.091-2.26-3.114-3.413-.483-.548-.739-1.151-1.127-1.746-.18-.273-.822-.811-.856-1.106.592 5.41-5.524 3.966-8.028 1.541-2.845-2.748-3.796-5.71-4.91-9.385-1.425 3.68-1.572 5.507-.29 8.503.39.91 1.46 2.516 1.972 3.57.805 1.66 1.667 3.351 2.855 4.768 1.33 1.586 2.82 3.745 4.482 4.724 2.28 1.336 3.935 2.218 6.683 2.212 1.739-.003 3.626-.177 4.91-1.344.878-.487 1.36-1.34.893-2.887"/>
            <path fill="#1B1B1B" fill-rule="nonzero" d="M44.863 201.693L45.266 210.446 47.088 211.552 47.998 205.203z"/>
            <path fill="#AEAEAE" fill-rule="nonzero" d="M84.57 105.046l.031.063-18.663-1.158c-1.107-.068-2.166.458-2.779 1.382l-3.613 5.467-2.556 1.264.714 1.438.113.228.027-.014c.195.238.482.383.79.4l21.675 1.345c1.187.075 2.323-.49 2.981-1.48l4.98-7.624c.206-.311.24-.705.09-1.047l.01-.003-.856-1.718-2.944 1.455v.002z"/>
            <path fill="#7E7E7E" fill-rule="nonzero" d="M58.6 114.114c.01 0 .024.001.035.004l1.87.118-1.563-3.135-1.476.731 1.134 2.282zm29.76-8.802l.007-.002-.853-1.723-2.944 1.46.031.062-2.11-.13-5.125 4.612 2.323 4.664.62 1.208c1.186.072 2.322-.492 2.981-1.481l4.982-7.622c.205-.311.239-.705.088-1.047"/>
            <path fill="#636363" fill-rule="nonzero" d="M80.67 115.461c.876-.042 1.7-.427 2.297-1.07l-.787-1.575-2.267 1.125.756 1.52z"/>
            <path fill="#5F5F5F" fill-rule="nonzero" d="M88.13 106.078L83.15 113.7c-.658.99-1.795 1.555-2.982 1.481l-21.674-1.343c-.307-.018-.593-.164-.787-.402l-.029.014.027.053.113.226.027-.01c.196.238.482.382.79.4l21.675 1.344c1.186.072 2.322-.492 2.981-1.481l4.98-7.624c.208-.31.242-.705.09-1.046l.008-.003-.14-.284-.008.007c.151.34.117.736-.09 1.046"/>
            <path fill="#FFF" fill-rule="nonzero" d="M79.51 113.864l-21.672-1.344c-.398-.023-.753-.256-.931-.612-.179-.357-.153-.78.068-1.113l5.083-7.68c.614-.921 1.673-1.446 2.779-1.376l21.802 1.35c.855.05 1.337 1.012.862 1.727l-5.007 7.568c-.66.99-1.796 1.553-2.982 1.48"/>
            <path fill="#7F7F7F" fill-rule="nonzero" d="M87.5 104.816l-5.006 7.568c-.658.991-1.795 1.555-2.982 1.48l-21.676-1.346c-.327-.019-.628-.185-.82-.45.126.428.492.772.997.804l21.674 1.343c1.187.075 2.323-.488 2.982-1.478l5.007-7.569c.26-.39.243-.903-.04-1.276.096.312.047.652-.135.924"/>
            <path fill="#8DA4FB" fill-rule="nonzero" d="M62.251 111.018L67.279 103.446 85.657 104.584 80.629 112.156z"/>
            <path fill="#627DE3" fill-rule="nonzero" d="M62.251 111.018L67.279 103.446 85.657 104.584z"/>
            <path stroke="#FFF" stroke-linecap="round" stroke-linejoin="round" stroke-width=".805" d="M80.457 105.72l-3.478 4.868m1.391-4.869l-3.477 4.869m1.39-4.869l-3.477 4.869m1.391-4.869l-3.477 4.869m1.39-4.869l-3.477 4.869"/>
            <path fill="#656565" fill-rule="nonzero" d="M62.538 105.661c-.698-.045-1.583.4-1.976.99-.391.588-.143 1.105.554 1.145.697.045 1.58-.396 1.974-.987.39-.59.145-1.103-.552-1.148"/>
            <path fill="#FEC3A8" fill-rule="nonzero" d="M54.056 97.115s6.023.93 7.905 1.485c1.884.553 6.29.048 6.144 1.568-.15 1.518-5.92 1.078-5.92 1.078.62.475 1.534 1.235 1.82 1.469 1.028.829 2.323 1.9 3.469 2.56 1.265.732 2.65 1.621 2.82 2.527.097.512-.209.694-.714.821-.324.086-.65-.08-.94-.236-.94-.514-2.184-1.111-3.101-1.655-.47-.28-1.535-.815-2.077-1.13.275.49-.177 1.143-.733 1.255-.274.057-.576.023-.82.161-.296.163-.415.516-.629.778-.35.441-1.138.939-1.608 1.294-.837.635-1.665.427-2.557.016-.634-.29-1.265-.582-1.9-.875-.684-.316-1.384-.641-1.925-1.17-.593-.584-.928-1.355-1.185-2.13-.03-.088-1.98-3.063-2.182-2.764-.2.298 4.131-5.052 4.131-5.052h.002z"/>
            <path fill="#FFCB50" fill-rule="nonzero" d="M24.12 40.34c6.607 1.043 4.986 36.922 6.607 41.731.074.012 23.648 13.486 24.764 13.486l-5.175 7.31c-3.783-.054-28.215-10.376-28.978-12.102-.809-1.825-6.26-35.819-5.564-39.644.695-3.826 5.578-11.217 8.346-10.78z"/>
            <path fill="#5D4037" fill-rule="nonzero" d="M60.635 12.52c0 3.709-.812 7.65-2.435 11.823s-3.361 7.42-5.216 9.737c.464 0 1.159.696 2.086 2.087.928 1.391 1.74 3.014 2.435 4.869-.926-5.1-.926-8.694 0-10.78 1.39-3.13 3.712-9.371 4.173-18.78.026-.531-.322-.185-1.043 1.043z"/>
            <circle cx="28.988" cy="117.543" r="1.61" fill="#0A3A53" fill-rule="nonzero"/>
            <path stroke="#000" stroke-linecap="round" stroke-linejoin="round" stroke-width=".805" d="M27.25 111.283L28.988 117.543 32.031 112.679"/>
            <path fill="#5D4037" fill-rule="nonzero" d="M61.678 11.128c-2.447 4.83-7.921 5.994-16.429 3.494-4.002 13.508-5.63 24.517-4.878 33.023-5.004.752-8.382-1.876-10.133-7.881-2.626-9.007.375-26.269.75-28.896C31.363 8.242 35.116-.016 45.249.36c6.756.25 12.232 3.84 16.429 10.767z"/>
        </g>
    </g>
</svg>
