<svg xmlns="http://www.w3.org/2000/svg" width="229" height="235" viewBox="0 0 229 235">
    <g fill="none" fill-rule="evenodd">
        <g transform="translate(0 84.735)">
            <g transform="translate(74.209 1.584)">
                <path fill="#757376" fill-rule="nonzero" d="M.23 116.376h93.28v27.908c0 2.28-1.856 4.129-4.147 4.129H4.377c-2.29 0-4.147-1.849-4.147-4.13v-27.907z"/>
                <ellipse cx="47.388" cy="132.395" fill="#FFF" fill-rule="nonzero" rx="8.81" ry="8.785"/>
                <path fill="#757376" fill-rule="nonzero" d="M4.377.631h84.986c2.29 0 4.147 1.849 4.147 4.13v5.171H.23V4.76C.23 2.479 2.087.63 4.377.63v.001z"/>
                <path fill="#DEE4FE" fill-rule="nonzero" d="M0 9.678h93.28v106.445H0z"/>
                <ellipse cx="123.451" cy="118.993" fill="#6CC64D" fill-rule="nonzero" rx="7.523" ry="7.497"/>
                <path fill="#FC1F35" fill-rule="nonzero" d="M75.485 137.045c-11.048-6.009-3.058-13.48 0-8.449 3.058-5.031 11.049 2.44 0 8.45z"/>
                <rect width="70.197" height="13.98" x="11.879" y="80.652" fill="#FFF" fill-rule="nonzero" stroke="#D2D2D2" stroke-width=".927" rx="2.067"/>
                <rect width="15.119" height="13.98" x="66.957" y="97.858" fill="#6CC64D" fill-rule="nonzero" rx="2.067"/>
                <g stroke="#FFF" stroke-linecap="round" stroke-linejoin="round" stroke-width="1.077">
                    <path d="M78.836 105.386l-2.16-2.689M78.836 105.386l-2.16 2.688M70.737 105.386h8.1"/>
                </g>
                <path fill="#C8C6C6" d="M18.89 88.115l.016 1.55h-.908l.016-1.55-1.346.783-.469-.828 1.36-.768-1.36-.737.469-.859 1.346.798-.016-1.55h.908l-.016 1.55 1.346-.783.454.844-1.361.737 1.36.768-.453.843-1.346-.798zm5.262 0l.015 1.55h-.907l.015-1.55-1.346.783-.468-.828 1.36-.768-1.36-.737.468-.859 1.346.798-.015-1.55h.907l-.015 1.55 1.346-.783.453.844-1.36.737 1.36.768-.453.843-1.346-.798zm5.261 0l.016 1.55h-.908l.016-1.55-1.346.783-.469-.828 1.36-.768-1.36-.737.469-.859 1.346.798-.016-1.55h.908l-.016 1.55 1.346-.783.454.844-1.361.737 1.36.768-.453.843-1.346-.798zm5.262 0l.015 1.55h-.907l.015-1.55-1.346.783-.468-.828 1.36-.768-1.36-.737.468-.859 1.346.798-.015-1.55h.907l-.015 1.55 1.346-.783.453.844-1.36.737 1.36.768-.453.843-1.346-.798zm5.261 0l.016 1.55h-.908l.016-1.55-1.346.783-.469-.828 1.361-.768-1.36-.737.468-.859 1.346.798-.016-1.55h.908l-.016 1.55 1.346-.783.454.844-1.361.737 1.36.768-.453.843-1.346-.798zm5.262 0l.015 1.55h-.907l.015-1.55-1.346.783-.468-.828 1.36-.768-1.36-.737.468-.859 1.346.798-.015-1.55h.907l-.015 1.55 1.346-.783.453.844-1.36.737 1.36.768-.453.843-1.346-.798z"/>
                <rect width="70.197" height="13.98" x="11.879" y="63.593" fill="#FFF" fill-rule="nonzero" stroke="#D2D2D2" stroke-width=".927" rx="2.067"/>
                <rect width="53.997" height="3.226" x="16.478" y="68.679" fill="#D8D8D8" rx="1.613"/>
            </g>
            <ellipse cx="37.645" cy="84.373" fill="#FDBC70" fill-rule="nonzero" rx="4.664" ry="4.651"/>
            <path fill="#9CD0FF" fill-rule="nonzero" d="M32.836.147c17.743 0 32.13 13.881 32.13 31.003a30.013 30.013 0 0 1-3.879 14.78l2.873 15.256-15.692-2.84a32.883 32.883 0 0 1-15.432 3.808C15.09 62.154.706 48.273.706 31.15.705 14.028 15.09.147 32.835.147"/>
            <path fill="#FFF" fill-rule="nonzero" d="M26.783 31.151c.04 2.788 2.321 5.026 5.121 5.026 2.8 0 5.081-2.238 5.122-5.026-.04-2.788-2.322-5.026-5.122-5.026s-5.08 2.238-5.121 5.026m-14.901 0c0 2.817 2.293 5.1 5.122 5.1 2.829 0 5.122-2.283 5.122-5.1 0-2.817-2.293-5.1-5.122-5.1-2.83 0-5.122 2.283-5.122 5.1m30.733 0c0 2.817 2.293 5.1 5.122 5.1 2.829 0 5.122-2.283 5.122-5.1 0-2.817-2.293-5.1-5.122-5.1-2.829 0-5.122 2.283-5.122 5.1"/>
            <g fill-rule="nonzero" transform="translate(33.45 95.21)">
                <rect width="35.24" height="35.137" x="6.461" y="7.134" fill="#2296FF" rx="4.134" transform="rotate(-30 24.081 24.702)"/>
                <path fill="#FFF" stroke="#FFF" stroke-linecap="round" stroke-linejoin="round" stroke-width=".538" d="M24.457 30.115c-.69-1.187-1.093-2.215-1.212-3.086-.119-.87.008-1.868.382-2.993.374-1.125.564-1.976.571-2.55a3.01 3.01 0 0 0-.402-1.575c-.832-1.434-1.91-1.768-3.237-1.006-.63.362-1.022.844-1.177 1.448-.155.604-.043 1.25.332 1.937l-3.7 2.128c-.922-1.63-1.131-3.2-.629-4.71.502-1.51 1.647-2.778 3.433-3.805 1.804-1.037 3.454-1.407 4.954-1.109 1.499.297 2.708 1.239 3.627 2.824.418.72.652 1.495.7 2.32.048.827-.107 1.862-.462 3.107l-.465 1.574c-.288.99-.238 1.928.15 2.813l.4.806-3.267 1.877h.002zm1.893 4.118c-.33-.568-.407-1.148-.235-1.74.173-.59.562-1.06 1.167-1.407.603-.347 1.205-.447 1.806-.301.6.146 1.066.503 1.396 1.072.324.56.403 1.13.236 1.713-.167.582-.561 1.052-1.182 1.409-.621.357-1.226.462-1.816.315-.59-.148-1.047-.501-1.371-1.06h-.001z"/>
            </g>
        </g>
        <g transform="translate(82.047 59.145)">
            <path fill="#563519" d="M39.457 69.871c-23.303.463-25.908-26.81-25.065-40.28C15.966 4.477 38.94-5.595 48.32 3.03c9.971 0 14.642 12.284 15.77 26.318 1.499 18.679-5.44 40.141-24.632 40.522z"/>
            <path fill="#FFDECC" d="M46.202 52.886c-.15.234-14.907.467-15.07.698-4.635 6.559-14.65 9.433-22.61 11.198C.596 66.54.291 76.525.278 83.176h77.246c-.012-6.65-.16-16.6-8.243-18.394-8.084-1.792-18.685-5.038-23.08-11.896z"/>
            <path fill="#FFDECC" d="M46.642 38.878v18.81c-4.257 5.551-11.222 5.36-15.48 0v-18.81c0-10.157 15.48-10.157 15.48 0z"/>
            <path fill="#F7C5AA" d="M46.642 38.878v12.594c-2.93 2.273-5.752 3.546-7.74 3.546-1.987 0-4.81-1.273-7.74-3.546V38.878c0-10.157 15.48-10.157 15.48 0z"/>
            <path fill="#FFDECC" d="M38.902 51.89c-5.039 0-15.683-7.86-18.975-19.115-3.322-11.366 2.936-27.668 18.975-27.668 16.04 0 22.297 16.301 18.975 27.668C54.585 44.03 43.941 51.89 38.902 51.89z"/>
            <ellipse cx="18.942" cy="30.95" fill="#FFDECC" rx="5.524" ry="3.169" transform="rotate(-113.24 18.942 30.95)"/>
            <ellipse cx="59.306" cy="30.954" fill="#FFDECC" rx="5.523" ry="3.169" transform="rotate(-66.758 59.306 30.954)"/>
            <path fill="#563519" d="M59.408 32.572c6.09-25.9-12.292-30.306-23.018-30.306-12.08 0-19.404 15.153-17.895 24.695 16.86 2.496 28.029-1.837 33.507-13 1.731 6.797 4.223 14.236 7.406 18.61z"/>
            <path fill="#FEB132" d="M22.382 60.389c-4.408 2.097-9.45 3.416-13.86 4.394C.596 66.541.291 76.526.278 83.177h77.246c-.012-6.65-.16-16.6-8.243-18.394-4.33-.96-9.383-2.339-13.817-4.465l-.01.017C48.807 71.303 42.728 77.279 38.9 79.39c-3.82-2.108-9.885-8.068-16.52-19.001z"/>
            <g fill="#BC7704">
                <path d="M14.1 83.176c.047-1.507.185-3.32.552-5.532-.684 2.156-1.17 3.96-1.51 5.532h.958zM63.703 83.176a41.345 41.345 0 0 0-.551-5.532c.684 2.156 1.169 3.96 1.51 5.532h-.959z"/>
            </g>
            <path stroke="#FFF" stroke-dasharray="1.808465132790227,2.712697588628338" stroke-width=".904" d="M20.98 60.962c3.6 7.32 11.036 17.293 17.92 20.572m17.922-20.572c-3.599 7.32-11.035 17.293-17.92 20.572"/>
        </g>
        <path fill="#F8F9FF" d="M194.902 57.532c6.84 7.966 12.06 16.21 15.659 24.733 5.4 12.784 11.3 34.479-3.78 59.683-5.694 9.516-17.753 23.316-36.178 41.401 21.106-15.242 35.505-27.25 43.198-36.024 11.9-13.575 22.679-43.015 4.483-78.381-2.751-5.348-7.665-12.915-14.743-22.703l-8.64 11.29z"/>
        <rect width="35.24" height="35.137" x="188.878" y="133.96" fill="#2296FF" fill-rule="nonzero" rx="4.134" transform="rotate(66 206.498 151.529)"/>
        <path fill="#879CEC" d="M214.88 165.606h12.42l-4.32-4.302z"/>
        <g fill="#FFF" fill-rule="nonzero" stroke="#879CEC" stroke-width="1.077">
            <path d="M192.97 151.94l-2.164-4.925 22.226-9.683 2.165 4.926zM196.21 158.393l-2.164-4.926 22.226-9.683 2.164 4.926zM199.45 164.845l-2.164-4.926 22.226-9.683 2.164 4.926z"/>
        </g>
        <g fill-rule="nonzero" transform="translate(128.296)">
            <path fill="#F8B64C" d="M63.076 39.504l-4.99-.135.134 4.97c.135 8.057 6.879 14.638 14.971 14.907l4.99.134-.134-4.97c-.27-8.057-6.879-14.772-14.971-14.906z"/>
            <path fill="#FFD15C" d="M64.425 42.19l-3.507-.135.135 3.492c.135 5.775 4.99 10.61 10.79 10.744l3.506.134-.135-3.491c-.135-5.775-4.99-10.61-10.79-10.744z"/>
            <path fill="#6CC64D" d="M83.307 39.1c-.675-1.208-1.619-2.282-2.563-3.223-2.428-2.417-5.395-4.029-8.632-4.834-6.07-1.478-12.813.134-17.533 4.834-4.721 4.7-6.34 11.416-4.856 17.46.81 3.088 2.428 6.177 4.856 8.595a19.28 19.28 0 0 0 3.237 2.551c-7.014.269-14.297-2.283-19.692-7.655-4.316-4.298-6.743-9.535-7.553-15.042-1.079-7.923 1.484-16.116 7.553-22.159 6.07-6.043 14.432-8.595 22.254-7.52 5.53.805 10.925 3.222 15.106 7.52 5.53 5.238 8.092 12.49 7.823 19.474z"/>
            <path fill="#F8F9FF" d="M71.708 39.235C67.93 16.27 48.105-.652 23.558.019l-4.855.135-.135 4.834c-.675 24.443 16.32 44.185 39.383 47.946l13.757-13.7z"/>
            <ellipse cx="5.825" cy="35.852" fill="#FD7C2C" rx="5.209" ry="5.191"/>
            <g fill="#879CEC">
                <path d="M47.43 49.979c3.372 1.343 6.879 2.283 10.52 2.955l13.623-13.565c-.54-3.626-1.619-7.118-2.968-10.475L47.43 49.979zM39.608 2.168A52.108 52.108 0 0 0 23.558.02l-4.855.135-.135 4.834a51.477 51.477 0 0 0 2.158 15.982L39.608 2.168z"/>
            </g>
            <path fill="#F2F2F2" d="M57.95 52.934c1.35.268 2.833.402 4.182.537l9.98-9.938c-.135-1.478-.27-2.82-.54-4.164L57.952 52.934z"/>
            <ellipse cx="41.074" cy="22.488" fill="#879CEC" rx="10.385" ry="10.341"/>
            <ellipse cx="41.074" cy="22.488" fill="#84DBFF" rx="7.283" ry="7.252"/>
            <path fill="#54C0EB" d="M36.506 18.956a6.45 6.45 0 0 1 9.171 0c2.428 2.417 2.563 6.312.27 8.863.135-.134.27-.134.27-.268a7.192 7.192 0 0 0 0-10.207 7.267 7.267 0 0 0-10.25 0 7.192 7.192 0 0 0 0 10.207c.134.134.27.134.27.268-2.159-2.551-2.159-6.446.269-8.863z"/>
        </g>
    </g>
</svg>
