<svg xmlns="http://www.w3.org/2000/svg" width="102" height="100" viewBox="0 0 102 100">
    <g fill="none" fill-rule="evenodd">
        <path fill="#EAECEF" d="M0 0h102v100H0z"/>
        <path fill="#101010" fill-opacity=".449" d="M63.256 40.631h-23.83a.424.424 0 0 0-.426.422v18.525c0 .233.191.422.426.422h23.83c.235 0 .424-.19.424-.422V41.053a.422.422 0 0 0-.424-.422zM39.852 59.157h3.403v-3.79h-3.403v3.79zm0-4.632h3.403v-3.79h-3.403v3.79zm0-4.63h3.403v-3.791h-3.403v3.791zm0-4.632h3.403v-3.789h-3.403v3.79zm14.696 5.407l-4.681 2.948a.435.435 0 0 1-.435.015.422.422 0 0 1-.22-.37v-5.895c0-.154.085-.296.22-.37a.432.432 0 0 1 .435.015l4.68 2.948a.415.415 0 0 1 0 .709zm4.876 8.487h3.406v-3.79h-3.406v3.79zm0-4.632h3.406v-3.79h-3.406v3.79zm0-4.63h3.406v-3.791h-3.406v3.791zm0-4.632h3.406v-3.789h-3.406v3.79z"/>
    </g>
</svg>
